<?xml version="1.0" encoding="UTF-8" standalone="no"?>
<!DOCTYPE svg PUBLIC "-//W3C//DTD SVG 1.1//EN" "http://www.w3.org/Graphics/SVG/1.1/DTD/svg11.dtd">
<!-- Generated by Microsoft Visio, SVG Export approx_channel.svg Page-3 -->
<svg xmlns="http://www.w3.org/2000/svg" xmlns:xlink="http://www.w3.org/1999/xlink" xmlns:ev="http://www.w3.org/2001/xml-events"
		xmlns:v="http://schemas.microsoft.com/visio/2003/SVGExtensions/" width="9.26042in" height="2.52784in"
		viewBox="0 0 666.75 182.004" xml:space="preserve" color-interpolation-filters="sRGB" class="st14">
	<v:documentProperties v:langID="1033" v:viewMarkup="false">
		<v:userDefs>
			<v:ud v:nameU="msvNoAutoConnect" v:val="VT0(1):26"/>
		</v:userDefs>
	</v:documentProperties>

	<style type="text/css">
	<![CDATA[
		.st1 {fill:#ffffff;stroke:none;stroke-linecap:round;stroke-linejoin:round;stroke-width:0.75}
		.st2 {fill:#ffffff;stroke:#000000;stroke-linecap:round;stroke-linejoin:round;stroke-width:0.75}
		.st3 {stroke:#000000;stroke-linecap:round;stroke-linejoin:round;stroke-width:0.75}
		.st4 {marker-end:url(#mrkr4-36);stroke:#000000;stroke-linecap:round;stroke-linejoin:round;stroke-width:0.75}
		.st5 {fill:#000000;fill-opacity:1;stroke:#000000;stroke-opacity:1;stroke-width:0.18796992481203}
		.st6 {fill:none;stroke:none;stroke-linecap:round;stroke-linejoin:round;stroke-width:0.75}
		.st7 {fill:#000000;font-family:Calibri;font-size:1.5em}
		.st8 {font-size:1em}
		.st9 {fill:#000000;font-family:Times New Roman;font-size:1.5em}
		.st10 {baseline-shift:-32.4951%;font-size:0.649902em}
		.st11 {marker-end:url(#mrkr4-78);marker-start:url(#mrkr4-76);stroke:#000000;stroke-dasharray:5.25,3.75;stroke-linecap:round;stroke-linejoin:round;stroke-width:0.75}
		.st12 {fill:#000000;fill-opacity:1;stroke:#000000;stroke-opacity:1;stroke-width:0.29411764705882}
		.st13 {stroke:#000000;stroke-dasharray:5.25,3.75;stroke-linecap:round;stroke-linejoin:round;stroke-width:0.75}
		.st14 {fill:none;fill-rule:evenodd;font-size:12px;overflow:visible;stroke-linecap:square;stroke-miterlimit:3}
	]]>
	</style>

	<defs id="Markers">
		<g id="lend4">
			<path d="M 2 1 L 0 0 L 2 -1 L 2 1 " style="stroke:none"/>
		</g>
		<marker id="mrkr4-36" class="st5" v:arrowType="4" v:arrowSize="3" v:setback="10.64" refX="-10.64" orient="auto"
				markerUnits="strokeWidth" overflow="visible">
			<use xlink:href="#lend4" transform="scale(-5.32,-5.32) "/>
		</marker>
		<marker id="mrkr4-76" class="st12" v:arrowType="4" v:arrowSize="1" v:setback="6.32" refX="6.32" orient="auto"
				markerUnits="strokeWidth" overflow="visible">
			<use xlink:href="#lend4" transform="scale(3.4) "/>
		</marker>
		<marker id="mrkr4-78" class="st12" v:arrowType="4" v:arrowSize="1" v:setback="6.8" refX="-6.8" orient="auto"
				markerUnits="strokeWidth" overflow="visible">
			<use xlink:href="#lend4" transform="scale(-3.4,-3.4) "/>
		</marker>
	</defs>
	<g v:mID="7" v:index="3" v:groupContext="foregroundPage">
		<title>Page-3</title>
		<v:pageProperties v:drawingScale="1" v:pageScale="1" v:drawingUnits="19" v:shadowOffsetX="9" v:shadowOffsetY="-9"/>
		<g id="shape146-1" v:mID="146" v:groupContext="shape">
			<title>Sheet.146</title>
			<rect x="0" y="-0.245728" width="666.773" height="182.25" class="st1"/>
		</g>
		<g id="shape1-3" v:mID="1" v:groupContext="shape" transform="translate(157.875,-78.1293)">
			<title>Sheet.1</title>
			<rect x="0" y="96.5043" width="94.5" height="85.5" class="st2"/>
		</g>
		<g id="shape2-5" v:mID="2" v:groupContext="shape" transform="translate(4.0551,5.68124) rotate(-65.0881)">
			<title>Sheet.2</title>
			<path d="M0 182 L37.39 182" class="st3"/>
		</g>
		<g id="shape3-8" v:mID="3" v:groupContext="shape" transform="translate(406.195,5.68124) rotate(65.0881) scale(-1,1)">
			<title>Sheet.3</title>
			<path d="M0 182 L37.39 182" class="st3"/>
		</g>
		<g id="shape4-11" v:mID="4" v:groupContext="shape" transform="translate(184.875,-133.57)">
			<title>Sheet.4</title>
			<path d="M0 182 L40.5 182" class="st3"/>
		</g>
		<g id="shape5-14" v:mID="5" v:groupContext="shape" transform="translate(300.75,-88.2543)">
			<title>Sheet.5</title>
			<ellipse cx="32.625" cy="149.379" rx="32.625" ry="32.625" class="st2"/>
		</g>
		<g id="group9-16" transform="translate(315.375,-102.879)" v:mID="9" v:groupContext="group">
			<title>Sheet.9</title>
			<g id="shape6-17" v:mID="6" v:groupContext="shape" transform="translate(128.696,17.3078) rotate(45)">
				<title>Sheet.6</title>
				<path d="M0 182 L50.82 182" class="st3"/>
			</g>
			<g id="shape8-20" v:mID="8" v:groupContext="shape" transform="translate(-128.696,53.3078) rotate(-45)">
				<title>Sheet.8</title>
				<path d="M0 182 L50.91 182" class="st3"/>
			</g>
		</g>
		<g id="shape10-23" v:mID="10" v:groupContext="shape" transform="translate(413.25,-78.1293)">
			<title>Sheet.10</title>
			<rect x="0" y="96.5043" width="94.5" height="85.5" class="st2"/>
		</g>
		<g id="shape12-25" v:mID="12" v:groupContext="shape" transform="translate(658.745,12.7223) rotate(66.3706) scale(-1,1)">
			<title>Sheet.12</title>
			<path d="M0 182 L39.29 182" class="st3"/>
		</g>
		<g id="shape13-28" v:mID="13" v:groupContext="shape" transform="translate(435.75,-132.331)">
			<title>Sheet.13</title>
			<path d="M0 182 L40.5 182" class="st3"/>
		</g>
		<g id="shape14-31" v:mID="14" v:groupContext="shape" transform="translate(252.375,-120.879)">
			<title>Sheet.14</title>
			<path d="M0 182 L40.39 182" class="st4"/>
		</g>
		<g id="shape17-37" v:mID="17" v:groupContext="shape" transform="translate(366,-120.879)">
			<title>Sheet.17</title>
			<path d="M0 182 L40.39 182" class="st4"/>
		</g>
		<g id="shape18-42" v:mID="18" v:groupContext="shape" transform="translate(109.5,-120.879)">
			<title>Sheet.18</title>
			<path d="M0 182 L40.39 182" class="st4"/>
		</g>
		<g id="shape19-47" v:mID="19" v:groupContext="shape" transform="translate(507.75,-120.879)">
			<title>Sheet.19</title>
			<path d="M0 182 L40.39 182" class="st4"/>
		</g>
		<g id="shape20-52" v:mID="20" v:groupContext="shape" transform="translate(157.875,-33.1293)">
			<title>Sheet.20</title>
			<desc>Bandpass Filter</desc>
			<v:textBlock v:margins="rect(4,4,4,4)"/>
			<v:textRect cx="47.25" cy="164.004" width="94.5" height="36"/>
			<rect x="0" y="146.004" width="94.5" height="36" class="st6"/>
			<text x="12.51" y="158.6" class="st7" v:langID="1033"><v:paragraph v:horizAlign="1"/><v:tabList/>Bandpass<v:newlineChar/><tspan
						x="28.35" dy="1.2em" class="st8">Filter</tspan></text>		</g>
		<g id="shape22-56" v:mID="22" v:groupContext="shape" transform="translate(413.25,-33.1293)">
			<title>Sheet.22</title>
			<desc>Lowpass Filter</desc>
			<v:textBlock v:margins="rect(4,4,4,4)"/>
			<v:textRect cx="47.25" cy="164.004" width="94.5" height="36"/>
			<rect x="0" y="146.004" width="94.5" height="36" class="st6"/>
			<text x="16.21" y="158.6" class="st7" v:langID="1033"><v:paragraph v:horizAlign="1"/><v:tabList/>Lowpass<v:newlineChar/><tspan
						x="28.35" dy="1.2em" class="st8">Filter</tspan></text>		</g>
		<g id="shape23-60" v:mID="23" v:groupContext="shape" transform="translate(150.259,139.875) rotate(-90)">
			<title>Sheet.23</title>
			<path d="M0 182 L38.16 182" class="st4"/>
		</g>
		<g id="shape24-65" v:mID="24" v:groupContext="shape" transform="translate(278.25,-19.8793)">
			<title>Sheet.24</title>
			<desc>cos(2πfct)</desc>
			<v:textBlock v:margins="rect(4,4,4,4)"/>
			<v:textRect cx="54.3125" cy="172.004" width="108.63" height="20"/>
			<rect x="0" y="162.004" width="108.625" height="20" class="st6"/>
			<text x="19.18" y="177.4" class="st9" v:langID="1033"><v:paragraph v:horizAlign="1"/><v:tabList/>cos(2πf<tspan
						dy="-0.279em" class="st10" v:baseFontSize="18">c</tspan><tspan dy="0.181em" class="st8">t) </tspan> </text>		</g>
		<g id="shape29-70" v:mID="29" v:groupContext="shape" transform="translate(177.237,-116.254)">
			<title>Sheet.29</title>
			<path d="M4.74 182 L5.1 182 L50.68 182" class="st11"/>
		</g>
		<g id="shape30-79" v:mID="30" v:groupContext="shape" transform="translate(181.5,-95.0043)">
			<title>Sheet.30</title>
			<desc>fbw</desc>
			<v:textBlock v:margins="rect(4,4,4,4)"/>
			<v:textRect cx="24.5" cy="172.004" width="49.01" height="20"/>
			<rect x="0" y="162.004" width="49" height="20" class="st6"/>
			<text x="14.35" y="177.4" class="st9" v:langID="1033"><v:paragraph v:horizAlign="1"/><v:tabList/>f<tspan dy="-0.279em"
						class="st10" v:baseFontSize="18">bw</tspan></text>		</g>
		<g id="shape31-83" v:mID="31" v:groupContext="shape" transform="translate(387.411,45.7812) rotate(90)">
			<title>Sheet.31</title>
			<path d="M0 182 L6.19 182" class="st13"/>
		</g>
		<g id="shape32-86" v:mID="32" v:groupContext="shape" transform="translate(182,-136.504)">
			<title>Sheet.32</title>
			<desc>fc</desc>
			<v:textBlock v:margins="rect(4,4,4,4)"/>
			<v:textRect cx="24.5" cy="172.004" width="49.01" height="20"/>
			<rect x="0" y="162.004" width="49" height="20" class="st6"/>
			<text x="18.91" y="177.4" class="st9" v:langID="1033"><v:paragraph v:horizAlign="1"/><v:tabList/>f<tspan dy="-0.279em"
						class="st10" v:baseFontSize="18">c</tspan></text>		</g>
		<g id="shape33-90" v:mID="33" v:groupContext="shape" transform="translate(658.254,47.8269) rotate(90)">
			<title>Sheet.33</title>
			<path d="M0 182 L6.19 182" class="st13"/>
		</g>
		<g id="shape34-93" v:mID="34" v:groupContext="shape" transform="translate(452.875,-134.379)">
			<title>Sheet.34</title>
			<desc>fBB</desc>
			<v:textBlock v:margins="rect(4,4,4,4)"/>
			<v:textRect cx="24.5" cy="172.004" width="49.01" height="20"/>
			<rect x="0" y="162.004" width="49" height="20" class="st6"/>
			<text x="13.7" y="177.4" class="st9" v:langID="1033"><v:paragraph v:horizAlign="1"/><v:tabList/>f<tspan dy="-0.279em"
						class="st10" v:baseFontSize="18">BB</tspan></text>		</g>
		<g id="shape35-97" v:mID="35" v:groupContext="shape" transform="translate(26.25,-100.629)">
			<title>Sheet.35</title>
			<path d="M0 152.3 L5.93 179.25 L5.93 142.4 L10.89 172.1 L15.24 162.2 L18.15 143.5 L23.47 167.7 L26.13 142.4 L26.73 178.7
						 L31.75 155.88 L35.08 171 L40.52 146.25 L44.64 164.95 L44.64 132.5 L52.26 162.2 L57.58 138 L60.97 182 L67.5
						 152.3 L72.34 174.3 L78.75 145.15" class="st3"/>
		</g>
		<g id="shape37-100" v:mID="37" v:groupContext="shape" transform="translate(18.375,-33.1293)">
			<title>Sheet.37</title>
			<desc>Input Signal</desc>
			<v:textBlock v:margins="rect(4,4,4,4)"/>
			<v:textRect cx="47.25" cy="164.004" width="94.5" height="36"/>
			<rect x="0" y="146.004" width="94.5" height="36" class="st6"/>
			<text x="27.78" y="158.6" class="st7" v:langID="1033"><v:paragraph v:horizAlign="1"/><v:tabList/>Input<v:newlineChar/><tspan
						x="25.71" dy="1.2em" class="st8">Signal</tspan></text>		</g>
		<g id="group141-104" transform="translate(568.5,-96.1293)" v:mID="141" v:groupContext="group">
			<title>Sheet.141</title>
			<g id="group68-105" v:mID="68" v:groupContext="group">
				<title>Sheet.68</title>
				<g id="shape69-106" v:mID="69" v:groupContext="shape" transform="translate(0,-24.75)">
					<title>Sheet.69</title>
					<path d="M0 182 L0.2 180.2 L0.63 176.34 L1.14 172 L1.64 168.02 L2.09 164.79 L2.47 162.34 L2.81 160.53 L3.13 159.19
								 L3.43 158.18 L3.74 157.47 L4.08 157.25" class="st3"/>
				</g>
				<g id="shape70-109" v:mID="70" v:groupContext="shape" transform="translate(4.07813,-24.75)">
					<title>Sheet.70</title>
					<path d="M4.08 182 L3.88 180.2 L3.45 176.34 L2.94 172 L2.44 168.02 L1.99 164.79 L1.61 162.34 L1.27 160.53 L0.95
								 159.19 L0.65 158.18 L0.34 157.47 L0 157.25" class="st3"/>
				</g>
				<g id="shape71-112" v:mID="71" v:groupContext="shape" transform="translate(8.15625,2.84217E-14)">
					<title>Sheet.71</title>
					<path d="M0 157.25 L0.2 159.06 L0.63 162.92 L1.14 167.26 L1.64 171.23 L2.09 174.47 L2.47 176.92 L2.81 178.73
								 L3.13 180.07 L3.43 181.08 L3.74 181.79 L4.08 182" class="st3"/>
				</g>
				<g id="shape72-115" v:mID="72" v:groupContext="shape" transform="translate(12.2344,2.84217E-14)">
					<title>Sheet.72</title>
					<path d="M4.08 157.25 L3.88 159.06 L3.45 162.92 L2.94 167.26 L2.44 171.23 L1.99 174.47 L1.61 176.92 L1.27 178.73
								 L0.95 180.07 L0.65 181.08 L0.34 181.79 L0 182" class="st3"/>
				</g>
			</g>
			<g id="group121-118" transform="translate(16.3125,-2.27374E-13)" v:mID="121" v:groupContext="group">
				<title>Sheet.121</title>
				<g id="shape122-119" v:mID="122" v:groupContext="shape" transform="translate(0,-24.75)">
					<title>Sheet.122</title>
					<path d="M0 182 L0.2 180.2 L0.63 176.34 L1.14 172 L1.64 168.02 L2.09 164.79 L2.47 162.34 L2.81 160.53 L3.13 159.19
								 L3.43 158.18 L3.74 157.47 L4.08 157.25" class="st3"/>
				</g>
				<g id="shape123-122" v:mID="123" v:groupContext="shape" transform="translate(4.07813,-24.75)">
					<title>Sheet.123</title>
					<path d="M4.08 182 L3.88 180.2 L3.45 176.34 L2.94 172 L2.44 168.02 L1.99 164.79 L1.61 162.34 L1.27 160.53 L0.95
								 159.19 L0.65 158.18 L0.34 157.47 L0 157.25" class="st3"/>
				</g>
				<g id="shape124-125" v:mID="124" v:groupContext="shape" transform="translate(8.15625,2.84217E-14)">
					<title>Sheet.124</title>
					<path d="M0 157.25 L0.2 159.06 L0.63 162.92 L1.14 167.26 L1.64 171.23 L2.09 174.47 L2.47 176.92 L2.81 178.73
								 L3.13 180.07 L3.43 181.08 L3.74 181.79 L4.08 182" class="st3"/>
				</g>
				<g id="shape125-128" v:mID="125" v:groupContext="shape" transform="translate(12.2344,2.84217E-14)">
					<title>Sheet.125</title>
					<path d="M4.08 157.25 L3.88 159.06 L3.45 162.92 L2.94 167.26 L2.44 171.23 L1.99 174.47 L1.61 176.92 L1.27 178.73
								 L0.95 180.07 L0.65 181.08 L0.34 181.79 L0 182" class="st3"/>
				</g>
			</g>
			<g id="group126-131" transform="translate(32.625,-2.27374E-13)" v:mID="126" v:groupContext="group">
				<title>Sheet.126</title>
				<g id="shape127-132" v:mID="127" v:groupContext="shape" transform="translate(0,-24.75)">
					<title>Sheet.127</title>
					<path d="M0 182 L0.2 180.2 L0.63 176.34 L1.14 172 L1.64 168.02 L2.09 164.79 L2.47 162.34 L2.81 160.53 L3.13 159.19
								 L3.43 158.18 L3.74 157.47 L4.08 157.25" class="st3"/>
				</g>
				<g id="shape128-135" v:mID="128" v:groupContext="shape" transform="translate(4.07813,-24.75)">
					<title>Sheet.128</title>
					<path d="M4.08 182 L3.88 180.2 L3.45 176.34 L2.94 172 L2.44 168.02 L1.99 164.79 L1.61 162.34 L1.27 160.53 L0.95
								 159.19 L0.65 158.18 L0.34 157.47 L0 157.25" class="st3"/>
				</g>
				<g id="shape129-138" v:mID="129" v:groupContext="shape" transform="translate(8.15625,2.84217E-14)">
					<title>Sheet.129</title>
					<path d="M0 157.25 L0.2 159.06 L0.63 162.92 L1.14 167.26 L1.64 171.23 L2.09 174.47 L2.47 176.92 L2.81 178.73
								 L3.13 180.07 L3.43 181.08 L3.74 181.79 L4.08 182" class="st3"/>
				</g>
				<g id="shape130-141" v:mID="130" v:groupContext="shape" transform="translate(12.2344,2.84217E-14)">
					<title>Sheet.130</title>
					<path d="M4.08 157.25 L3.88 159.06 L3.45 162.92 L2.94 167.26 L2.44 171.23 L1.99 174.47 L1.61 176.92 L1.27 178.73
								 L0.95 180.07 L0.65 181.08 L0.34 181.79 L0 182" class="st3"/>
				</g>
			</g>
			<g id="group131-144" transform="translate(48.9375,-2.27374E-13)" v:mID="131" v:groupContext="group">
				<title>Sheet.131</title>
				<g id="shape132-145" v:mID="132" v:groupContext="shape" transform="translate(0,-24.75)">
					<title>Sheet.132</title>
					<path d="M0 182 L0.2 180.2 L0.63 176.34 L1.14 172 L1.64 168.02 L2.09 164.79 L2.47 162.34 L2.81 160.53 L3.13 159.19
								 L3.43 158.18 L3.74 157.47 L4.08 157.25" class="st3"/>
				</g>
				<g id="shape133-148" v:mID="133" v:groupContext="shape" transform="translate(4.07813,-24.75)">
					<title>Sheet.133</title>
					<path d="M4.08 182 L3.88 180.2 L3.45 176.34 L2.94 172 L2.44 168.02 L1.99 164.79 L1.61 162.34 L1.27 160.53 L0.95
								 159.19 L0.65 158.18 L0.34 157.47 L0 157.25" class="st3"/>
				</g>
				<g id="shape134-151" v:mID="134" v:groupContext="shape" transform="translate(8.15625,2.84217E-14)">
					<title>Sheet.134</title>
					<path d="M0 157.25 L0.2 159.06 L0.63 162.92 L1.14 167.26 L1.64 171.23 L2.09 174.47 L2.47 176.92 L2.81 178.73
								 L3.13 180.07 L3.43 181.08 L3.74 181.79 L4.08 182" class="st3"/>
				</g>
				<g id="shape135-154" v:mID="135" v:groupContext="shape" transform="translate(12.2344,2.84217E-14)">
					<title>Sheet.135</title>
					<path d="M4.08 157.25 L3.88 159.06 L3.45 162.92 L2.94 167.26 L2.44 171.23 L1.99 174.47 L1.61 176.92 L1.27 178.73
								 L0.95 180.07 L0.65 181.08 L0.34 181.79 L0 182" class="st3"/>
				</g>
			</g>
		</g>
		<g id="shape142-157" v:mID="142" v:groupContext="shape" transform="translate(553.875,-33.1293)">
			<title>Sheet.142</title>
			<desc>Output Signal</desc>
			<v:textBlock v:margins="rect(4,4,4,4)"/>
			<v:textRect cx="47.25" cy="164.004" width="94.5" height="36"/>
			<rect x="0" y="146.004" width="94.5" height="36" class="st6"/>
			<text x="21.08" y="158.6" class="st7" v:langID="1033"><v:paragraph v:horizAlign="1"/><v:tabList/>Output<v:newlineChar/><tspan
						x="25.71" dy="1.2em" class="st8">Signal</tspan></text>		</g>
	</g>
</svg>
