<?xml version="1.0" encoding="utf-8" standalone="no"?>
<!DOCTYPE svg PUBLIC "-//W3C//DTD SVG 1.1//EN"
  "http://www.w3.org/Graphics/SVG/1.1/DTD/svg11.dtd">
<!-- Created with matplotlib (https://matplotlib.org/) -->
<svg height="266.661094pt" version="1.1" viewBox="0 0 412.209609 266.661094" width="412.209609pt" xmlns="http://www.w3.org/2000/svg" xmlns:xlink="http://www.w3.org/1999/xlink">
 <defs>
  <style type="text/css">
*{stroke-linecap:butt;stroke-linejoin:round;}
  </style>
 </defs>
 <g id="figure_1">
  <g id="patch_1">
   <path d="M 0 266.661094 
L 412.209609 266.661094 
L 412.209609 0 
L 0 0 
z
" style="fill:#ffffff;"/>
  </g>
  <g id="axes_1">
   <g id="patch_2">
    <path d="M 59.506094 224.64 
L 394.306094 224.64 
L 394.306094 7.2 
L 59.506094 7.2 
z
" style="fill:#eaeaf2;"/>
   </g>
   <g id="matplotlib.axis_1">
    <g id="xtick_1">
     <g id="line2d_1">
      <path clip-path="url(#pd929230ac6)" d="M 59.506094 224.64 
L 59.506094 7.2 
" style="fill:none;stroke:#ffffff;stroke-linecap:round;"/>
     </g>
     <g id="text_1">
      <!-- 0.00 -->
      <defs>
       <path d="M 4.15625 35.296875 
Q 4.15625 48 6.765625 55.734375 
Q 9.375 63.484375 14.515625 67.671875 
Q 19.671875 71.875 27.484375 71.875 
Q 33.25 71.875 37.59375 69.546875 
Q 41.9375 67.234375 44.765625 62.859375 
Q 47.609375 58.5 49.21875 52.21875 
Q 50.828125 45.953125 50.828125 35.296875 
Q 50.828125 22.703125 48.234375 14.96875 
Q 45.65625 7.234375 40.5 3 
Q 35.359375 -1.21875 27.484375 -1.21875 
Q 17.140625 -1.21875 11.234375 6.203125 
Q 4.15625 15.140625 4.15625 35.296875 
z
M 13.1875 35.296875 
Q 13.1875 17.671875 17.3125 11.828125 
Q 21.4375 6 27.484375 6 
Q 33.546875 6 37.671875 11.859375 
Q 41.796875 17.71875 41.796875 35.296875 
Q 41.796875 52.984375 37.671875 58.78125 
Q 33.546875 64.59375 27.390625 64.59375 
Q 21.34375 64.59375 17.71875 59.46875 
Q 13.1875 52.9375 13.1875 35.296875 
z
" id="ArialMT-48"/>
       <path d="M 9.078125 0 
L 9.078125 10.015625 
L 19.09375 10.015625 
L 19.09375 0 
z
" id="ArialMT-46"/>
      </defs>
      <g style="fill:#262626;" transform="translate(48.802578 242.013594)scale(0.11 -0.11)">
       <use xlink:href="#ArialMT-48"/>
       <use x="55.615234" xlink:href="#ArialMT-46"/>
       <use x="83.398438" xlink:href="#ArialMT-48"/>
       <use x="139.013672" xlink:href="#ArialMT-48"/>
      </g>
     </g>
    </g>
    <g id="xtick_2">
     <g id="line2d_2">
      <path clip-path="url(#pd929230ac6)" d="M 126.466094 224.64 
L 126.466094 7.2 
" style="fill:none;stroke:#ffffff;stroke-linecap:round;"/>
     </g>
     <g id="text_2">
      <!-- 0.02 -->
      <defs>
       <path d="M 50.34375 8.453125 
L 50.34375 0 
L 3.03125 0 
Q 2.9375 3.171875 4.046875 6.109375 
Q 5.859375 10.9375 9.828125 15.625 
Q 13.8125 20.3125 21.34375 26.46875 
Q 33.015625 36.03125 37.109375 41.625 
Q 41.21875 47.21875 41.21875 52.203125 
Q 41.21875 57.421875 37.46875 61 
Q 33.734375 64.59375 27.734375 64.59375 
Q 21.390625 64.59375 17.578125 60.78125 
Q 13.765625 56.984375 13.71875 50.25 
L 4.6875 51.171875 
Q 5.609375 61.28125 11.65625 66.578125 
Q 17.71875 71.875 27.9375 71.875 
Q 38.234375 71.875 44.234375 66.15625 
Q 50.25 60.453125 50.25 52 
Q 50.25 47.703125 48.484375 43.546875 
Q 46.734375 39.40625 42.65625 34.8125 
Q 38.578125 30.21875 29.109375 22.21875 
Q 21.1875 15.578125 18.9375 13.203125 
Q 16.703125 10.84375 15.234375 8.453125 
z
" id="ArialMT-50"/>
      </defs>
      <g style="fill:#262626;" transform="translate(115.762578 242.013594)scale(0.11 -0.11)">
       <use xlink:href="#ArialMT-48"/>
       <use x="55.615234" xlink:href="#ArialMT-46"/>
       <use x="83.398438" xlink:href="#ArialMT-48"/>
       <use x="139.013672" xlink:href="#ArialMT-50"/>
      </g>
     </g>
    </g>
    <g id="xtick_3">
     <g id="line2d_3">
      <path clip-path="url(#pd929230ac6)" d="M 193.426094 224.64 
L 193.426094 7.2 
" style="fill:none;stroke:#ffffff;stroke-linecap:round;"/>
     </g>
     <g id="text_3">
      <!-- 0.04 -->
      <defs>
       <path d="M 32.328125 0 
L 32.328125 17.140625 
L 1.265625 17.140625 
L 1.265625 25.203125 
L 33.9375 71.578125 
L 41.109375 71.578125 
L 41.109375 25.203125 
L 50.78125 25.203125 
L 50.78125 17.140625 
L 41.109375 17.140625 
L 41.109375 0 
z
M 32.328125 25.203125 
L 32.328125 57.46875 
L 9.90625 25.203125 
z
" id="ArialMT-52"/>
      </defs>
      <g style="fill:#262626;" transform="translate(182.722578 242.013594)scale(0.11 -0.11)">
       <use xlink:href="#ArialMT-48"/>
       <use x="55.615234" xlink:href="#ArialMT-46"/>
       <use x="83.398438" xlink:href="#ArialMT-48"/>
       <use x="139.013672" xlink:href="#ArialMT-52"/>
      </g>
     </g>
    </g>
    <g id="xtick_4">
     <g id="line2d_4">
      <path clip-path="url(#pd929230ac6)" d="M 260.386094 224.64 
L 260.386094 7.2 
" style="fill:none;stroke:#ffffff;stroke-linecap:round;"/>
     </g>
     <g id="text_4">
      <!-- 0.06 -->
      <defs>
       <path d="M 49.75 54.046875 
L 41.015625 53.375 
Q 39.84375 58.546875 37.703125 60.890625 
Q 34.125 64.65625 28.90625 64.65625 
Q 24.703125 64.65625 21.53125 62.3125 
Q 17.390625 59.28125 14.984375 53.46875 
Q 12.59375 47.65625 12.5 36.921875 
Q 15.671875 41.75 20.265625 44.09375 
Q 24.859375 46.4375 29.890625 46.4375 
Q 38.671875 46.4375 44.84375 39.96875 
Q 51.03125 33.5 51.03125 23.25 
Q 51.03125 16.5 48.125 10.71875 
Q 45.21875 4.9375 40.140625 1.859375 
Q 35.0625 -1.21875 28.609375 -1.21875 
Q 17.625 -1.21875 10.6875 6.859375 
Q 3.765625 14.9375 3.765625 33.5 
Q 3.765625 54.25 11.421875 63.671875 
Q 18.109375 71.875 29.4375 71.875 
Q 37.890625 71.875 43.28125 67.140625 
Q 48.6875 62.40625 49.75 54.046875 
z
M 13.875 23.1875 
Q 13.875 18.65625 15.796875 14.5 
Q 17.71875 10.359375 21.1875 8.171875 
Q 24.65625 6 28.46875 6 
Q 34.03125 6 38.03125 10.484375 
Q 42.046875 14.984375 42.046875 22.703125 
Q 42.046875 30.125 38.078125 34.390625 
Q 34.125 38.671875 28.125 38.671875 
Q 22.171875 38.671875 18.015625 34.390625 
Q 13.875 30.125 13.875 23.1875 
z
" id="ArialMT-54"/>
      </defs>
      <g style="fill:#262626;" transform="translate(249.682578 242.013594)scale(0.11 -0.11)">
       <use xlink:href="#ArialMT-48"/>
       <use x="55.615234" xlink:href="#ArialMT-46"/>
       <use x="83.398438" xlink:href="#ArialMT-48"/>
       <use x="139.013672" xlink:href="#ArialMT-54"/>
      </g>
     </g>
    </g>
    <g id="xtick_5">
     <g id="line2d_5">
      <path clip-path="url(#pd929230ac6)" d="M 327.346094 224.64 
L 327.346094 7.2 
" style="fill:none;stroke:#ffffff;stroke-linecap:round;"/>
     </g>
     <g id="text_5">
      <!-- 0.08 -->
      <defs>
       <path d="M 17.671875 38.8125 
Q 12.203125 40.828125 9.5625 44.53125 
Q 6.9375 48.25 6.9375 53.421875 
Q 6.9375 61.234375 12.546875 66.546875 
Q 18.171875 71.875 27.484375 71.875 
Q 36.859375 71.875 42.578125 66.421875 
Q 48.296875 60.984375 48.296875 53.171875 
Q 48.296875 48.1875 45.671875 44.5 
Q 43.0625 40.828125 37.75 38.8125 
Q 44.34375 36.671875 47.78125 31.875 
Q 51.21875 27.09375 51.21875 20.453125 
Q 51.21875 11.28125 44.71875 5.03125 
Q 38.234375 -1.21875 27.640625 -1.21875 
Q 17.046875 -1.21875 10.546875 5.046875 
Q 4.046875 11.328125 4.046875 20.703125 
Q 4.046875 27.6875 7.59375 32.390625 
Q 11.140625 37.109375 17.671875 38.8125 
z
M 15.921875 53.71875 
Q 15.921875 48.640625 19.1875 45.40625 
Q 22.46875 42.1875 27.6875 42.1875 
Q 32.765625 42.1875 36.015625 45.375 
Q 39.265625 48.578125 39.265625 53.21875 
Q 39.265625 58.0625 35.90625 61.359375 
Q 32.5625 64.65625 27.59375 64.65625 
Q 22.5625 64.65625 19.234375 61.421875 
Q 15.921875 58.203125 15.921875 53.71875 
z
M 13.09375 20.65625 
Q 13.09375 16.890625 14.875 13.375 
Q 16.65625 9.859375 20.171875 7.921875 
Q 23.6875 6 27.734375 6 
Q 34.03125 6 38.125 10.046875 
Q 42.234375 14.109375 42.234375 20.359375 
Q 42.234375 26.703125 38.015625 30.859375 
Q 33.796875 35.015625 27.4375 35.015625 
Q 21.234375 35.015625 17.15625 30.90625 
Q 13.09375 26.8125 13.09375 20.65625 
z
" id="ArialMT-56"/>
      </defs>
      <g style="fill:#262626;" transform="translate(316.642578 242.013594)scale(0.11 -0.11)">
       <use xlink:href="#ArialMT-48"/>
       <use x="55.615234" xlink:href="#ArialMT-46"/>
       <use x="83.398438" xlink:href="#ArialMT-48"/>
       <use x="139.013672" xlink:href="#ArialMT-56"/>
      </g>
     </g>
    </g>
    <g id="xtick_6">
     <g id="line2d_6">
      <path clip-path="url(#pd929230ac6)" d="M 394.306094 224.64 
L 394.306094 7.2 
" style="fill:none;stroke:#ffffff;stroke-linecap:round;"/>
     </g>
     <g id="text_6">
      <!-- 0.10 -->
      <defs>
       <path d="M 37.25 0 
L 28.46875 0 
L 28.46875 56 
Q 25.296875 52.984375 20.140625 49.953125 
Q 14.984375 46.921875 10.890625 45.40625 
L 10.890625 53.90625 
Q 18.265625 57.375 23.78125 62.296875 
Q 29.296875 67.234375 31.59375 71.875 
L 37.25 71.875 
z
" id="ArialMT-49"/>
      </defs>
      <g style="fill:#262626;" transform="translate(383.602578 242.013594)scale(0.11 -0.11)">
       <use xlink:href="#ArialMT-48"/>
       <use x="55.615234" xlink:href="#ArialMT-46"/>
       <use x="83.398438" xlink:href="#ArialMT-49"/>
       <use x="139.013672" xlink:href="#ArialMT-48"/>
      </g>
     </g>
    </g>
    <g id="text_7">
     <!-- Time (s) -->
     <defs>
      <path d="M 25.921875 0 
L 25.921875 63.140625 
L 2.34375 63.140625 
L 2.34375 71.578125 
L 59.078125 71.578125 
L 59.078125 63.140625 
L 35.40625 63.140625 
L 35.40625 0 
z
" id="ArialMT-84"/>
      <path d="M 6.640625 61.46875 
L 6.640625 71.578125 
L 15.4375 71.578125 
L 15.4375 61.46875 
z
M 6.640625 0 
L 6.640625 51.859375 
L 15.4375 51.859375 
L 15.4375 0 
z
" id="ArialMT-105"/>
      <path d="M 6.59375 0 
L 6.59375 51.859375 
L 14.453125 51.859375 
L 14.453125 44.578125 
Q 16.890625 48.390625 20.9375 50.703125 
Q 25 53.03125 30.171875 53.03125 
Q 35.9375 53.03125 39.625 50.640625 
Q 43.3125 48.25 44.828125 43.953125 
Q 50.984375 53.03125 60.84375 53.03125 
Q 68.5625 53.03125 72.703125 48.75 
Q 76.859375 44.484375 76.859375 35.59375 
L 76.859375 0 
L 68.109375 0 
L 68.109375 32.671875 
Q 68.109375 37.9375 67.25 40.25 
Q 66.40625 42.578125 64.15625 43.984375 
Q 61.921875 45.40625 58.890625 45.40625 
Q 53.421875 45.40625 49.796875 41.765625 
Q 46.1875 38.140625 46.1875 30.125 
L 46.1875 0 
L 37.40625 0 
L 37.40625 33.6875 
Q 37.40625 39.546875 35.25 42.46875 
Q 33.109375 45.40625 28.21875 45.40625 
Q 24.515625 45.40625 21.359375 43.453125 
Q 18.21875 41.5 16.796875 37.734375 
Q 15.375 33.984375 15.375 26.90625 
L 15.375 0 
z
" id="ArialMT-109"/>
      <path d="M 42.09375 16.703125 
L 51.171875 15.578125 
Q 49.03125 7.625 43.21875 3.21875 
Q 37.40625 -1.171875 28.375 -1.171875 
Q 17 -1.171875 10.328125 5.828125 
Q 3.65625 12.84375 3.65625 25.484375 
Q 3.65625 38.578125 10.390625 45.796875 
Q 17.140625 53.03125 27.875 53.03125 
Q 38.28125 53.03125 44.875 45.953125 
Q 51.46875 38.875 51.46875 26.03125 
Q 51.46875 25.25 51.421875 23.6875 
L 12.75 23.6875 
Q 13.234375 15.140625 17.578125 10.59375 
Q 21.921875 6.0625 28.421875 6.0625 
Q 33.25 6.0625 36.671875 8.59375 
Q 40.09375 11.140625 42.09375 16.703125 
z
M 13.234375 30.90625 
L 42.1875 30.90625 
Q 41.609375 37.453125 38.875 40.71875 
Q 34.671875 45.796875 27.984375 45.796875 
Q 21.921875 45.796875 17.796875 41.75 
Q 13.671875 37.703125 13.234375 30.90625 
z
" id="ArialMT-101"/>
      <path id="ArialMT-32"/>
      <path d="M 23.390625 -21.046875 
Q 16.109375 -11.859375 11.078125 0.4375 
Q 6.0625 12.75 6.0625 25.921875 
Q 6.0625 37.546875 9.8125 48.1875 
Q 14.203125 60.546875 23.390625 72.796875 
L 29.6875 72.796875 
Q 23.78125 62.640625 21.875 58.296875 
Q 18.890625 51.5625 17.1875 44.234375 
Q 15.09375 35.109375 15.09375 25.875 
Q 15.09375 2.390625 29.6875 -21.046875 
z
" id="ArialMT-40"/>
      <path d="M 3.078125 15.484375 
L 11.765625 16.84375 
Q 12.5 11.625 15.84375 8.84375 
Q 19.1875 6.0625 25.203125 6.0625 
Q 31.25 6.0625 34.171875 8.515625 
Q 37.109375 10.984375 37.109375 14.3125 
Q 37.109375 17.28125 34.515625 19 
Q 32.71875 20.171875 25.53125 21.96875 
Q 15.875 24.421875 12.140625 26.203125 
Q 8.40625 27.984375 6.46875 31.125 
Q 4.546875 34.28125 4.546875 38.09375 
Q 4.546875 41.546875 6.125 44.5 
Q 7.71875 47.46875 10.453125 49.421875 
Q 12.5 50.921875 16.03125 51.96875 
Q 19.578125 53.03125 23.640625 53.03125 
Q 29.734375 53.03125 34.34375 51.265625 
Q 38.96875 49.515625 41.15625 46.5 
Q 43.359375 43.5 44.1875 38.484375 
L 35.59375 37.3125 
Q 35.015625 41.3125 32.203125 43.546875 
Q 29.390625 45.796875 24.265625 45.796875 
Q 18.21875 45.796875 15.625 43.796875 
Q 13.03125 41.796875 13.03125 39.109375 
Q 13.03125 37.40625 14.109375 36.03125 
Q 15.1875 34.625 17.484375 33.6875 
Q 18.796875 33.203125 25.25 31.453125 
Q 34.578125 28.953125 38.25 27.359375 
Q 41.9375 25.78125 44.03125 22.75 
Q 46.140625 19.734375 46.140625 15.234375 
Q 46.140625 10.84375 43.578125 6.953125 
Q 41.015625 3.078125 36.171875 0.953125 
Q 31.34375 -1.171875 25.25 -1.171875 
Q 15.140625 -1.171875 9.84375 3.03125 
Q 4.546875 7.234375 3.078125 15.484375 
z
" id="ArialMT-115"/>
      <path d="M 12.359375 -21.046875 
L 6.0625 -21.046875 
Q 20.65625 2.390625 20.65625 25.875 
Q 20.65625 35.0625 18.5625 44.09375 
Q 16.890625 51.421875 13.921875 58.15625 
Q 12.015625 62.546875 6.0625 72.796875 
L 12.359375 72.796875 
Q 21.53125 60.546875 25.921875 48.1875 
Q 29.6875 37.546875 29.6875 25.921875 
Q 29.6875 12.75 24.625 0.4375 
Q 19.578125 -11.859375 12.359375 -21.046875 
z
" id="ArialMT-41"/>
     </defs>
     <g style="fill:#262626;" transform="translate(205.136406 256.935469)scale(0.12 -0.12)">
      <use xlink:href="#ArialMT-84"/>
      <use x="57.333984" xlink:href="#ArialMT-105"/>
      <use x="79.550781" xlink:href="#ArialMT-109"/>
      <use x="162.851562" xlink:href="#ArialMT-101"/>
      <use x="218.466797" xlink:href="#ArialMT-32"/>
      <use x="246.25" xlink:href="#ArialMT-40"/>
      <use x="279.550781" xlink:href="#ArialMT-115"/>
      <use x="329.550781" xlink:href="#ArialMT-41"/>
     </g>
    </g>
   </g>
   <g id="matplotlib.axis_2">
    <g id="ytick_1">
     <g id="line2d_7">
      <path clip-path="url(#pd929230ac6)" d="M 59.506094 214.756364 
L 394.306094 214.756364 
" style="fill:none;stroke:#ffffff;stroke-linecap:round;"/>
     </g>
     <g id="text_8">
      <!-- −1.00 -->
      <defs>
       <path d="M 52.828125 31.203125 
L 5.5625 31.203125 
L 5.5625 39.40625 
L 52.828125 39.40625 
z
" id="ArialMT-8722"/>
      </defs>
      <g style="fill:#262626;" transform="translate(22.174375 218.693161)scale(0.11 -0.11)">
       <use xlink:href="#ArialMT-8722"/>
       <use x="58.398438" xlink:href="#ArialMT-49"/>
       <use x="114.013672" xlink:href="#ArialMT-46"/>
       <use x="141.796875" xlink:href="#ArialMT-48"/>
       <use x="197.412109" xlink:href="#ArialMT-48"/>
      </g>
     </g>
    </g>
    <g id="ytick_2">
     <g id="line2d_8">
      <path clip-path="url(#pd929230ac6)" d="M 59.506094 190.047273 
L 394.306094 190.047273 
" style="fill:none;stroke:#ffffff;stroke-linecap:round;"/>
     </g>
     <g id="text_9">
      <!-- −0.75 -->
      <defs>
       <path d="M 4.734375 62.203125 
L 4.734375 70.65625 
L 51.078125 70.65625 
L 51.078125 63.8125 
Q 44.234375 56.546875 37.515625 44.484375 
Q 30.8125 32.421875 27.15625 19.671875 
Q 24.515625 10.6875 23.78125 0 
L 14.75 0 
Q 14.890625 8.453125 18.0625 20.40625 
Q 21.234375 32.375 27.171875 43.484375 
Q 33.109375 54.59375 39.796875 62.203125 
z
" id="ArialMT-55"/>
       <path d="M 4.15625 18.75 
L 13.375 19.53125 
Q 14.40625 12.796875 18.140625 9.390625 
Q 21.875 6 27.15625 6 
Q 33.5 6 37.890625 10.78125 
Q 42.28125 15.578125 42.28125 23.484375 
Q 42.28125 31 38.0625 35.34375 
Q 33.84375 39.703125 27 39.703125 
Q 22.75 39.703125 19.328125 37.765625 
Q 15.921875 35.84375 13.96875 32.765625 
L 5.71875 33.84375 
L 12.640625 70.609375 
L 48.25 70.609375 
L 48.25 62.203125 
L 19.671875 62.203125 
L 15.828125 42.96875 
Q 22.265625 47.46875 29.34375 47.46875 
Q 38.71875 47.46875 45.15625 40.96875 
Q 51.609375 34.46875 51.609375 24.265625 
Q 51.609375 14.546875 45.953125 7.46875 
Q 39.0625 -1.21875 27.15625 -1.21875 
Q 17.390625 -1.21875 11.203125 4.25 
Q 5.03125 9.71875 4.15625 18.75 
z
" id="ArialMT-53"/>
      </defs>
      <g style="fill:#262626;" transform="translate(22.174375 193.98407)scale(0.11 -0.11)">
       <use xlink:href="#ArialMT-8722"/>
       <use x="58.398438" xlink:href="#ArialMT-48"/>
       <use x="114.013672" xlink:href="#ArialMT-46"/>
       <use x="141.796875" xlink:href="#ArialMT-55"/>
       <use x="197.412109" xlink:href="#ArialMT-53"/>
      </g>
     </g>
    </g>
    <g id="ytick_3">
     <g id="line2d_9">
      <path clip-path="url(#pd929230ac6)" d="M 59.506094 165.338182 
L 394.306094 165.338182 
" style="fill:none;stroke:#ffffff;stroke-linecap:round;"/>
     </g>
     <g id="text_10">
      <!-- −0.50 -->
      <g style="fill:#262626;" transform="translate(22.174375 169.274979)scale(0.11 -0.11)">
       <use xlink:href="#ArialMT-8722"/>
       <use x="58.398438" xlink:href="#ArialMT-48"/>
       <use x="114.013672" xlink:href="#ArialMT-46"/>
       <use x="141.796875" xlink:href="#ArialMT-53"/>
       <use x="197.412109" xlink:href="#ArialMT-48"/>
      </g>
     </g>
    </g>
    <g id="ytick_4">
     <g id="line2d_10">
      <path clip-path="url(#pd929230ac6)" d="M 59.506094 140.629091 
L 394.306094 140.629091 
" style="fill:none;stroke:#ffffff;stroke-linecap:round;"/>
     </g>
     <g id="text_11">
      <!-- −0.25 -->
      <g style="fill:#262626;" transform="translate(22.174375 144.565888)scale(0.11 -0.11)">
       <use xlink:href="#ArialMT-8722"/>
       <use x="58.398438" xlink:href="#ArialMT-48"/>
       <use x="114.013672" xlink:href="#ArialMT-46"/>
       <use x="141.796875" xlink:href="#ArialMT-50"/>
       <use x="197.412109" xlink:href="#ArialMT-53"/>
      </g>
     </g>
    </g>
    <g id="ytick_5">
     <g id="line2d_11">
      <path clip-path="url(#pd929230ac6)" d="M 59.506094 115.92 
L 394.306094 115.92 
" style="fill:none;stroke:#ffffff;stroke-linecap:round;"/>
     </g>
     <g id="text_12">
      <!-- 0.00 -->
      <g style="fill:#262626;" transform="translate(28.599063 119.856797)scale(0.11 -0.11)">
       <use xlink:href="#ArialMT-48"/>
       <use x="55.615234" xlink:href="#ArialMT-46"/>
       <use x="83.398438" xlink:href="#ArialMT-48"/>
       <use x="139.013672" xlink:href="#ArialMT-48"/>
      </g>
     </g>
    </g>
    <g id="ytick_6">
     <g id="line2d_12">
      <path clip-path="url(#pd929230ac6)" d="M 59.506094 91.210909 
L 394.306094 91.210909 
" style="fill:none;stroke:#ffffff;stroke-linecap:round;"/>
     </g>
     <g id="text_13">
      <!-- 0.25 -->
      <g style="fill:#262626;" transform="translate(28.599063 95.147706)scale(0.11 -0.11)">
       <use xlink:href="#ArialMT-48"/>
       <use x="55.615234" xlink:href="#ArialMT-46"/>
       <use x="83.398438" xlink:href="#ArialMT-50"/>
       <use x="139.013672" xlink:href="#ArialMT-53"/>
      </g>
     </g>
    </g>
    <g id="ytick_7">
     <g id="line2d_13">
      <path clip-path="url(#pd929230ac6)" d="M 59.506094 66.501818 
L 394.306094 66.501818 
" style="fill:none;stroke:#ffffff;stroke-linecap:round;"/>
     </g>
     <g id="text_14">
      <!-- 0.50 -->
      <g style="fill:#262626;" transform="translate(28.599063 70.438615)scale(0.11 -0.11)">
       <use xlink:href="#ArialMT-48"/>
       <use x="55.615234" xlink:href="#ArialMT-46"/>
       <use x="83.398438" xlink:href="#ArialMT-53"/>
       <use x="139.013672" xlink:href="#ArialMT-48"/>
      </g>
     </g>
    </g>
    <g id="ytick_8">
     <g id="line2d_14">
      <path clip-path="url(#pd929230ac6)" d="M 59.506094 41.792727 
L 394.306094 41.792727 
" style="fill:none;stroke:#ffffff;stroke-linecap:round;"/>
     </g>
     <g id="text_15">
      <!-- 0.75 -->
      <g style="fill:#262626;" transform="translate(28.599063 45.729524)scale(0.11 -0.11)">
       <use xlink:href="#ArialMT-48"/>
       <use x="55.615234" xlink:href="#ArialMT-46"/>
       <use x="83.398438" xlink:href="#ArialMT-55"/>
       <use x="139.013672" xlink:href="#ArialMT-53"/>
      </g>
     </g>
    </g>
    <g id="ytick_9">
     <g id="line2d_15">
      <path clip-path="url(#pd929230ac6)" d="M 59.506094 17.083636 
L 394.306094 17.083636 
" style="fill:none;stroke:#ffffff;stroke-linecap:round;"/>
     </g>
     <g id="text_16">
      <!-- 1.00 -->
      <g style="fill:#262626;" transform="translate(28.599063 21.020433)scale(0.11 -0.11)">
       <use xlink:href="#ArialMT-49"/>
       <use x="55.615234" xlink:href="#ArialMT-46"/>
       <use x="83.398438" xlink:href="#ArialMT-48"/>
       <use x="139.013672" xlink:href="#ArialMT-48"/>
      </g>
     </g>
    </g>
    <g id="text_17">
     <!-- Amplitude -->
     <defs>
      <path d="M -0.140625 0 
L 27.34375 71.578125 
L 37.546875 71.578125 
L 66.84375 0 
L 56.0625 0 
L 47.703125 21.6875 
L 17.78125 21.6875 
L 9.90625 0 
z
M 20.515625 29.390625 
L 44.78125 29.390625 
L 37.3125 49.21875 
Q 33.890625 58.25 32.234375 64.0625 
Q 30.859375 57.171875 28.375 50.390625 
z
" id="ArialMT-65"/>
      <path d="M 6.59375 -19.875 
L 6.59375 51.859375 
L 14.59375 51.859375 
L 14.59375 45.125 
Q 17.4375 49.078125 21 51.046875 
Q 24.5625 53.03125 29.640625 53.03125 
Q 36.28125 53.03125 41.359375 49.609375 
Q 46.4375 46.1875 49.015625 39.953125 
Q 51.609375 33.734375 51.609375 26.3125 
Q 51.609375 18.359375 48.75 11.984375 
Q 45.90625 5.609375 40.453125 2.21875 
Q 35.015625 -1.171875 29 -1.171875 
Q 24.609375 -1.171875 21.109375 0.6875 
Q 17.625 2.546875 15.375 5.375 
L 15.375 -19.875 
z
M 14.546875 25.640625 
Q 14.546875 15.625 18.59375 10.84375 
Q 22.65625 6.0625 28.421875 6.0625 
Q 34.28125 6.0625 38.453125 11.015625 
Q 42.625 15.96875 42.625 26.375 
Q 42.625 36.28125 38.546875 41.203125 
Q 34.46875 46.140625 28.8125 46.140625 
Q 23.1875 46.140625 18.859375 40.890625 
Q 14.546875 35.640625 14.546875 25.640625 
z
" id="ArialMT-112"/>
      <path d="M 6.390625 0 
L 6.390625 71.578125 
L 15.1875 71.578125 
L 15.1875 0 
z
" id="ArialMT-108"/>
      <path d="M 25.78125 7.859375 
L 27.046875 0.09375 
Q 23.34375 -0.6875 20.40625 -0.6875 
Q 15.625 -0.6875 12.984375 0.828125 
Q 10.359375 2.34375 9.28125 4.8125 
Q 8.203125 7.28125 8.203125 15.1875 
L 8.203125 45.015625 
L 1.765625 45.015625 
L 1.765625 51.859375 
L 8.203125 51.859375 
L 8.203125 64.703125 
L 16.9375 69.96875 
L 16.9375 51.859375 
L 25.78125 51.859375 
L 25.78125 45.015625 
L 16.9375 45.015625 
L 16.9375 14.703125 
Q 16.9375 10.9375 17.40625 9.859375 
Q 17.875 8.796875 18.921875 8.15625 
Q 19.96875 7.515625 21.921875 7.515625 
Q 23.390625 7.515625 25.78125 7.859375 
z
" id="ArialMT-116"/>
      <path d="M 40.578125 0 
L 40.578125 7.625 
Q 34.515625 -1.171875 24.125 -1.171875 
Q 19.53125 -1.171875 15.546875 0.578125 
Q 11.578125 2.34375 9.640625 5 
Q 7.71875 7.671875 6.9375 11.53125 
Q 6.390625 14.109375 6.390625 19.734375 
L 6.390625 51.859375 
L 15.1875 51.859375 
L 15.1875 23.09375 
Q 15.1875 16.21875 15.71875 13.8125 
Q 16.546875 10.359375 19.234375 8.375 
Q 21.921875 6.390625 25.875 6.390625 
Q 29.828125 6.390625 33.296875 8.421875 
Q 36.765625 10.453125 38.203125 13.9375 
Q 39.65625 17.4375 39.65625 24.078125 
L 39.65625 51.859375 
L 48.4375 51.859375 
L 48.4375 0 
z
" id="ArialMT-117"/>
      <path d="M 40.234375 0 
L 40.234375 6.546875 
Q 35.296875 -1.171875 25.734375 -1.171875 
Q 19.53125 -1.171875 14.328125 2.25 
Q 9.125 5.671875 6.265625 11.796875 
Q 3.421875 17.921875 3.421875 25.875 
Q 3.421875 33.640625 6 39.96875 
Q 8.59375 46.296875 13.765625 49.65625 
Q 18.953125 53.03125 25.34375 53.03125 
Q 30.03125 53.03125 33.6875 51.046875 
Q 37.359375 49.078125 39.65625 45.90625 
L 39.65625 71.578125 
L 48.390625 71.578125 
L 48.390625 0 
z
M 12.453125 25.875 
Q 12.453125 15.921875 16.640625 10.984375 
Q 20.84375 6.0625 26.5625 6.0625 
Q 32.328125 6.0625 36.34375 10.765625 
Q 40.375 15.484375 40.375 25.140625 
Q 40.375 35.796875 36.265625 40.765625 
Q 32.171875 45.75 26.171875 45.75 
Q 20.3125 45.75 16.375 40.96875 
Q 12.453125 36.1875 12.453125 25.875 
z
" id="ArialMT-100"/>
     </defs>
     <g style="fill:#262626;" transform="translate(15.789375 142.599375)rotate(-90)scale(0.12 -0.12)">
      <use xlink:href="#ArialMT-65"/>
      <use x="66.699219" xlink:href="#ArialMT-109"/>
      <use x="150" xlink:href="#ArialMT-112"/>
      <use x="205.615234" xlink:href="#ArialMT-108"/>
      <use x="227.832031" xlink:href="#ArialMT-105"/>
      <use x="250.048828" xlink:href="#ArialMT-116"/>
      <use x="277.832031" xlink:href="#ArialMT-117"/>
      <use x="333.447266" xlink:href="#ArialMT-100"/>
      <use x="389.0625" xlink:href="#ArialMT-101"/>
     </g>
    </g>
   </g>
   <g id="line2d_16">
    <path clip-path="url(#pd929230ac6)" d="M 59.506094 17.083636 
L 59.715344 17.815101 
L 59.924594 19.998669 
L 60.343094 28.571819 
L 60.761594 42.29738 
L 61.389344 70.703751 
L 63.900344 198.314432 
L 64.318844 209.043991 
L 64.737344 214.28044 
L 64.946594 214.72893 
L 65.155844 213.714896 
L 65.365094 211.253348 
L 65.783594 202.154333 
L 66.411344 179.219242 
L 67.248344 136.342669 
L 68.922344 47.417765 
L 69.550094 26.490184 
L 69.968594 18.982749 
L 70.177844 17.358623 
L 70.387094 17.193357 
L 70.596344 18.489397 
L 71.014844 25.367314 
L 71.433344 37.586667 
L 72.061094 64.278142 
L 73.107344 121.738576 
L 74.153594 177.108995 
L 74.781344 200.794383 
L 75.199844 210.500503 
L 75.618344 214.627598 
L 75.827594 214.509549 
L 76.036844 212.932223 
L 76.455344 205.514383 
L 76.873844 192.811634 
L 77.501594 165.562099 
L 78.757094 95.877241 
L 79.594094 52.919331 
L 80.221844 29.87598 
L 80.640344 20.689804 
L 80.849594 18.182054 
L 81.058844 17.120976 
L 81.268094 17.522276 
L 81.477344 19.380012 
L 81.895844 27.333657 
L 82.314344 40.51275 
L 82.942094 68.305219 
L 85.453094 196.782943 
L 85.871594 208.09865 
L 86.290094 213.977009 
L 86.499344 214.755602 
L 86.708594 214.071275 
L 86.917844 211.934159 
L 87.336344 203.449125 
L 87.754844 189.801005 
L 88.382594 161.481031 
L 90.893594 33.740567 
L 91.312094 22.926766 
L 91.730594 17.598362 
L 91.939844 17.102688 
L 92.149094 18.069662 
L 92.358344 20.484971 
L 92.776844 29.496684 
L 93.195344 43.606255 
L 93.823094 72.438012 
L 96.124844 192.321542 
L 96.543344 205.183869 
L 96.961844 212.780783 
L 97.171094 214.451684 
L 97.380344 214.664165 
L 97.589594 213.415081 
L 98.008094 206.62753 
L 98.426594 194.489409 
L 99.054344 167.892394 
L 100.100594 110.488924 
L 101.146844 55.036281 
L 101.774594 31.245156 
L 102.193094 21.452894 
L 102.611594 17.232968 
L 102.820844 17.303799 
L 103.030094 18.8343 
L 103.448594 26.162431 
L 103.867094 38.785096 
L 104.494844 65.942664 
L 105.750344 135.58254 
L 106.587344 178.621125 
L 107.215094 201.77238 
L 107.633594 211.045576 
L 107.842844 213.599488 
L 108.052094 214.707594 
L 108.261344 214.353492 
L 108.470594 212.542423 
L 108.889094 204.67778 
L 109.307594 191.577577 
L 109.935344 163.874534 
L 112.446344 35.280856 
L 112.864844 23.882102 
L 113.283344 17.912392 
L 113.492594 17.086685 
L 113.701844 17.723862 
L 113.911094 19.814493 
L 114.329594 28.211282 
L 114.748094 41.78175 
L 115.375844 70.01489 
L 117.886844 197.883167 
L 118.305344 208.781043 
L 118.723844 214.20132 
L 118.933094 214.74417 
L 119.142344 213.824272 
L 119.351594 211.455239 
L 119.770094 202.530966 
L 120.188594 188.497767 
L 120.816344 159.750203 
L 123.118094 39.765273 
L 123.536594 26.823454 
L 123.955094 19.137178 
L 124.164344 17.419528 
L 124.373594 17.159836 
L 124.582844 18.361945 
L 125.001344 25.059025 
L 125.419844 37.115726 
L 126.047594 63.617872 
L 127.093844 120.963492 
L 128.140094 176.497504 
L 128.767844 200.394 
L 129.186344 210.272252 
L 129.604844 214.584943 
L 129.814094 214.561333 
L 130.023344 213.077679 
L 130.441844 205.839371 
L 130.860344 193.296983 
L 131.488094 166.231802 
L 132.743594 96.637982 
L 133.580594 53.519386 
L 134.208344 30.260583 
L 134.626844 20.900512 
L 134.836094 18.300476 
L 135.045344 17.145359 
L 135.254594 17.452259 
L 135.463844 19.216632 
L 135.882344 26.992151 
L 136.300844 40.013263 
L 136.928594 67.626453 
L 138.393344 149.034183 
L 139.230344 188.760669 
L 139.858094 207.815727 
L 140.276594 213.876695 
L 140.485844 214.749505 
L 140.695094 214.159486 
L 140.904344 212.115373 
L 141.322844 203.806959 
L 141.741344 190.314353 
L 142.369094 162.168481 
L 144.880094 34.174364 
L 145.298594 23.19258 
L 145.717094 17.680514 
L 145.926344 17.090495 
L 146.135594 17.963305 
L 146.344844 20.286024 
L 146.763344 29.12272 
L 147.181844 43.079331 
L 147.809594 71.742259 
L 150.320594 198.951792 
L 150.739094 209.427637 
L 151.157594 214.387741 
L 151.366844 214.694641 
L 151.576094 213.539524 
L 151.785344 210.939488 
L 152.203844 201.579417 
L 152.831594 178.320614 
L 153.668594 135.202018 
L 155.133344 55.649644 
L 155.761094 31.648147 
L 156.179594 21.684057 
L 156.598094 17.278667 
L 156.807344 17.255057 
L 157.016594 18.69184 
L 157.435094 25.840214 
L 157.853594 38.30213 
L 158.481344 65.274507 
L 159.736844 134.821199 
L 160.783094 186.896992 
L 161.410844 206.780975 
L 161.829344 213.478055 
L 162.038594 214.680164 
L 162.247844 214.420472 
L 162.457094 212.702822 
L 162.875594 205.016546 
L 163.294094 192.074727 
L 163.921844 164.551815 
L 165.386594 83.171768 
L 166.223594 43.342233 
L 166.851344 24.167861 
L 167.269844 18.015728 
L 167.479094 17.09583 
L 167.688344 17.63868 
L 167.897594 19.636245 
L 168.316094 27.856155 
L 168.734594 41.270692 
L 169.362344 69.328861 
L 171.873344 197.446846 
L 172.291844 208.512367 
L 172.710344 214.116138 
L 172.919594 214.753315 
L 173.128844 213.927608 
L 173.338094 211.651238 
L 173.756594 202.902256 
L 174.175094 189.022448 
L 174.802844 160.444599 
L 177.313844 33.099385 
L 177.732344 22.538806 
L 178.150844 17.486508 
L 178.360094 17.132406 
L 178.569344 18.240512 
L 178.778594 20.794424 
L 179.197094 30.06762 
L 179.824844 53.218875 
L 180.661844 96.25746 
L 182.126594 175.882277 
L 182.754344 199.988407 
L 183.172844 210.038181 
L 183.591344 214.536201 
L 183.800594 214.607032 
L 184.009844 213.217142 
L 184.428344 206.158812 
L 184.846844 193.777559 
L 185.474594 166.898403 
L 186.730094 97.399912 
L 187.776344 45.213659 
L 188.404094 25.21247 
L 188.822594 18.424919 
L 189.031844 17.175835 
L 189.241094 17.388316 
L 189.450344 19.059217 
L 189.868844 26.656131 
L 190.287344 39.518458 
L 190.915094 66.950667 
L 192.170594 136.722263 
L 193.007594 179.516838 
L 193.635344 202.343316 
L 194.053844 211.355029 
L 194.263094 213.770338 
L 194.472344 214.737312 
L 194.681594 214.241638 
L 194.890844 212.290653 
L 195.309344 204.159372 
L 195.727844 190.823112 
L 196.355594 162.853079 
L 198.866594 34.613203 
L 199.285094 23.464114 
L 199.703594 17.768725 
L 199.912844 17.084398 
L 200.122094 17.862991 
L 200.331344 20.092977 
L 200.749844 28.754109 
L 201.168344 42.5569 
L 201.796094 71.04923 
L 204.307094 198.52816 
L 204.725594 209.173311 
L 205.144094 214.317724 
L 205.353344 214.719024 
L 205.562594 213.657946 
L 205.771844 211.150196 
L 206.190344 201.96402 
L 206.818094 178.920669 
L 207.655094 135.962759 
L 209.119844 56.266725 
L 209.747594 32.056336 
L 210.166094 21.921032 
L 210.584594 17.330451 
L 210.793844 17.212402 
L 211.003094 18.555376 
L 211.421594 25.523554 
L 211.840094 37.823952 
L 212.467844 64.609474 
L 213.723344 134.058691 
L 214.769594 186.3546 
L 215.397344 206.472686 
L 215.815844 213.350603 
L 216.025094 214.646643 
L 216.234344 214.481377 
L 216.443594 212.857251 
L 216.862094 205.349816 
L 217.280594 192.567179 
L 217.908344 165.226096 
L 219.163844 95.497331 
L 220.000844 52.620758 
L 220.628594 29.685667 
L 221.047094 20.586652 
L 221.256344 18.125104 
L 221.465594 17.11107 
L 221.674844 17.55956 
L 221.884094 19.463936 
L 222.302594 27.506461 
L 222.721094 40.764239 
L 223.348844 68.645705 
L 225.859844 197.005495 
L 226.278344 208.23798 
L 226.696844 214.024899 
L 226.906094 214.756364 
L 227.115344 214.024899 
L 227.324594 211.841331 
L 227.743094 203.268181 
L 228.161594 189.54262 
L 228.789344 161.136249 
L 231.300344 33.525568 
L 231.718844 22.796009 
L 232.137344 17.55956 
L 232.346594 17.11107 
L 232.555844 18.125104 
L 232.765094 20.586652 
L 233.183594 29.685667 
L 233.811344 52.620758 
L 234.648344 95.497331 
L 236.322344 184.422235 
L 236.950094 205.349816 
L 237.368594 212.857251 
L 237.577844 214.481377 
L 237.787094 214.646643 
L 237.996344 213.350603 
L 238.414844 206.472686 
L 238.833344 194.253333 
L 239.461094 167.561858 
L 240.507344 110.101424 
L 241.553594 54.731005 
L 242.181344 31.045617 
L 242.599844 21.339497 
L 243.018344 17.212402 
L 243.227594 17.330451 
L 243.436844 18.907777 
L 243.855344 26.325617 
L 244.273844 39.028366 
L 244.901594 66.277901 
L 246.157094 135.962759 
L 246.994094 178.920669 
L 247.621844 201.96402 
L 248.040344 211.150196 
L 248.249594 213.657946 
L 248.458844 214.719024 
L 248.668094 214.317724 
L 248.877344 212.459988 
L 249.295844 204.506343 
L 249.714344 191.32725 
L 250.342094 163.534781 
L 252.853094 35.057057 
L 253.271594 23.74135 
L 253.690094 17.862991 
L 253.899344 17.084398 
L 254.108594 17.768725 
L 254.317844 19.905841 
L 254.736344 28.390875 
L 255.154844 42.038995 
L 255.782594 70.358969 
L 258.293594 198.099433 
L 258.712094 208.913234 
L 259.130594 214.241638 
L 259.339844 214.737312 
L 259.549094 213.770338 
L 259.758344 211.355029 
L 260.176844 202.343316 
L 260.595344 188.233745 
L 261.223094 159.401988 
L 263.524844 39.518458 
L 263.943344 26.656131 
L 264.361844 19.059217 
L 264.571094 17.388316 
L 264.780344 17.175835 
L 264.989594 18.424919 
L 265.408094 25.21247 
L 265.826594 37.350591 
L 266.454344 63.947606 
L 267.500594 121.351076 
L 268.546844 176.803719 
L 269.174594 200.594844 
L 269.593094 210.387106 
L 270.011594 214.607032 
L 270.220844 214.536201 
L 270.430094 213.0057 
L 270.848594 205.677569 
L 271.267094 193.054904 
L 271.894844 165.897336 
L 273.150344 96.25746 
L 273.987344 53.218875 
L 274.615094 30.06762 
L 275.033594 20.794424 
L 275.242844 18.240512 
L 275.452094 17.132406 
L 275.661344 17.486508 
L 275.870594 19.297577 
L 276.289094 27.16222 
L 276.707594 40.262423 
L 277.335344 67.965466 
L 279.846344 196.559144 
L 280.264844 207.957898 
L 280.683344 213.927608 
L 280.892594 214.753315 
L 281.101844 214.116138 
L 281.311094 212.025507 
L 281.729594 203.628718 
L 282.148094 190.05825 
L 282.775844 161.82511 
L 285.286844 33.956833 
L 285.705344 23.058957 
L 286.123844 17.63868 
L 286.333094 17.09583 
L 286.542344 18.015728 
L 286.751594 20.384761 
L 287.170094 29.309034 
L 287.588594 43.342233 
L 288.216344 72.089797 
L 290.518094 192.074727 
L 290.936594 205.016546 
L 291.355094 212.702822 
L 291.564344 214.420472 
L 291.773594 214.680164 
L 291.982844 213.478055 
L 292.401344 206.780975 
L 292.819844 194.724274 
L 293.447594 168.222128 
L 294.493844 110.876508 
L 295.540094 55.342496 
L 296.167844 31.446 
L 296.586344 21.567748 
L 297.004844 17.255057 
L 297.214094 17.278667 
L 297.423344 18.762321 
L 297.841844 26.000629 
L 298.260344 38.543017 
L 298.888094 65.608198 
L 300.143594 135.202018 
L 300.980594 178.320614 
L 301.608344 201.579417 
L 302.026844 210.939488 
L 302.236094 213.539524 
L 302.445344 214.694641 
L 302.654594 214.387741 
L 302.863844 212.623368 
L 303.282344 204.847849 
L 303.700844 191.826737 
L 304.328594 164.213547 
L 305.793344 82.805817 
L 306.630344 43.079331 
L 307.258094 24.024273 
L 307.676594 17.963305 
L 307.885844 17.090495 
L 308.095094 17.680514 
L 308.304344 19.724627 
L 308.722844 28.033041 
L 309.141344 41.525647 
L 309.769094 69.671519 
L 312.280094 197.665636 
L 312.698594 208.64742 
L 313.117094 214.159486 
L 313.326344 214.749505 
L 313.535594 213.876695 
L 313.744844 211.553976 
L 314.163344 202.71728 
L 314.581844 188.760669 
L 315.209594 160.097741 
L 317.720594 32.888208 
L 318.139094 22.412363 
L 318.557594 17.452259 
L 318.766844 17.145359 
L 318.976094 18.300476 
L 319.185344 20.900512 
L 319.603844 30.260583 
L 320.231594 53.519386 
L 321.068594 96.637982 
L 322.533344 176.190356 
L 323.161094 200.191853 
L 323.579594 210.155943 
L 323.998094 214.561333 
L 324.207344 214.584943 
L 324.416594 213.14816 
L 324.835094 205.999786 
L 325.253594 193.53787 
L 325.881344 166.565493 
L 327.136844 97.018801 
L 328.183094 44.943008 
L 328.810844 25.059025 
L 329.229344 18.361945 
L 329.438594 17.159836 
L 329.647844 17.419528 
L 329.857094 19.137178 
L 330.275594 26.823454 
L 330.694094 39.765273 
L 331.321844 67.288185 
L 332.786594 148.668232 
L 333.623594 188.497767 
L 334.251344 207.672139 
L 334.669844 213.824272 
L 334.879094 214.74417 
L 335.088344 214.20132 
L 335.297594 212.203755 
L 335.716094 203.983845 
L 336.134594 190.569308 
L 336.762344 162.511139 
L 339.273344 34.393154 
L 339.691844 23.327633 
L 340.110344 17.723862 
L 340.319594 17.086685 
L 340.528844 17.912392 
L 340.738094 20.188762 
L 341.156594 28.937744 
L 341.575094 42.817552 
L 342.202844 71.395401 
L 344.713844 198.740615 
L 345.132344 209.301194 
L 345.550844 214.353492 
L 345.760094 214.707594 
L 345.969344 213.599488 
L 346.178594 211.045576 
L 346.597094 201.77238 
L 347.224844 178.621125 
L 348.061844 135.58254 
L 349.526594 55.957723 
L 350.154344 31.851593 
L 350.572844 21.801819 
L 350.991344 17.303799 
L 351.200594 17.232968 
L 351.409844 18.622858 
L 351.828344 25.681188 
L 352.246844 38.062441 
L 352.874594 64.941597 
L 354.130094 134.440088 
L 355.176344 186.626341 
L 355.804094 206.62753 
L 356.222594 213.415081 
L 356.431844 214.664165 
L 356.641094 214.451684 
L 356.850344 212.780783 
L 357.268844 205.183869 
L 357.687344 192.321542 
L 358.315094 164.889333 
L 359.570594 95.117737 
L 360.407594 52.323162 
L 361.035344 29.496684 
L 361.453844 20.484971 
L 361.663094 18.069662 
L 361.872344 17.102688 
L 362.081594 17.598362 
L 362.290844 19.549347 
L 362.709344 27.680628 
L 363.127844 41.016888 
L 363.755594 68.986921 
L 366.266594 197.226797 
L 366.685094 208.375886 
L 367.103594 214.071275 
L 367.312844 214.755602 
L 367.522094 213.977009 
L 367.731344 211.747023 
L 368.149844 203.085891 
L 368.568344 189.2831 
L 369.196094 160.79077 
L 371.707094 33.31184 
L 372.125594 22.666689 
L 372.544094 17.522276 
L 372.753344 17.120976 
L 372.962594 18.182054 
L 373.171844 20.689804 
L 373.590344 29.87598 
L 374.218094 52.919331 
L 375.055094 95.877241 
L 376.519844 175.573275 
L 377.147594 199.783664 
L 377.566094 209.918968 
L 377.984594 214.509549 
L 378.193844 214.627598 
L 378.403094 213.284624 
L 378.821594 206.316446 
L 379.240094 194.016048 
L 379.867844 167.230526 
L 381.123344 97.781309 
L 382.169594 45.4854 
L 382.797344 25.367314 
L 383.215844 18.489397 
L 383.425094 17.193357 
L 383.634344 17.358623 
L 383.843594 18.982749 
L 384.262094 26.490184 
L 384.680594 39.272821 
L 385.308344 66.613904 
L 386.563844 136.342669 
L 387.400844 179.219242 
L 388.028594 202.154333 
L 388.447094 211.253348 
L 388.656344 213.714896 
L 388.865594 214.72893 
L 389.074844 214.28044 
L 389.284094 212.376064 
L 389.702594 204.333539 
L 390.121094 191.075761 
L 390.748844 163.194295 
L 393.259844 34.834505 
L 393.678344 23.60202 
L 394.096844 17.815101 
L 394.306094 17.083636 
L 394.515344 17.815101 
L 394.515344 17.815101 
" style="fill:none;stroke:#4c72b0;stroke-linecap:round;stroke-width:1.5;"/>
   </g>
   <g id="patch_3">
    <path d="M 59.506094 224.64 
L 59.506094 7.2 
" style="fill:none;stroke:#ffffff;stroke-linecap:square;stroke-linejoin:miter;stroke-width:1.25;"/>
   </g>
   <g id="patch_4">
    <path d="M 394.306094 224.64 
L 394.306094 7.2 
" style="fill:none;stroke:#ffffff;stroke-linecap:square;stroke-linejoin:miter;stroke-width:1.25;"/>
   </g>
   <g id="patch_5">
    <path d="M 59.506094 224.64 
L 394.306094 224.64 
" style="fill:none;stroke:#ffffff;stroke-linecap:square;stroke-linejoin:miter;stroke-width:1.25;"/>
   </g>
   <g id="patch_6">
    <path d="M 59.506094 7.2 
L 394.306094 7.2 
" style="fill:none;stroke:#ffffff;stroke-linecap:square;stroke-linejoin:miter;stroke-width:1.25;"/>
   </g>
  </g>
 </g>
 <defs>
  <clipPath id="pd929230ac6">
   <rect height="217.44" width="334.8" x="59.506094" y="7.2"/>
  </clipPath>
 </defs>
</svg>
