<?xml version="1.0" encoding="utf-8" standalone="no"?>
<!DOCTYPE svg PUBLIC "-//W3C//DTD SVG 1.1//EN"
  "http://www.w3.org/Graphics/SVG/1.1/DTD/svg11.dtd">
<!-- Created with matplotlib (https://matplotlib.org/) -->
<svg height="268.952402pt" version="1.1" viewBox="0 0 395.081406 268.952402" width="395.081406pt" xmlns="http://www.w3.org/2000/svg" xmlns:xlink="http://www.w3.org/1999/xlink">
 <defs>
  <style type="text/css">
*{stroke-linecap:butt;stroke-linejoin:round;}
  </style>
 </defs>
 <g id="figure_1">
  <g id="patch_1">
   <path d="M -0 268.952402 
L 395.081406 268.952402 
L 395.081406 0 
L -0 0 
z
" style="fill:#ffffff;"/>
  </g>
  <g id="axes_1">
   <g id="patch_2">
    <path d="M 53.081406 226.931308 
L 387.881406 226.931308 
L 387.881406 9.491308 
L 53.081406 9.491308 
z
" style="fill:#eaeaf2;"/>
   </g>
   <g id="matplotlib.axis_1">
    <g id="xtick_1">
     <g id="line2d_1">
      <path clip-path="url(#pefabc5d635)" d="M 68.299588 226.931308 
L 68.299588 9.491308 
" style="fill:none;stroke:#ffffff;stroke-linecap:round;"/>
     </g>
     <g id="text_1">
      <!-- 0.0 -->
      <defs>
       <path d="M 4.15625 35.296875 
Q 4.15625 48 6.765625 55.734375 
Q 9.375 63.484375 14.515625 67.671875 
Q 19.671875 71.875 27.484375 71.875 
Q 33.25 71.875 37.59375 69.546875 
Q 41.9375 67.234375 44.765625 62.859375 
Q 47.609375 58.5 49.21875 52.21875 
Q 50.828125 45.953125 50.828125 35.296875 
Q 50.828125 22.703125 48.234375 14.96875 
Q 45.65625 7.234375 40.5 3 
Q 35.359375 -1.21875 27.484375 -1.21875 
Q 17.140625 -1.21875 11.234375 6.203125 
Q 4.15625 15.140625 4.15625 35.296875 
z
M 13.1875 35.296875 
Q 13.1875 17.671875 17.3125 11.828125 
Q 21.4375 6 27.484375 6 
Q 33.546875 6 37.671875 11.859375 
Q 41.796875 17.71875 41.796875 35.296875 
Q 41.796875 52.984375 37.671875 58.78125 
Q 33.546875 64.59375 27.390625 64.59375 
Q 21.34375 64.59375 17.71875 59.46875 
Q 13.1875 52.9375 13.1875 35.296875 
z
" id="ArialMT-48"/>
       <path d="M 9.078125 0 
L 9.078125 10.015625 
L 19.09375 10.015625 
L 19.09375 0 
z
" id="ArialMT-46"/>
      </defs>
      <g style="fill:#262626;" transform="translate(60.654588 244.304902)scale(0.11 -0.11)">
       <use xlink:href="#ArialMT-48"/>
       <use x="55.615234" xlink:href="#ArialMT-46"/>
       <use x="83.398438" xlink:href="#ArialMT-48"/>
      </g>
     </g>
    </g>
    <g id="xtick_2">
     <g id="line2d_2">
      <path clip-path="url(#pefabc5d635)" d="M 129.140205 226.931308 
L 129.140205 9.491308 
" style="fill:none;stroke:#ffffff;stroke-linecap:round;"/>
     </g>
     <g id="text_2">
      <!-- 0.2 -->
      <defs>
       <path d="M 50.34375 8.453125 
L 50.34375 0 
L 3.03125 0 
Q 2.9375 3.171875 4.046875 6.109375 
Q 5.859375 10.9375 9.828125 15.625 
Q 13.8125 20.3125 21.34375 26.46875 
Q 33.015625 36.03125 37.109375 41.625 
Q 41.21875 47.21875 41.21875 52.203125 
Q 41.21875 57.421875 37.46875 61 
Q 33.734375 64.59375 27.734375 64.59375 
Q 21.390625 64.59375 17.578125 60.78125 
Q 13.765625 56.984375 13.71875 50.25 
L 4.6875 51.171875 
Q 5.609375 61.28125 11.65625 66.578125 
Q 17.71875 71.875 27.9375 71.875 
Q 38.234375 71.875 44.234375 66.15625 
Q 50.25 60.453125 50.25 52 
Q 50.25 47.703125 48.484375 43.546875 
Q 46.734375 39.40625 42.65625 34.8125 
Q 38.578125 30.21875 29.109375 22.21875 
Q 21.1875 15.578125 18.9375 13.203125 
Q 16.703125 10.84375 15.234375 8.453125 
z
" id="ArialMT-50"/>
      </defs>
      <g style="fill:#262626;" transform="translate(121.495205 244.304902)scale(0.11 -0.11)">
       <use xlink:href="#ArialMT-48"/>
       <use x="55.615234" xlink:href="#ArialMT-46"/>
       <use x="83.398438" xlink:href="#ArialMT-50"/>
      </g>
     </g>
    </g>
    <g id="xtick_3">
     <g id="line2d_3">
      <path clip-path="url(#pefabc5d635)" d="M 189.980822 226.931308 
L 189.980822 9.491308 
" style="fill:none;stroke:#ffffff;stroke-linecap:round;"/>
     </g>
     <g id="text_3">
      <!-- 0.4 -->
      <defs>
       <path d="M 32.328125 0 
L 32.328125 17.140625 
L 1.265625 17.140625 
L 1.265625 25.203125 
L 33.9375 71.578125 
L 41.109375 71.578125 
L 41.109375 25.203125 
L 50.78125 25.203125 
L 50.78125 17.140625 
L 41.109375 17.140625 
L 41.109375 0 
z
M 32.328125 25.203125 
L 32.328125 57.46875 
L 9.90625 25.203125 
z
" id="ArialMT-52"/>
      </defs>
      <g style="fill:#262626;" transform="translate(182.335822 244.304902)scale(0.11 -0.11)">
       <use xlink:href="#ArialMT-48"/>
       <use x="55.615234" xlink:href="#ArialMT-46"/>
       <use x="83.398438" xlink:href="#ArialMT-52"/>
      </g>
     </g>
    </g>
    <g id="xtick_4">
     <g id="line2d_4">
      <path clip-path="url(#pefabc5d635)" d="M 250.821439 226.931308 
L 250.821439 9.491308 
" style="fill:none;stroke:#ffffff;stroke-linecap:round;"/>
     </g>
     <g id="text_4">
      <!-- 0.6 -->
      <defs>
       <path d="M 49.75 54.046875 
L 41.015625 53.375 
Q 39.84375 58.546875 37.703125 60.890625 
Q 34.125 64.65625 28.90625 64.65625 
Q 24.703125 64.65625 21.53125 62.3125 
Q 17.390625 59.28125 14.984375 53.46875 
Q 12.59375 47.65625 12.5 36.921875 
Q 15.671875 41.75 20.265625 44.09375 
Q 24.859375 46.4375 29.890625 46.4375 
Q 38.671875 46.4375 44.84375 39.96875 
Q 51.03125 33.5 51.03125 23.25 
Q 51.03125 16.5 48.125 10.71875 
Q 45.21875 4.9375 40.140625 1.859375 
Q 35.0625 -1.21875 28.609375 -1.21875 
Q 17.625 -1.21875 10.6875 6.859375 
Q 3.765625 14.9375 3.765625 33.5 
Q 3.765625 54.25 11.421875 63.671875 
Q 18.109375 71.875 29.4375 71.875 
Q 37.890625 71.875 43.28125 67.140625 
Q 48.6875 62.40625 49.75 54.046875 
z
M 13.875 23.1875 
Q 13.875 18.65625 15.796875 14.5 
Q 17.71875 10.359375 21.1875 8.171875 
Q 24.65625 6 28.46875 6 
Q 34.03125 6 38.03125 10.484375 
Q 42.046875 14.984375 42.046875 22.703125 
Q 42.046875 30.125 38.078125 34.390625 
Q 34.125 38.671875 28.125 38.671875 
Q 22.171875 38.671875 18.015625 34.390625 
Q 13.875 30.125 13.875 23.1875 
z
" id="ArialMT-54"/>
      </defs>
      <g style="fill:#262626;" transform="translate(243.176439 244.304902)scale(0.11 -0.11)">
       <use xlink:href="#ArialMT-48"/>
       <use x="55.615234" xlink:href="#ArialMT-46"/>
       <use x="83.398438" xlink:href="#ArialMT-54"/>
      </g>
     </g>
    </g>
    <g id="xtick_5">
     <g id="line2d_5">
      <path clip-path="url(#pefabc5d635)" d="M 311.662056 226.931308 
L 311.662056 9.491308 
" style="fill:none;stroke:#ffffff;stroke-linecap:round;"/>
     </g>
     <g id="text_5">
      <!-- 0.8 -->
      <defs>
       <path d="M 17.671875 38.8125 
Q 12.203125 40.828125 9.5625 44.53125 
Q 6.9375 48.25 6.9375 53.421875 
Q 6.9375 61.234375 12.546875 66.546875 
Q 18.171875 71.875 27.484375 71.875 
Q 36.859375 71.875 42.578125 66.421875 
Q 48.296875 60.984375 48.296875 53.171875 
Q 48.296875 48.1875 45.671875 44.5 
Q 43.0625 40.828125 37.75 38.8125 
Q 44.34375 36.671875 47.78125 31.875 
Q 51.21875 27.09375 51.21875 20.453125 
Q 51.21875 11.28125 44.71875 5.03125 
Q 38.234375 -1.21875 27.640625 -1.21875 
Q 17.046875 -1.21875 10.546875 5.046875 
Q 4.046875 11.328125 4.046875 20.703125 
Q 4.046875 27.6875 7.59375 32.390625 
Q 11.140625 37.109375 17.671875 38.8125 
z
M 15.921875 53.71875 
Q 15.921875 48.640625 19.1875 45.40625 
Q 22.46875 42.1875 27.6875 42.1875 
Q 32.765625 42.1875 36.015625 45.375 
Q 39.265625 48.578125 39.265625 53.21875 
Q 39.265625 58.0625 35.90625 61.359375 
Q 32.5625 64.65625 27.59375 64.65625 
Q 22.5625 64.65625 19.234375 61.421875 
Q 15.921875 58.203125 15.921875 53.71875 
z
M 13.09375 20.65625 
Q 13.09375 16.890625 14.875 13.375 
Q 16.65625 9.859375 20.171875 7.921875 
Q 23.6875 6 27.734375 6 
Q 34.03125 6 38.125 10.046875 
Q 42.234375 14.109375 42.234375 20.359375 
Q 42.234375 26.703125 38.015625 30.859375 
Q 33.796875 35.015625 27.4375 35.015625 
Q 21.234375 35.015625 17.15625 30.90625 
Q 13.09375 26.8125 13.09375 20.65625 
z
" id="ArialMT-56"/>
      </defs>
      <g style="fill:#262626;" transform="translate(304.017056 244.304902)scale(0.11 -0.11)">
       <use xlink:href="#ArialMT-48"/>
       <use x="55.615234" xlink:href="#ArialMT-46"/>
       <use x="83.398438" xlink:href="#ArialMT-56"/>
      </g>
     </g>
    </g>
    <g id="xtick_6">
     <g id="line2d_6">
      <path clip-path="url(#pefabc5d635)" d="M 372.502673 226.931308 
L 372.502673 9.491308 
" style="fill:none;stroke:#ffffff;stroke-linecap:round;"/>
     </g>
     <g id="text_6">
      <!-- 1.0 -->
      <defs>
       <path d="M 37.25 0 
L 28.46875 0 
L 28.46875 56 
Q 25.296875 52.984375 20.140625 49.953125 
Q 14.984375 46.921875 10.890625 45.40625 
L 10.890625 53.90625 
Q 18.265625 57.375 23.78125 62.296875 
Q 29.296875 67.234375 31.59375 71.875 
L 37.25 71.875 
z
" id="ArialMT-49"/>
      </defs>
      <g style="fill:#262626;" transform="translate(364.857673 244.304902)scale(0.11 -0.11)">
       <use xlink:href="#ArialMT-49"/>
       <use x="55.615234" xlink:href="#ArialMT-46"/>
       <use x="83.398438" xlink:href="#ArialMT-48"/>
      </g>
     </g>
    </g>
    <g id="text_7">
     <!-- Time (s) -->
     <defs>
      <path d="M 25.921875 0 
L 25.921875 63.140625 
L 2.34375 63.140625 
L 2.34375 71.578125 
L 59.078125 71.578125 
L 59.078125 63.140625 
L 35.40625 63.140625 
L 35.40625 0 
z
" id="ArialMT-84"/>
      <path d="M 6.640625 61.46875 
L 6.640625 71.578125 
L 15.4375 71.578125 
L 15.4375 61.46875 
z
M 6.640625 0 
L 6.640625 51.859375 
L 15.4375 51.859375 
L 15.4375 0 
z
" id="ArialMT-105"/>
      <path d="M 6.59375 0 
L 6.59375 51.859375 
L 14.453125 51.859375 
L 14.453125 44.578125 
Q 16.890625 48.390625 20.9375 50.703125 
Q 25 53.03125 30.171875 53.03125 
Q 35.9375 53.03125 39.625 50.640625 
Q 43.3125 48.25 44.828125 43.953125 
Q 50.984375 53.03125 60.84375 53.03125 
Q 68.5625 53.03125 72.703125 48.75 
Q 76.859375 44.484375 76.859375 35.59375 
L 76.859375 0 
L 68.109375 0 
L 68.109375 32.671875 
Q 68.109375 37.9375 67.25 40.25 
Q 66.40625 42.578125 64.15625 43.984375 
Q 61.921875 45.40625 58.890625 45.40625 
Q 53.421875 45.40625 49.796875 41.765625 
Q 46.1875 38.140625 46.1875 30.125 
L 46.1875 0 
L 37.40625 0 
L 37.40625 33.6875 
Q 37.40625 39.546875 35.25 42.46875 
Q 33.109375 45.40625 28.21875 45.40625 
Q 24.515625 45.40625 21.359375 43.453125 
Q 18.21875 41.5 16.796875 37.734375 
Q 15.375 33.984375 15.375 26.90625 
L 15.375 0 
z
" id="ArialMT-109"/>
      <path d="M 42.09375 16.703125 
L 51.171875 15.578125 
Q 49.03125 7.625 43.21875 3.21875 
Q 37.40625 -1.171875 28.375 -1.171875 
Q 17 -1.171875 10.328125 5.828125 
Q 3.65625 12.84375 3.65625 25.484375 
Q 3.65625 38.578125 10.390625 45.796875 
Q 17.140625 53.03125 27.875 53.03125 
Q 38.28125 53.03125 44.875 45.953125 
Q 51.46875 38.875 51.46875 26.03125 
Q 51.46875 25.25 51.421875 23.6875 
L 12.75 23.6875 
Q 13.234375 15.140625 17.578125 10.59375 
Q 21.921875 6.0625 28.421875 6.0625 
Q 33.25 6.0625 36.671875 8.59375 
Q 40.09375 11.140625 42.09375 16.703125 
z
M 13.234375 30.90625 
L 42.1875 30.90625 
Q 41.609375 37.453125 38.875 40.71875 
Q 34.671875 45.796875 27.984375 45.796875 
Q 21.921875 45.796875 17.796875 41.75 
Q 13.671875 37.703125 13.234375 30.90625 
z
" id="ArialMT-101"/>
      <path id="ArialMT-32"/>
      <path d="M 23.390625 -21.046875 
Q 16.109375 -11.859375 11.078125 0.4375 
Q 6.0625 12.75 6.0625 25.921875 
Q 6.0625 37.546875 9.8125 48.1875 
Q 14.203125 60.546875 23.390625 72.796875 
L 29.6875 72.796875 
Q 23.78125 62.640625 21.875 58.296875 
Q 18.890625 51.5625 17.1875 44.234375 
Q 15.09375 35.109375 15.09375 25.875 
Q 15.09375 2.390625 29.6875 -21.046875 
z
" id="ArialMT-40"/>
      <path d="M 3.078125 15.484375 
L 11.765625 16.84375 
Q 12.5 11.625 15.84375 8.84375 
Q 19.1875 6.0625 25.203125 6.0625 
Q 31.25 6.0625 34.171875 8.515625 
Q 37.109375 10.984375 37.109375 14.3125 
Q 37.109375 17.28125 34.515625 19 
Q 32.71875 20.171875 25.53125 21.96875 
Q 15.875 24.421875 12.140625 26.203125 
Q 8.40625 27.984375 6.46875 31.125 
Q 4.546875 34.28125 4.546875 38.09375 
Q 4.546875 41.546875 6.125 44.5 
Q 7.71875 47.46875 10.453125 49.421875 
Q 12.5 50.921875 16.03125 51.96875 
Q 19.578125 53.03125 23.640625 53.03125 
Q 29.734375 53.03125 34.34375 51.265625 
Q 38.96875 49.515625 41.15625 46.5 
Q 43.359375 43.5 44.1875 38.484375 
L 35.59375 37.3125 
Q 35.015625 41.3125 32.203125 43.546875 
Q 29.390625 45.796875 24.265625 45.796875 
Q 18.21875 45.796875 15.625 43.796875 
Q 13.03125 41.796875 13.03125 39.109375 
Q 13.03125 37.40625 14.109375 36.03125 
Q 15.1875 34.625 17.484375 33.6875 
Q 18.796875 33.203125 25.25 31.453125 
Q 34.578125 28.953125 38.25 27.359375 
Q 41.9375 25.78125 44.03125 22.75 
Q 46.140625 19.734375 46.140625 15.234375 
Q 46.140625 10.84375 43.578125 6.953125 
Q 41.015625 3.078125 36.171875 0.953125 
Q 31.34375 -1.171875 25.25 -1.171875 
Q 15.140625 -1.171875 9.84375 3.03125 
Q 4.546875 7.234375 3.078125 15.484375 
z
" id="ArialMT-115"/>
      <path d="M 12.359375 -21.046875 
L 6.0625 -21.046875 
Q 20.65625 2.390625 20.65625 25.875 
Q 20.65625 35.0625 18.5625 44.09375 
Q 16.890625 51.421875 13.921875 58.15625 
Q 12.015625 62.546875 6.0625 72.796875 
L 12.359375 72.796875 
Q 21.53125 60.546875 25.921875 48.1875 
Q 29.6875 37.546875 29.6875 25.921875 
Q 29.6875 12.75 24.625 0.4375 
Q 19.578125 -11.859375 12.359375 -21.046875 
z
" id="ArialMT-41"/>
     </defs>
     <g style="fill:#262626;" transform="translate(198.711719 259.226777)scale(0.12 -0.12)">
      <use xlink:href="#ArialMT-84"/>
      <use x="57.333984" xlink:href="#ArialMT-105"/>
      <use x="79.550781" xlink:href="#ArialMT-109"/>
      <use x="162.851562" xlink:href="#ArialMT-101"/>
      <use x="218.466797" xlink:href="#ArialMT-32"/>
      <use x="246.25" xlink:href="#ArialMT-40"/>
      <use x="279.550781" xlink:href="#ArialMT-115"/>
      <use x="329.550781" xlink:href="#ArialMT-41"/>
     </g>
    </g>
   </g>
   <g id="matplotlib.axis_2">
    <g id="ytick_1">
     <g id="line2d_7">
      <path clip-path="url(#pefabc5d635)" d="M 53.081406 217.047672 
L 387.881406 217.047672 
" style="fill:none;stroke:#ffffff;stroke-linecap:round;"/>
     </g>
     <g id="text_8">
      <!-- 0.00 -->
      <g style="fill:#262626;" transform="translate(22.174375 220.984469)scale(0.11 -0.11)">
       <use xlink:href="#ArialMT-48"/>
       <use x="55.615234" xlink:href="#ArialMT-46"/>
       <use x="83.398438" xlink:href="#ArialMT-48"/>
       <use x="139.013672" xlink:href="#ArialMT-48"/>
      </g>
     </g>
    </g>
    <g id="ytick_2">
     <g id="line2d_8">
      <path clip-path="url(#pefabc5d635)" d="M 53.081406 191.308812 
L 387.881406 191.308812 
" style="fill:none;stroke:#ffffff;stroke-linecap:round;"/>
     </g>
     <g id="text_9">
      <!-- 0.05 -->
      <defs>
       <path d="M 4.15625 18.75 
L 13.375 19.53125 
Q 14.40625 12.796875 18.140625 9.390625 
Q 21.875 6 27.15625 6 
Q 33.5 6 37.890625 10.78125 
Q 42.28125 15.578125 42.28125 23.484375 
Q 42.28125 31 38.0625 35.34375 
Q 33.84375 39.703125 27 39.703125 
Q 22.75 39.703125 19.328125 37.765625 
Q 15.921875 35.84375 13.96875 32.765625 
L 5.71875 33.84375 
L 12.640625 70.609375 
L 48.25 70.609375 
L 48.25 62.203125 
L 19.671875 62.203125 
L 15.828125 42.96875 
Q 22.265625 47.46875 29.34375 47.46875 
Q 38.71875 47.46875 45.15625 40.96875 
Q 51.609375 34.46875 51.609375 24.265625 
Q 51.609375 14.546875 45.953125 7.46875 
Q 39.0625 -1.21875 27.15625 -1.21875 
Q 17.390625 -1.21875 11.203125 4.25 
Q 5.03125 9.71875 4.15625 18.75 
z
" id="ArialMT-53"/>
      </defs>
      <g style="fill:#262626;" transform="translate(22.174375 195.245609)scale(0.11 -0.11)">
       <use xlink:href="#ArialMT-48"/>
       <use x="55.615234" xlink:href="#ArialMT-46"/>
       <use x="83.398438" xlink:href="#ArialMT-48"/>
       <use x="139.013672" xlink:href="#ArialMT-53"/>
      </g>
     </g>
    </g>
    <g id="ytick_3">
     <g id="line2d_9">
      <path clip-path="url(#pefabc5d635)" d="M 53.081406 165.569953 
L 387.881406 165.569953 
" style="fill:none;stroke:#ffffff;stroke-linecap:round;"/>
     </g>
     <g id="text_10">
      <!-- 0.10 -->
      <g style="fill:#262626;" transform="translate(22.174375 169.50675)scale(0.11 -0.11)">
       <use xlink:href="#ArialMT-48"/>
       <use x="55.615234" xlink:href="#ArialMT-46"/>
       <use x="83.398438" xlink:href="#ArialMT-49"/>
       <use x="139.013672" xlink:href="#ArialMT-48"/>
      </g>
     </g>
    </g>
    <g id="ytick_4">
     <g id="line2d_10">
      <path clip-path="url(#pefabc5d635)" d="M 53.081406 139.831094 
L 387.881406 139.831094 
" style="fill:none;stroke:#ffffff;stroke-linecap:round;"/>
     </g>
     <g id="text_11">
      <!-- 0.15 -->
      <g style="fill:#262626;" transform="translate(22.174375 143.767891)scale(0.11 -0.11)">
       <use xlink:href="#ArialMT-48"/>
       <use x="55.615234" xlink:href="#ArialMT-46"/>
       <use x="83.398438" xlink:href="#ArialMT-49"/>
       <use x="139.013672" xlink:href="#ArialMT-53"/>
      </g>
     </g>
    </g>
    <g id="ytick_5">
     <g id="line2d_11">
      <path clip-path="url(#pefabc5d635)" d="M 53.081406 114.092234 
L 387.881406 114.092234 
" style="fill:none;stroke:#ffffff;stroke-linecap:round;"/>
     </g>
     <g id="text_12">
      <!-- 0.20 -->
      <g style="fill:#262626;" transform="translate(22.174375 118.029031)scale(0.11 -0.11)">
       <use xlink:href="#ArialMT-48"/>
       <use x="55.615234" xlink:href="#ArialMT-46"/>
       <use x="83.398438" xlink:href="#ArialMT-50"/>
       <use x="139.013672" xlink:href="#ArialMT-48"/>
      </g>
     </g>
    </g>
    <g id="ytick_6">
     <g id="line2d_12">
      <path clip-path="url(#pefabc5d635)" d="M 53.081406 88.353375 
L 387.881406 88.353375 
" style="fill:none;stroke:#ffffff;stroke-linecap:round;"/>
     </g>
     <g id="text_13">
      <!-- 0.25 -->
      <g style="fill:#262626;" transform="translate(22.174375 92.290172)scale(0.11 -0.11)">
       <use xlink:href="#ArialMT-48"/>
       <use x="55.615234" xlink:href="#ArialMT-46"/>
       <use x="83.398438" xlink:href="#ArialMT-50"/>
       <use x="139.013672" xlink:href="#ArialMT-53"/>
      </g>
     </g>
    </g>
    <g id="ytick_7">
     <g id="line2d_13">
      <path clip-path="url(#pefabc5d635)" d="M 53.081406 62.614516 
L 387.881406 62.614516 
" style="fill:none;stroke:#ffffff;stroke-linecap:round;"/>
     </g>
     <g id="text_14">
      <!-- 0.30 -->
      <defs>
       <path d="M 4.203125 18.890625 
L 12.984375 20.0625 
Q 14.5 12.59375 18.140625 9.296875 
Q 21.78125 6 27 6 
Q 33.203125 6 37.46875 10.296875 
Q 41.75 14.59375 41.75 20.953125 
Q 41.75 27 37.796875 30.921875 
Q 33.84375 34.859375 27.734375 34.859375 
Q 25.25 34.859375 21.53125 33.890625 
L 22.515625 41.609375 
Q 23.390625 41.5 23.921875 41.5 
Q 29.546875 41.5 34.03125 44.421875 
Q 38.53125 47.359375 38.53125 53.46875 
Q 38.53125 58.296875 35.25 61.46875 
Q 31.984375 64.65625 26.8125 64.65625 
Q 21.6875 64.65625 18.265625 61.421875 
Q 14.84375 58.203125 13.875 51.765625 
L 5.078125 53.328125 
Q 6.6875 62.15625 12.390625 67.015625 
Q 18.109375 71.875 26.609375 71.875 
Q 32.46875 71.875 37.390625 69.359375 
Q 42.328125 66.84375 44.9375 62.5 
Q 47.5625 58.15625 47.5625 53.265625 
Q 47.5625 48.640625 45.0625 44.828125 
Q 42.578125 41.015625 37.703125 38.765625 
Q 44.046875 37.3125 47.5625 32.6875 
Q 51.078125 28.078125 51.078125 21.140625 
Q 51.078125 11.765625 44.234375 5.25 
Q 37.40625 -1.265625 26.953125 -1.265625 
Q 17.53125 -1.265625 11.296875 4.34375 
Q 5.078125 9.96875 4.203125 18.890625 
z
" id="ArialMT-51"/>
      </defs>
      <g style="fill:#262626;" transform="translate(22.174375 66.551312)scale(0.11 -0.11)">
       <use xlink:href="#ArialMT-48"/>
       <use x="55.615234" xlink:href="#ArialMT-46"/>
       <use x="83.398438" xlink:href="#ArialMT-51"/>
       <use x="139.013672" xlink:href="#ArialMT-48"/>
      </g>
     </g>
    </g>
    <g id="ytick_8">
     <g id="line2d_14">
      <path clip-path="url(#pefabc5d635)" d="M 53.081406 36.875656 
L 387.881406 36.875656 
" style="fill:none;stroke:#ffffff;stroke-linecap:round;"/>
     </g>
     <g id="text_15">
      <!-- 0.35 -->
      <g style="fill:#262626;" transform="translate(22.174375 40.812453)scale(0.11 -0.11)">
       <use xlink:href="#ArialMT-48"/>
       <use x="55.615234" xlink:href="#ArialMT-46"/>
       <use x="83.398438" xlink:href="#ArialMT-51"/>
       <use x="139.013672" xlink:href="#ArialMT-53"/>
      </g>
     </g>
    </g>
    <g id="ytick_9">
     <g id="line2d_15">
      <path clip-path="url(#pefabc5d635)" d="M 53.081406 11.136797 
L 387.881406 11.136797 
" style="fill:none;stroke:#ffffff;stroke-linecap:round;"/>
     </g>
     <g id="text_16">
      <!-- 0.40 -->
      <g style="fill:#262626;" transform="translate(22.174375 15.073594)scale(0.11 -0.11)">
       <use xlink:href="#ArialMT-48"/>
       <use x="55.615234" xlink:href="#ArialMT-46"/>
       <use x="83.398438" xlink:href="#ArialMT-52"/>
       <use x="139.013672" xlink:href="#ArialMT-48"/>
      </g>
     </g>
    </g>
    <g id="text_17">
     <!-- Amplitude -->
     <defs>
      <path d="M -0.140625 0 
L 27.34375 71.578125 
L 37.546875 71.578125 
L 66.84375 0 
L 56.0625 0 
L 47.703125 21.6875 
L 17.78125 21.6875 
L 9.90625 0 
z
M 20.515625 29.390625 
L 44.78125 29.390625 
L 37.3125 49.21875 
Q 33.890625 58.25 32.234375 64.0625 
Q 30.859375 57.171875 28.375 50.390625 
z
" id="ArialMT-65"/>
      <path d="M 6.59375 -19.875 
L 6.59375 51.859375 
L 14.59375 51.859375 
L 14.59375 45.125 
Q 17.4375 49.078125 21 51.046875 
Q 24.5625 53.03125 29.640625 53.03125 
Q 36.28125 53.03125 41.359375 49.609375 
Q 46.4375 46.1875 49.015625 39.953125 
Q 51.609375 33.734375 51.609375 26.3125 
Q 51.609375 18.359375 48.75 11.984375 
Q 45.90625 5.609375 40.453125 2.21875 
Q 35.015625 -1.171875 29 -1.171875 
Q 24.609375 -1.171875 21.109375 0.6875 
Q 17.625 2.546875 15.375 5.375 
L 15.375 -19.875 
z
M 14.546875 25.640625 
Q 14.546875 15.625 18.59375 10.84375 
Q 22.65625 6.0625 28.421875 6.0625 
Q 34.28125 6.0625 38.453125 11.015625 
Q 42.625 15.96875 42.625 26.375 
Q 42.625 36.28125 38.546875 41.203125 
Q 34.46875 46.140625 28.8125 46.140625 
Q 23.1875 46.140625 18.859375 40.890625 
Q 14.546875 35.640625 14.546875 25.640625 
z
" id="ArialMT-112"/>
      <path d="M 6.390625 0 
L 6.390625 71.578125 
L 15.1875 71.578125 
L 15.1875 0 
z
" id="ArialMT-108"/>
      <path d="M 25.78125 7.859375 
L 27.046875 0.09375 
Q 23.34375 -0.6875 20.40625 -0.6875 
Q 15.625 -0.6875 12.984375 0.828125 
Q 10.359375 2.34375 9.28125 4.8125 
Q 8.203125 7.28125 8.203125 15.1875 
L 8.203125 45.015625 
L 1.765625 45.015625 
L 1.765625 51.859375 
L 8.203125 51.859375 
L 8.203125 64.703125 
L 16.9375 69.96875 
L 16.9375 51.859375 
L 25.78125 51.859375 
L 25.78125 45.015625 
L 16.9375 45.015625 
L 16.9375 14.703125 
Q 16.9375 10.9375 17.40625 9.859375 
Q 17.875 8.796875 18.921875 8.15625 
Q 19.96875 7.515625 21.921875 7.515625 
Q 23.390625 7.515625 25.78125 7.859375 
z
" id="ArialMT-116"/>
      <path d="M 40.578125 0 
L 40.578125 7.625 
Q 34.515625 -1.171875 24.125 -1.171875 
Q 19.53125 -1.171875 15.546875 0.578125 
Q 11.578125 2.34375 9.640625 5 
Q 7.71875 7.671875 6.9375 11.53125 
Q 6.390625 14.109375 6.390625 19.734375 
L 6.390625 51.859375 
L 15.1875 51.859375 
L 15.1875 23.09375 
Q 15.1875 16.21875 15.71875 13.8125 
Q 16.546875 10.359375 19.234375 8.375 
Q 21.921875 6.390625 25.875 6.390625 
Q 29.828125 6.390625 33.296875 8.421875 
Q 36.765625 10.453125 38.203125 13.9375 
Q 39.65625 17.4375 39.65625 24.078125 
L 39.65625 51.859375 
L 48.4375 51.859375 
L 48.4375 0 
z
" id="ArialMT-117"/>
      <path d="M 40.234375 0 
L 40.234375 6.546875 
Q 35.296875 -1.171875 25.734375 -1.171875 
Q 19.53125 -1.171875 14.328125 2.25 
Q 9.125 5.671875 6.265625 11.796875 
Q 3.421875 17.921875 3.421875 25.875 
Q 3.421875 33.640625 6 39.96875 
Q 8.59375 46.296875 13.765625 49.65625 
Q 18.953125 53.03125 25.34375 53.03125 
Q 30.03125 53.03125 33.6875 51.046875 
Q 37.359375 49.078125 39.65625 45.90625 
L 39.65625 71.578125 
L 48.390625 71.578125 
L 48.390625 0 
z
M 12.453125 25.875 
Q 12.453125 15.921875 16.640625 10.984375 
Q 20.84375 6.0625 26.5625 6.0625 
Q 32.328125 6.0625 36.34375 10.765625 
Q 40.375 15.484375 40.375 25.140625 
Q 40.375 35.796875 36.265625 40.765625 
Q 32.171875 45.75 26.171875 45.75 
Q 20.3125 45.75 16.375 40.96875 
Q 12.453125 36.1875 12.453125 25.875 
z
" id="ArialMT-100"/>
     </defs>
     <g style="fill:#262626;" transform="translate(15.789375 144.890683)rotate(-90)scale(0.12 -0.12)">
      <use xlink:href="#ArialMT-65"/>
      <use x="66.699219" xlink:href="#ArialMT-109"/>
      <use x="150" xlink:href="#ArialMT-112"/>
      <use x="205.615234" xlink:href="#ArialMT-108"/>
      <use x="227.832031" xlink:href="#ArialMT-105"/>
      <use x="250.048828" xlink:href="#ArialMT-116"/>
      <use x="277.832031" xlink:href="#ArialMT-117"/>
      <use x="333.447266" xlink:href="#ArialMT-100"/>
      <use x="389.0625" xlink:href="#ArialMT-101"/>
     </g>
    </g>
   </g>
   <g id="line2d_16">
    <path clip-path="url(#pefabc5d635)" d="M 68.299588 217.047672 
L 68.46859 217.047672 
L 68.553091 201.483136 
L 68.620691 203.774449 
L 68.781243 204.684768 
L 68.806593 204.700229 
L 68.975595 162.579837 
L 69.060096 160.811619 
L 69.068546 162.918984 
L 69.313598 196.744917 
L 69.322048 194.96007 
L 69.558651 172.359443 
L 69.567101 171.685314 
L 69.617801 175.922731 
L 69.778353 178.656027 
L 69.820603 178.724014 
L 69.989605 137.90061 
L 70.074106 136.18684 
L 70.082556 138.233756 
L 70.327609 173.608854 
L 70.344509 170.187733 
L 70.581111 149.531166 
L 70.750113 156.254485 
L 70.834614 156.477332 
L 71.003615 117.673626 
L 71.088116 116.044643 
L 71.096566 117.99058 
L 71.341619 154.380368 
L 71.366969 149.530883 
L 71.595121 131.220311 
L 71.603572 132.172801 
L 71.772573 137.881435 
L 71.848624 138.059076 
L 72.017626 100.935927 
L 72.102127 99.377494 
L 72.110577 101.239373 
L 72.355629 138.466333 
L 72.380979 133.530847 
L 72.609132 116.066712 
L 72.778133 122.599756 
L 72.862634 122.816296 
L 73.031636 87.084028 
L 73.116137 85.583984 
L 73.124587 87.376294 
L 73.369639 125.296078 
L 73.40344 119.109033 
L 73.623142 103.525792 
L 73.631592 104.455581 
L 73.800594 110.028161 
L 73.876645 110.201569 
L 74.045646 75.620405 
L 74.130147 74.168685 
L 74.138597 75.903419 
L 74.38365 114.396564 
L 74.4259 107.127591 
L 74.637152 93.147099 
L 74.654053 94.866875 
L 74.823054 99.624105 
L 74.890655 99.761796 
L 75.059657 66.133255 
L 75.144157 64.721526 
L 75.152608 66.408612 
L 75.39766 105.376257 
L 75.43991 98.037338 
L 75.651163 84.557827 
L 75.659613 85.472068 
L 75.828614 90.951463 
L 75.904665 91.121971 
L 76.073667 58.281796 
L 76.158168 56.903163 
L 76.166618 58.550816 
L 76.41167 97.911168 
L 76.462371 89.646656 
L 76.665173 77.449454 
L 76.682073 79.14521 
L 76.851075 83.835996 
L 76.918675 83.971764 
L 77.087677 51.784059 
L 77.172178 50.432816 
L 77.180628 52.047834 
L 77.425681 91.733173 
L 77.476381 83.415136 
L 77.679183 71.566667 
L 77.696083 73.253421 
L 77.865085 77.919309 
L 77.932686 78.054356 
L 78.101687 46.40661 
L 78.186188 45.078034 
L 78.194638 46.666045 
L 78.439691 86.620334 
L 78.498841 77.516126 
L 78.693193 66.698146 
L 78.718544 69.053235 
L 78.879095 73.02273 
L 78.946696 73.157181 
L 79.115698 41.956285 
L 79.200199 40.646469 
L 79.208649 42.212128 
L 79.453701 82.389014 
L 79.512852 73.244891 
L 79.707204 62.669018 
L 79.732554 65.015461 
L 79.893106 68.970384 
L 79.960706 69.104341 
L 80.129708 38.273281 
L 80.214209 36.978991 
L 80.222659 38.526152 
L 80.467711 78.887244 
L 80.526862 69.710091 
L 80.721214 59.334573 
L 80.738114 61.002611 
L 80.907116 65.616724 
L 80.974717 65.750272 
L 81.143718 35.225268 
L 81.228219 33.943826 
L 81.236669 35.475679 
L 81.481722 75.989213 
L 81.540872 66.784725 
L 81.735224 56.575026 
L 81.752124 58.238841 
L 81.921126 62.841273 
L 81.988727 62.974484 
L 82.157729 32.702754 
L 82.242229 31.431945 
L 82.25068 32.951129 
L 82.495732 73.590838 
L 82.563333 63.728391 
L 82.749235 54.291258 
L 82.774585 56.619723 
L 82.935136 60.544344 
L 83.002737 60.677275 
L 83.171739 30.615182 
L 83.25624 29.353172 
L 83.26469 30.861871 
L 83.509742 71.60599 
L 83.577343 61.723532 
L 83.763245 52.40125 
L 83.788595 54.725659 
L 83.949147 58.643445 
L 84.016747 58.776144 
L 84.185749 28.887526 
L 84.27025 27.632799 
L 84.2787 29.132822 
L 84.523753 69.963343 
L 84.591353 60.064325 
L 84.777255 50.8371 
L 84.802605 53.158152 
L 84.963157 57.07028 
L 85.030758 57.202787 
L 85.199759 27.457723 
L 85.28426 26.209022 
L 85.29271 27.701864 
L 85.537763 68.603908 
L 85.605364 58.691182 
L 85.791265 49.542626 
L 85.816616 51.860901 
L 85.977167 55.768346 
L 86.044768 55.900695 
L 86.21377 26.274463 
L 86.298271 25.030751 
L 86.306721 26.517649 
L 86.551773 67.478872 
L 86.619374 57.554804 
L 86.805276 48.471344 
L 86.830626 50.787321 
L 86.991178 54.690892 
L 87.058778 54.82311 
L 87.22778 25.295205 
L 87.312281 24.05562 
L 87.320731 25.537601 
L 87.565783 66.547795 
L 87.633384 56.614341 
L 87.819286 47.584762 
L 87.844636 49.898835 
L 88.005188 53.799199 
L 88.072789 53.931308 
L 88.24179 24.484765 
L 88.326291 23.248596 
L 88.334741 24.726507 
L 88.579794 65.777245 
L 88.647394 55.83602 
L 88.833296 46.851034 
L 88.858647 49.163533 
L 89.019198 53.061243 
L 89.086799 53.193263 
L 89.255801 23.814082 
L 89.340301 22.580741 
L 89.348752 24.055282 
L 89.593804 65.139563 
L 89.661405 55.19191 
L 89.847307 46.243818 
L 89.872657 48.555015 
L 90.033208 52.450529 
L 90.100809 52.582474 
L 90.269811 23.259026 
L 90.354312 22.028025 
L 90.362762 23.499778 
L 90.607814 64.611814 
L 90.675415 54.658841 
L 90.861317 45.74129 
L 90.886667 48.051408 
L 91.047219 51.945104 
L 91.114819 52.076988 
L 91.283821 22.79965 
L 91.368322 21.570585 
L 91.376772 23.040032 
L 91.621825 64.175053 
L 91.689425 54.217674 
L 91.875327 45.325402 
L 91.900677 47.634627 
L 92.061229 51.526819 
L 92.12883 51.658651 
L 92.297831 22.419503 
L 92.382332 21.192041 
L 92.390782 22.659578 
L 92.635835 63.81361 
L 92.703436 53.852588 
L 92.889337 44.981225 
L 92.914688 47.289712 
L 93.075239 51.18066 
L 93.14284 51.31245 
L 93.311842 22.104891 
L 93.396343 20.878755 
L 93.404793 22.344712 
L 93.649845 63.514473 
L 93.717446 53.550436 
L 93.903348 44.696385 
L 93.928698 47.00426 
L 94.08925 50.894177 
L 94.15685 51.025933 
L 94.325852 21.844504 
L 94.410353 20.619465 
L 94.418803 22.084115 
L 94.663855 63.266908 
L 94.731456 53.300373 
L 94.917358 44.460652 
L 94.942708 46.768021 
L 95.10326 50.657086 
L 95.170861 50.788812 
L 95.339862 21.629037 
L 95.424363 20.404907 
L 95.432813 21.868473 
L 95.677866 63.062041 
L 95.745466 53.093442 
L 95.931368 44.265569 
L 95.956719 46.572521 
L 96.11727 50.46088 
L 96.184871 50.592583 
L 96.353873 21.450711 
L 96.438373 20.227333 
L 96.446823 21.690004 
L 96.691876 62.892484 
L 96.759477 52.922177 
L 96.945379 44.104118 
L 96.970729 46.410722 
L 97.13128 50.298497 
L 97.198881 50.43018 
L 97.367883 21.303113 
L 97.452384 20.080356 
L 97.460834 21.542287 
L 97.705886 62.752159 
L 97.773487 52.780434 
L 97.959389 43.970499 
L 97.984739 46.276817 
L 98.145291 50.164109 
L 98.212891 50.295775 
L 98.381893 21.180989 
L 98.466394 19.958747 
L 98.474844 21.420064 
L 98.719897 62.636041 
L 98.795947 52.120289 
L 98.973399 43.859926 
L 98.998749 46.166006 
L 99.159301 50.052899 
L 99.226902 50.184552 
L 99.395903 21.079913 
L 99.480404 19.858097 
L 99.488854 21.318907 
L 99.733907 62.539932 
L 99.809958 52.02316 
L 99.987409 43.768412 
L 100.01276 46.074296 
L 100.173311 49.960857 
L 100.240912 50.092499 
L 100.409914 20.996245 
L 100.494415 19.774782 
L 100.502865 21.235171 
L 100.747917 62.460391 
L 100.823968 51.94277 
L 101.00142 43.692674 
L 101.02677 45.998395 
L 101.187322 49.884682 
L 101.254922 50.016315 
L 101.423924 20.927029 
L 101.508425 19.705858 
L 101.516875 21.165899 
L 101.761927 62.394579 
L 101.837978 51.876259 
L 102.01543 43.630001 
L 102.04078 45.935588 
L 102.201332 49.821649 
L 102.268933 49.953274 
L 102.437934 20.869739 
L 102.522435 19.64881 
L 102.530885 21.108563 
L 102.775938 62.340101 
L 102.851988 51.821204 
L 103.02944 43.57813 
L 103.05479 45.883606 
L 103.215342 49.769478 
L 103.282943 49.901096 
L 103.451945 20.822308 
L 103.536445 19.601578 
L 103.544895 21.061094 
L 103.789948 62.295013 
L 103.865999 51.775634 
L 104.043451 43.535198 
L 104.068801 45.840582 
L 104.229352 49.726299 
L 104.296953 49.857912 
L 104.465955 20.783081 
L 104.550456 19.562517 
L 104.558906 21.021835 
L 104.803958 62.257714 
L 104.880009 51.73794 
L 105.057461 43.499676 
L 105.082811 45.804984 
L 105.243363 49.690574 
L 105.310963 49.822182 
L 105.479965 20.75061 
L 105.564466 19.530182 
L 105.572916 20.989338 
L 105.817969 62.226833 
L 105.894019 51.706732 
L 106.071471 43.470275 
L 106.096821 45.775519 
L 106.257373 49.661002 
L 106.324974 49.792607 
L 106.493975 20.723718 
L 106.578476 19.503403 
L 106.586926 20.962424 
L 106.831979 62.201275 
L 106.90803 51.680899 
L 107.085481 43.445939 
L 107.110832 45.751131 
L 107.271383 49.636526 
L 107.338984 49.768128 
L 107.507986 20.701489 
L 107.592487 19.481269 
L 107.600937 20.940178 
L 107.845989 62.180138 
L 107.92204 51.659538 
L 108.099492 43.425807 
L 108.124842 45.730956 
L 108.285394 49.616278 
L 108.352994 49.747878 
L 108.521996 20.683085 
L 108.606497 19.462943 
L 108.614947 20.921759 
L 108.859999 62.162632 
L 108.93605 51.641848 
L 109.113502 43.409141 
L 109.138852 45.714254 
L 109.299404 49.599516 
L 109.367005 49.731113 
L 109.536006 20.667836 
L 109.620507 19.447757 
L 109.628957 20.906497 
L 109.87401 62.148143 
L 109.95006 51.627202 
L 110.127512 43.395346 
L 110.152862 45.700429 
L 110.313414 49.585641 
L 110.381015 49.717237 
L 110.550017 20.655242 
L 110.634517 19.435217 
L 110.642967 20.893893 
L 110.88802 62.136166 
L 110.964071 51.615099 
L 111.141523 43.383936 
L 111.166873 45.688996 
L 111.327424 49.574167 
L 111.395025 49.705761 
L 111.564027 20.644812 
L 111.648528 19.42483 
L 111.656978 20.883454 
L 111.90203 62.126242 
L 111.978081 51.605071 
L 112.155533 43.37449 
L 112.180883 45.679529 
L 112.341435 49.564665 
L 112.409035 49.696258 
L 112.578037 20.636161 
L 112.662538 19.416216 
L 112.670988 20.874797 
L 112.91604 62.118027 
L 112.992091 51.596766 
L 113.169543 43.366669 
L 113.194893 45.671691 
L 113.355445 49.556798 
L 113.423046 49.688391 
L 113.592047 20.629028 
L 113.676548 19.409114 
L 113.684998 20.867658 
L 113.930051 62.111242 
L 114.006102 51.58991 
L 114.183553 43.360203 
L 114.208904 45.665212 
L 114.369455 49.550297 
L 114.437056 49.681889 
L 114.606058 20.623117 
L 114.690558 19.403228 
L 114.699009 20.861743 
L 114.944061 62.105615 
L 115.020112 51.584225 
L 115.197564 43.354849 
L 115.222914 45.659846 
L 115.383466 49.54491 
L 115.451066 49.676501 
L 115.620068 20.618207 
L 115.704569 19.398338 
L 115.713019 20.856829 
L 115.958071 62.100956 
L 116.034122 51.579514 
L 116.211574 43.350414 
L 116.236924 45.655401 
L 116.397476 49.54045 
L 116.465076 49.672041 
L 116.634078 20.61417 
L 116.718579 19.394318 
L 116.727029 20.852788 
L 116.972082 62.097115 
L 117.048132 51.575633 
L 117.225584 43.346751 
L 117.250934 45.651731 
L 117.411486 49.536767 
L 117.479087 49.668357 
L 117.648088 20.610821 
L 117.732589 19.390983 
L 117.741039 20.849436 
L 117.986092 62.093924 
L 118.062143 51.57241 
L 118.239594 43.343716 
L 118.264945 45.648689 
L 118.425496 49.533714 
L 118.493097 49.665303 
L 118.662099 20.608031 
L 118.7466 19.388204 
L 118.75505 20.846644 
L 119.000102 62.091281 
L 119.076153 51.569736 
L 119.253605 43.341201 
L 119.278955 45.646168 
L 119.439507 49.531184 
L 119.507107 49.662773 
L 119.676109 20.605748 
L 119.76061 19.385932 
L 119.76906 20.844359 
L 120.014112 62.089108 
L 120.090163 51.567541 
L 120.267615 43.339127 
L 120.292965 45.64409 
L 120.453517 49.529099 
L 120.521118 49.660688 
L 120.690119 20.603851 
L 120.77462 19.384043 
L 120.78307 20.842461 
L 121.028123 62.087297 
L 121.104174 51.565712 
L 121.281625 43.337406 
L 121.306976 45.642365 
L 121.467527 49.527367 
L 121.535128 49.658956 
L 121.70413 20.602263 
L 121.78863 19.38246 
L 121.797081 20.840871 
L 122.042133 62.085796 
L 122.118184 51.564193 
L 122.295636 43.335979 
L 122.320986 45.640935 
L 122.481537 49.525932 
L 122.549138 49.65752 
L 122.71814 20.600974 
L 122.802641 19.381178 
L 122.811091 20.839582 
L 123.056143 62.084569 
L 123.132194 51.562954 
L 123.309646 43.334805 
L 123.334996 45.639759 
L 123.495548 49.524752 
L 123.563148 49.65634 
L 123.73215 20.599901 
L 123.816651 19.380109 
L 123.825101 20.838507 
L 124.070154 62.083541 
L 124.146204 51.561916 
L 124.323656 43.333829 
L 124.349006 45.638781 
L 124.509558 49.52377 
L 124.577159 49.655358 
L 124.74616 20.598993 
L 124.830661 19.379204 
L 124.839111 20.837599 
L 125.084164 62.082688 
L 125.160215 51.561052 
L 125.337666 43.333019 
L 125.363017 45.637968 
L 125.523568 49.522954 
L 125.591169 49.654543 
L 125.760171 20.598269 
L 125.844672 19.378484 
L 125.853122 20.836874 
L 126.098174 62.081996 
L 126.174225 51.560354 
L 126.351677 43.332355 
L 126.377027 45.637304 
L 126.537579 49.522288 
L 126.605179 49.653876 
L 126.774181 20.597661 
L 126.858682 19.377879 
L 126.867132 20.836266 
L 127.112184 62.081412 
L 127.188235 51.559765 
L 127.365687 43.331802 
L 127.391037 45.636749 
L 127.551589 49.521731 
L 127.61919 49.653319 
L 127.788191 20.59714 
L 127.872692 19.377359 
L 127.881142 20.835744 
L 128.126195 62.080926 
L 128.202246 51.559271 
L 128.379697 43.331341 
L 128.405048 45.636287 
L 128.565599 49.521267 
L 128.6332 49.652855 
L 128.802202 20.596735 
L 128.886702 19.376956 
L 128.895153 20.835339 
L 129.140205 62.080538 
L 129.216256 51.55888 
L 129.393708 43.330967 
L 129.419058 45.635912 
L 129.579609 49.520892 
L 129.64721 49.65248 
L 129.816212 20.596392 
L 129.900713 19.376615 
L 129.909163 20.834996 
L 130.154215 62.080205 
L 130.230266 51.558545 
L 130.407718 43.330653 
L 130.433068 45.635598 
L 130.59362 49.520575 
L 130.66122 49.652163 
L 130.830222 20.59609 
L 130.914723 19.376313 
L 130.923173 20.834693 
L 131.168226 62.079927 
L 131.244276 51.558261 
L 131.421728 43.33039 
L 131.447078 45.635334 
L 131.60763 49.52031 
L 131.675231 49.651898 
L 131.844232 20.595866 
L 131.928733 19.376091 
L 131.937183 20.834469 
L 132.182236 62.079712 
L 132.258287 51.558045 
L 132.435738 43.33018 
L 132.461089 45.635124 
L 132.62164 49.5201 
L 132.689241 49.651688 
L 132.858243 20.595673 
L 132.942744 19.375899 
L 132.951194 20.834276 
L 133.196246 62.079521 
L 133.272297 51.557854 
L 133.449749 43.330002 
L 133.475099 45.634945 
L 133.635651 49.51992 
L 133.703251 49.651508 
L 133.872253 20.595494 
L 133.956754 19.37572 
L 133.965204 20.834097 
L 134.210256 62.079361 
L 134.286307 51.557689 
L 134.463759 43.329851 
L 134.489109 45.634794 
L 134.649661 49.519768 
L 134.717262 49.651356 
L 134.886263 20.595373 
L 134.970764 19.3756 
L 134.979214 20.833976 
L 135.224267 62.079243 
L 135.300317 51.557571 
L 135.477769 43.329733 
L 135.50312 45.634677 
L 135.663671 49.519651 
L 135.731272 49.651239 
L 135.900274 20.595265 
L 135.984774 19.375492 
L 135.993225 20.833867 
L 136.238277 62.079133 
L 136.314328 51.557462 
L 136.49178 43.329632 
L 136.51713 45.634575 
L 136.677681 49.519549 
L 136.745282 49.651136 
L 136.914284 20.595157 
L 136.998785 19.375384 
L 137.007235 20.833759 
L 137.252287 62.07904 
L 137.328338 51.557365 
L 137.50579 43.329545 
L 137.53114 45.634488 
L 137.691692 49.519461 
L 137.759292 49.651049 
L 137.928294 20.595094 
L 138.012795 19.375322 
L 138.021245 20.833696 
L 138.266298 62.078978 
L 138.342348 51.557303 
L 138.5198 43.329481 
L 138.54515 45.634423 
L 138.705702 49.519397 
L 138.773303 49.650985 
L 138.942304 20.595034 
L 139.026805 19.375262 
L 139.035255 20.833636 
L 139.280308 62.078913 
L 139.356359 51.55724 
L 139.53381 43.329423 
L 139.559161 45.634365 
L 139.719712 49.519338 
L 139.787313 49.650926 
L 139.956315 20.594965 
L 140.040816 19.375194 
L 140.049266 20.833568 
L 140.294318 62.078858 
L 140.370369 51.557181 
L 140.547821 43.329372 
L 140.573171 45.634314 
L 140.733723 49.519287 
L 140.801323 49.650875 
L 140.970325 20.594935 
L 141.054826 19.375164 
L 141.063276 20.833538 
L 141.308328 62.078827 
L 141.384379 51.557151 
L 141.561831 43.329337 
L 141.587181 45.63428 
L 141.747733 49.519253 
L 141.815334 49.650841 
L 141.984335 20.594903 
L 142.068836 19.375132 
L 142.077286 20.833505 
L 142.322339 62.078789 
L 142.398389 51.557114 
L 142.575841 43.329305 
L 142.601192 45.634246 
L 142.761743 49.519219 
L 142.829344 49.650807 
L 142.998346 20.594857 
L 143.082846 19.375086 
L 143.091296 20.83346 
L 143.336349 62.078755 
L 143.4124 51.557077 
L 143.589852 43.329274 
L 143.615202 45.634216 
L 143.775753 49.519188 
L 143.843354 49.650776 
L 144.012356 20.594846 
L 144.096857 19.375075 
L 144.105307 20.833448 
L 144.350359 62.078742 
L 144.42641 51.557064 
L 144.603862 43.329256 
L 144.629212 45.634198 
L 144.789764 49.519171 
L 144.857364 49.650759 
L 145.026366 20.594828 
L 145.110867 19.375058 
L 145.119317 20.833431 
L 145.36437 62.078718 
L 145.44042 51.557042 
L 145.617872 43.329237 
L 145.643222 45.634179 
L 145.803774 49.519151 
L 145.871375 49.650739 
L 146.040376 20.594796 
L 146.124877 19.375025 
L 146.133327 20.833398 
L 146.37838 62.078697 
L 146.454431 51.557018 
L 146.631882 43.329218 
L 146.657233 45.63416 
L 146.817784 49.519132 
L 146.885385 49.65072 
L 147.054387 20.594795 
L 147.138888 19.375024 
L 147.147338 20.833397 
L 147.39239 62.078693 
L 147.468441 51.557016 
L 147.645893 43.32921 
L 147.671243 45.634152 
L 147.831795 49.519125 
L 147.899395 49.650713 
L 148.068397 20.594786 
L 148.152898 19.375016 
L 148.161348 20.833389 
L 148.4064 62.078678 
L 148.482451 51.557002 
L 148.659903 43.329199 
L 148.685253 45.634141 
L 148.845805 49.519113 
L 148.913406 49.650701 
L 149.082407 20.594761 
L 149.166908 19.37499 
L 149.175358 20.833363 
L 149.420411 62.078664 
L 149.496461 51.556985 
L 149.673913 43.329187 
L 149.699263 45.634128 
L 149.859815 49.5191 
L 149.927416 49.650688 
L 150.096418 20.594766 
L 150.180918 19.374996 
L 150.189368 20.833368 
L 150.434421 62.078666 
L 150.510472 51.556988 
L 150.687924 43.329184 
L 150.713274 45.634126 
L 150.873825 49.519099 
L 150.941426 49.650686 
L 151.110428 20.594762 
L 151.194929 19.374992 
L 151.203379 20.833365 
L 151.448431 62.078655 
L 151.524482 51.556979 
L 151.701934 43.329178 
L 151.727284 45.634119 
L 151.887836 49.519091 
L 151.955436 49.650679 
L 152.124438 20.594741 
L 152.208939 19.37497 
L 152.217389 20.833343 
L 152.462442 62.078645 
L 152.538492 51.556966 
L 152.715944 43.329169 
L 152.741294 45.63411 
L 152.901846 49.519082 
L 152.969447 49.65067 
L 153.138448 20.59475 
L 153.222949 19.374979 
L 153.231399 20.833352 
L 153.476452 62.07865 
L 153.552503 51.556972 
L 153.729954 43.329169 
L 153.755305 45.634111 
L 153.915856 49.519084 
L 153.983457 49.650672 
L 154.152459 20.594749 
L 154.23696 19.374979 
L 154.24541 20.833351 
L 154.490462 62.078643 
L 154.566513 51.556966 
L 154.743965 43.329165 
L 154.769315 45.634107 
L 154.929867 49.519079 
L 154.997467 49.650667 
L 155.166469 20.59473 
L 155.25097 19.374959 
L 155.25942 20.833332 
L 155.504472 62.078634 
L 155.580523 51.556955 
L 155.757975 43.329159 
L 155.783325 45.6341 
L 155.943877 49.519072 
L 156.011478 49.65066 
L 156.180479 20.59474 
L 156.26498 19.37497 
L 156.27343 20.833343 
L 156.518483 62.078642 
L 156.594533 51.556963 
L 156.771985 43.329161 
L 156.797335 45.634103 
L 156.957887 49.519075 
L 157.025488 49.650663 
L 157.194489 20.594741 
L 157.27899 19.374971 
L 157.28744 20.833343 
L 157.532493 62.078635 
L 157.608544 51.556959 
L 157.785995 43.329158 
L 157.811346 45.6341 
L 157.971897 49.519072 
L 158.039498 49.65066 
L 158.2085 20.594724 
L 158.293001 19.374953 
L 158.301451 20.833326 
L 158.546503 62.078628 
L 158.622554 51.556949 
L 158.800006 43.329153 
L 158.825356 45.634094 
L 158.985908 49.519067 
L 159.053508 49.650654 
L 159.22251 20.594735 
L 159.307011 19.374965 
L 159.315461 20.833337 
L 159.560513 62.078637 
L 159.636564 51.556958 
L 159.814016 43.329156 
L 159.839366 45.634098 
L 159.999918 49.519071 
L 160.067519 49.650658 
L 160.23652 20.594737 
L 160.321021 19.374967 
L 160.329471 20.833339 
L 160.574524 62.078631 
L 160.650575 51.556955 
L 160.828026 43.329155 
L 160.853377 45.634096 
L 161.013928 49.519068 
L 161.081529 49.650656 
L 161.250531 20.59472 
L 161.335031 19.374949 
L 161.343482 20.833322 
L 161.588534 62.078625 
L 161.664585 51.556945 
L 161.842037 43.32915 
L 161.867387 45.634091 
L 162.027939 49.519063 
L 162.095539 49.650651 
L 162.264541 20.594732 
L 162.349042 19.374962 
L 162.357492 20.833334 
L 162.602544 62.078634 
L 162.678595 51.556955 
L 162.856047 43.329153 
L 162.881397 45.634095 
L 163.041949 49.519068 
L 163.109549 49.650656 
L 163.278551 20.594734 
L 163.363052 19.374964 
L 163.371502 20.833337 
L 163.616555 62.078629 
L 163.692605 51.556952 
L 163.870057 43.329152 
L 163.895407 45.634094 
L 164.055959 49.519066 
L 164.12356 49.650653 
L 164.292561 20.594718 
L 164.377062 19.374947 
L 164.385512 20.83332 
L 164.630565 62.078623 
L 164.706616 51.556943 
L 164.884067 43.329148 
L 164.909418 45.634089 
L 165.069969 49.519061 
L 165.13757 49.650649 
L 165.306572 20.59473 
L 165.391073 19.37496 
L 165.399523 20.833333 
L 165.644575 62.078632 
L 165.720626 51.556954 
L 165.898078 43.329152 
L 165.923428 45.634094 
L 166.08398 49.519066 
L 166.15158 49.650654 
L 166.320582 20.594733 
L 166.405083 19.374963 
L 166.413533 20.833335 
L 166.658585 62.078627 
L 166.734636 51.556951 
L 166.912088 43.329151 
L 166.937438 45.634092 
L 167.09799 49.519064 
L 167.165591 49.650652 
L 167.334592 20.594717 
L 167.419093 19.374946 
L 167.427543 20.833319 
L 167.672596 62.078622 
L 167.748647 51.556942 
L 167.926098 43.329147 
L 167.951449 45.634088 
L 168.112 49.51906 
L 168.179601 49.650648 
L 168.348603 20.594729 
L 168.433103 19.374959 
L 168.441554 20.833332 
L 168.686606 62.078631 
L 168.762657 51.556953 
L 168.940109 43.329151 
L 168.965459 45.634093 
L 169.12601 49.519065 
L 169.193611 49.650653 
L 169.362613 20.594732 
L 169.447114 19.374962 
L 169.455564 20.833334 
L 169.700616 62.078627 
L 169.776667 51.55695 
L 169.954119 43.32915 
L 169.979469 45.634092 
L 170.140021 49.519064 
L 170.207621 49.650651 
L 170.376623 20.594716 
L 170.461124 19.374945 
L 170.469574 20.833318 
L 170.714627 62.078621 
L 170.790677 51.556942 
L 170.968129 43.329146 
L 170.993479 45.634088 
L 171.154031 49.51906 
L 171.221632 49.650648 
L 171.390633 20.594729 
L 171.475134 19.374959 
L 171.483584 20.833331 
L 171.728637 62.078631 
L 171.804688 51.556952 
L 171.982139 43.32915 
L 172.00749 45.634092 
L 172.168041 49.519065 
L 172.235642 49.650653 
L 172.404644 20.594732 
L 172.489145 19.374962 
L 172.497595 20.833334 
L 172.742647 62.078626 
L 172.818698 51.55695 
L 172.99615 43.32915 
L 173.0215 45.634091 
L 173.182052 49.519063 
L 173.249652 49.650651 
L 173.418654 20.594716 
L 173.503155 19.374945 
L 173.511605 20.833318 
L 173.756657 62.078621 
L 173.832708 51.556941 
L 174.01016 43.329146 
L 174.03551 45.634087 
L 174.196062 49.519059 
L 174.263663 49.650647 
L 174.432664 20.594729 
L 174.517165 19.374959 
L 174.525615 20.833331 
L 174.770668 62.07863 
L 174.846718 51.556952 
L 175.02417 43.32915 
L 175.049521 45.634092 
L 175.210072 49.519065 
L 175.277673 49.650652 
L 175.446675 20.594732 
L 175.531175 19.374961 
L 175.539626 20.833334 
L 175.784678 62.078626 
L 175.860729 51.556949 
L 176.038181 43.32915 
L 176.063531 45.634091 
L 176.224082 49.519063 
L 176.291683 49.650651 
L 176.460685 20.594715 
L 176.545186 19.374945 
L 176.553636 20.833318 
L 176.798688 62.078621 
L 176.874739 51.556941 
L 177.052191 43.329146 
L 177.077541 45.634087 
L 177.238093 49.519059 
L 177.305693 49.650647 
L 177.474695 20.594728 
L 177.559196 19.374958 
L 177.567646 20.833331 
L 177.812699 62.07863 
L 177.888749 51.556952 
L 178.066201 43.32915 
L 178.091551 45.634092 
L 178.252103 49.519064 
L 178.319704 49.650652 
L 178.488705 20.594731 
L 178.573206 19.374961 
L 178.581656 20.833334 
L 178.826709 62.078626 
L 178.90276 51.556949 
L 179.080211 43.32915 
L 179.105562 45.634091 
L 179.266113 49.519063 
L 179.333714 49.650651 
L 179.502716 20.594715 
L 179.587217 19.374945 
L 179.595667 20.833318 
L 179.840719 62.07862 
L 179.91677 51.556941 
L 180.094222 43.329146 
L 180.119572 45.634087 
L 180.280124 49.519059 
L 180.347724 49.650647 
L 180.516726 20.594728 
L 180.601227 19.374958 
L 180.609677 20.833331 
L 180.854729 62.07863 
L 180.93078 51.556952 
L 181.108232 43.32915 
L 181.133582 45.634092 
L 181.294134 49.519064 
L 181.361735 49.650652 
L 181.530736 20.594731 
L 181.615237 19.374961 
L 181.623687 20.833334 
L 181.86874 62.078626 
L 181.94479 51.556949 
L 182.122242 43.329149 
L 182.147593 45.634091 
L 182.308144 49.519063 
L 182.375745 49.650651 
L 182.544747 20.594715 
L 182.629247 19.374945 
L 182.637698 20.833318 
L 182.88275 62.07862 
L 182.958801 51.556941 
L 183.136253 43.329146 
L 183.161603 45.634087 
L 183.322154 49.519059 
L 183.389755 49.650647 
L 183.558757 20.594728 
L 183.643258 19.374958 
L 183.651708 20.83333 
L 183.89676 62.07863 
L 183.972811 51.556952 
L 184.150263 43.32915 
L 184.175613 45.634092 
L 184.336165 49.519064 
L 184.403765 49.650652 
L 184.572767 20.594731 
L 184.657268 19.374961 
L 184.665718 20.833334 
L 184.910771 62.078626 
L 184.986821 51.556949 
L 185.164273 43.329149 
L 185.189623 45.634091 
L 185.350175 49.519063 
L 185.417776 49.650651 
L 185.586777 20.594715 
L 185.671278 19.374945 
L 185.679728 20.833318 
L 185.924781 62.07862 
L 186.000832 51.556941 
L 186.178283 43.329145 
L 186.203634 45.634087 
L 186.364185 49.519059 
L 186.431786 49.650647 
L 186.600788 20.594728 
L 186.685289 19.374958 
L 186.693739 20.83333 
L 186.938791 62.07863 
L 187.014842 51.556952 
L 187.192294 43.32915 
L 187.217644 45.634092 
L 187.378196 49.519064 
L 187.445796 49.650652 
L 187.614798 20.594731 
L 187.699299 19.374961 
L 187.707749 20.833333 
L 187.952801 62.078626 
L 188.028852 51.556949 
L 188.206304 43.329149 
L 188.231654 45.634091 
L 188.392206 49.519063 
L 188.459807 49.65065 
L 188.628808 20.594715 
L 188.713309 19.374944 
L 188.721759 20.833318 
L 188.966812 62.07862 
L 189.042862 51.556941 
L 189.220314 43.329145 
L 189.245665 45.634087 
L 189.406216 49.519059 
L 189.473817 49.650647 
L 189.642819 20.594728 
L 189.727319 19.374958 
L 189.735769 20.83333 
L 189.980822 62.07863 
L 190.056873 51.556952 
L 190.234325 43.32915 
L 190.259675 45.634092 
L 190.420226 49.519064 
L 190.487827 49.650652 
L 190.656829 20.594731 
L 190.74133 19.374961 
L 190.74978 20.833333 
L 190.994832 62.078626 
L 191.070883 51.556949 
L 191.248335 43.329149 
L 191.273685 45.634091 
L 191.434237 49.519063 
L 191.501837 49.65065 
L 191.670839 20.594715 
L 191.75534 19.374944 
L 191.76379 20.833318 
L 192.008843 62.07862 
L 192.084893 51.556941 
L 192.262345 43.329145 
L 192.287695 45.634087 
L 192.448247 49.519059 
L 192.515848 49.650647 
L 192.684849 20.594728 
L 192.76935 19.374958 
L 192.7778 20.83333 
L 193.022853 62.07863 
L 193.098904 51.556952 
L 193.276355 43.32915 
L 193.301706 45.634092 
L 193.462257 49.519064 
L 193.529858 49.650652 
L 193.69886 20.594731 
L 193.783361 19.374961 
L 193.791811 20.833333 
L 194.036863 62.078626 
L 194.112914 51.556949 
L 194.290366 43.329149 
L 194.315716 45.634091 
L 194.476268 49.519063 
L 194.543868 49.65065 
L 194.71287 20.594715 
L 194.797371 19.374944 
L 194.805821 20.833318 
L 195.050873 62.07862 
L 195.126924 51.556941 
L 195.304376 43.329145 
L 195.329726 45.634087 
L 195.490278 49.519059 
L 195.557879 49.650647 
L 195.72688 20.594728 
L 195.811381 19.374958 
L 195.819831 20.83333 
L 196.064884 62.07863 
L 196.140934 51.556952 
L 196.318386 43.32915 
L 196.343736 45.634092 
L 196.504288 49.519064 
L 196.571889 49.650652 
L 196.740891 20.594731 
L 196.825391 19.374961 
L 196.833841 20.833333 
L 197.078894 62.078626 
L 197.154945 51.556949 
L 197.332397 43.329149 
L 197.357747 45.634091 
L 197.518298 49.519063 
L 197.585899 49.65065 
L 197.754901 20.594715 
L 197.839402 19.374944 
L 197.847852 20.833318 
L 198.092904 62.07862 
L 198.168955 51.556941 
L 198.346407 43.329145 
L 198.371757 45.634087 
L 198.532309 49.519059 
L 198.599909 49.650647 
L 198.768911 20.594728 
L 198.853412 19.374958 
L 198.861862 20.83333 
L 199.106915 62.07863 
L 199.182965 51.556952 
L 199.360417 43.32915 
L 199.385767 45.634092 
L 199.546319 49.519064 
L 199.61392 49.650652 
L 199.782921 20.594731 
L 199.867422 19.374961 
L 199.875872 20.833333 
L 200.120925 62.078626 
L 200.196976 51.556949 
L 200.374427 43.329149 
L 200.399778 45.634091 
L 200.560329 49.519063 
L 200.62793 49.65065 
L 200.796932 20.594715 
L 200.881432 19.374944 
L 200.889883 20.833318 
L 201.134935 62.07862 
L 201.210986 51.556941 
L 201.388438 43.329145 
L 201.413788 45.634087 
L 201.57434 49.519059 
L 201.64194 49.650647 
L 201.810942 20.594728 
L 201.895443 19.374958 
L 201.903893 20.83333 
L 202.148945 62.07863 
L 202.224996 51.556952 
L 202.402448 43.32915 
L 202.427798 45.634092 
L 202.58835 49.519064 
L 202.65595 49.650652 
L 202.824952 20.594731 
L 202.909453 19.374961 
L 202.917903 20.833333 
L 203.162956 62.078626 
L 203.239006 51.556949 
L 203.416458 43.329149 
L 203.441808 45.634091 
L 203.60236 49.519063 
L 203.669961 49.65065 
L 203.838962 20.594715 
L 203.923463 19.374944 
L 203.931913 20.833318 
L 204.176966 62.07862 
L 204.253017 51.556941 
L 204.430468 43.329145 
L 204.455819 45.634087 
L 204.61637 49.519059 
L 204.683971 49.650647 
L 204.852973 20.594728 
L 204.937474 19.374958 
L 204.945924 20.83333 
L 205.190976 62.07863 
L 205.267027 51.556952 
L 205.444479 43.32915 
L 205.469829 45.634092 
L 205.630381 49.519064 
L 205.697981 49.650652 
L 205.866983 20.594731 
L 205.951484 19.374961 
L 205.959934 20.833333 
L 206.204986 62.078626 
L 206.281037 51.556949 
L 206.458489 43.329149 
L 206.483839 45.634091 
L 206.644391 49.519063 
L 206.711992 49.65065 
L 206.880993 20.594715 
L 206.965494 19.374944 
L 206.973944 20.833318 
L 207.218997 62.07862 
L 207.295048 51.556941 
L 207.472499 43.329145 
L 207.49785 45.634087 
L 207.658401 49.519059 
L 207.726002 49.650647 
L 207.895004 20.594728 
L 207.979504 19.374958 
L 207.987955 20.83333 
L 208.233007 62.07863 
L 208.309058 51.556952 
L 208.48651 43.32915 
L 208.51186 45.634092 
L 208.672412 49.519064 
L 208.740012 49.650652 
L 208.909014 20.594731 
L 208.993515 19.374961 
L 209.001965 20.833333 
L 209.247017 62.078626 
L 209.323068 51.556949 
L 209.50052 43.329149 
L 209.52587 45.634091 
L 209.686422 49.519063 
L 209.754022 49.65065 
L 209.923024 20.594715 
L 210.007525 19.374944 
L 210.015975 20.833318 
L 210.261028 62.07862 
L 210.337078 51.556941 
L 210.51453 43.329145 
L 210.53988 45.634087 
L 210.700432 49.519059 
L 210.768033 49.650647 
L 210.937034 20.594728 
L 211.021535 19.374958 
L 211.029985 20.83333 
L 211.275038 62.07863 
L 211.351089 51.556952 
L 211.52854 43.32915 
L 211.553891 45.634092 
L 211.714442 49.519064 
L 211.782043 49.650652 
L 211.951045 20.594731 
L 212.035546 19.374961 
L 212.043996 20.833333 
L 212.289048 62.078626 
L 212.365099 51.556949 
L 212.542551 43.329149 
L 212.567901 45.634091 
L 212.728453 49.519063 
L 212.796053 49.65065 
L 212.965055 20.594715 
L 213.049556 19.374944 
L 213.058006 20.833318 
L 213.303058 62.07862 
L 213.379109 51.556941 
L 213.556561 43.329145 
L 213.581911 45.634087 
L 213.742463 49.519059 
L 213.810064 49.650647 
L 213.979065 20.594728 
L 214.063566 19.374958 
L 214.072016 20.83333 
L 214.317069 62.07863 
L 214.39312 51.556952 
L 214.570571 43.32915 
L 214.595922 45.634092 
L 214.756473 49.519064 
L 214.824074 49.650652 
L 214.993076 20.594731 
L 215.077576 19.374961 
L 215.086027 20.833333 
L 215.331079 62.078626 
L 215.40713 51.556949 
L 215.584582 43.329149 
L 215.609932 45.634091 
L 215.770483 49.519063 
L 215.838084 49.65065 
L 216.007086 20.594715 
L 216.091587 19.374944 
L 216.100037 20.833318 
L 216.345089 62.07862 
L 216.42114 51.556941 
L 216.598592 43.329145 
L 216.623942 45.634087 
L 216.784494 49.519059 
L 216.852094 49.650647 
L 217.021096 20.594728 
L 217.105597 19.374958 
L 217.114047 20.83333 
L 217.3591 62.07863 
L 217.43515 51.556952 
L 217.612602 43.32915 
L 217.637952 45.634092 
L 217.798504 49.519064 
L 217.866105 49.650652 
L 218.035106 20.594731 
L 218.119607 19.374961 
L 218.128057 20.833333 
L 218.37311 62.078626 
L 218.449161 51.556949 
L 218.626612 43.329149 
L 218.651963 45.634091 
L 218.812514 49.519063 
L 218.880115 49.65065 
L 219.049117 20.594715 
L 219.133618 19.374944 
L 219.142068 20.833318 
L 219.38712 62.07862 
L 219.463171 51.556941 
L 219.640623 43.329145 
L 219.665973 45.634087 
L 219.826525 49.519059 
L 219.894125 49.650647 
L 220.063127 20.594728 
L 220.147628 19.374958 
L 220.156078 20.83333 
L 220.40113 62.07863 
L 220.477181 51.556952 
L 220.654633 43.32915 
L 220.679983 45.634092 
L 220.840535 49.519064 
L 220.908136 49.650652 
L 221.077137 20.594731 
L 221.161638 19.374961 
L 221.170088 20.833333 
L 221.415141 62.078626 
L 221.491191 51.556949 
L 221.668643 43.329149 
L 221.693994 45.634091 
L 221.854545 49.519063 
L 221.922146 49.65065 
L 222.091148 20.594715 
L 222.175648 19.374944 
L 222.184099 20.833318 
L 222.429151 62.07862 
L 222.505202 51.556941 
L 222.682654 43.329145 
L 222.708004 45.634087 
L 222.868555 49.519059 
L 222.936156 49.650647 
L 223.105158 20.594728 
L 223.189659 19.374958 
L 223.198109 20.83333 
L 223.443161 62.07863 
L 223.519212 51.556952 
L 223.696664 43.32915 
L 223.722014 45.634092 
L 223.882566 49.519064 
L 223.950166 49.650652 
L 224.119168 20.594731 
L 224.203669 19.374961 
L 224.212119 20.833333 
L 224.457172 62.078626 
L 224.533222 51.556949 
L 224.710674 43.329149 
L 224.736024 45.634091 
L 224.896576 49.519063 
L 224.964177 49.65065 
L 225.133178 20.594715 
L 225.217679 19.374944 
L 225.226129 20.833318 
L 225.471182 62.07862 
L 225.547233 51.556941 
L 225.724684 43.329145 
L 225.750035 45.634087 
L 225.910586 49.519059 
L 225.978187 49.650647 
L 226.147189 20.594728 
L 226.23169 19.374958 
L 226.24014 20.83333 
L 226.485192 62.07863 
L 226.561243 51.556952 
L 226.738695 43.32915 
L 226.764045 45.634092 
L 226.924597 49.519064 
L 226.992197 49.650652 
L 227.161199 20.594731 
L 227.2457 19.374961 
L 227.25415 20.833333 
L 227.499202 62.078626 
L 227.575253 51.556949 
L 227.752705 43.329149 
L 227.778055 45.634091 
L 227.938607 49.519063 
L 228.006208 49.65065 
L 228.175209 20.594715 
L 228.25971 19.374944 
L 228.26816 20.833318 
L 228.513213 62.07862 
L 228.589263 51.556941 
L 228.766715 43.329145 
L 228.792066 45.634087 
L 228.952617 49.519059 
L 229.020218 49.650647 
L 229.18922 20.594728 
L 229.27372 19.374958 
L 229.28217 20.83333 
L 229.527223 62.07863 
L 229.603274 51.556952 
L 229.780726 43.32915 
L 229.806076 45.634092 
L 229.966627 49.519064 
L 230.034228 49.650652 
L 230.20323 20.594731 
L 230.287731 19.374961 
L 230.296181 20.833333 
L 230.541233 62.078626 
L 230.617284 51.556949 
L 230.794736 43.329149 
L 230.820086 45.634091 
L 230.980638 49.519063 
L 231.048238 49.65065 
L 231.21724 20.594715 
L 231.301741 19.374944 
L 231.310191 20.833318 
L 231.555244 62.07862 
L 231.631294 51.556941 
L 231.808746 43.329145 
L 231.834096 45.634087 
L 231.994648 49.519059 
L 232.062249 49.650647 
L 232.23125 20.594728 
L 232.315751 19.374958 
L 232.324201 20.83333 
L 232.569254 62.07863 
L 232.645305 51.556952 
L 232.822756 43.32915 
L 232.848107 45.634092 
L 233.008658 49.519064 
L 233.076259 49.650652 
L 233.245261 20.594731 
L 233.329762 19.374961 
L 233.338212 20.833333 
L 233.583264 62.078626 
L 233.659315 51.556949 
L 233.836767 43.329149 
L 233.862117 45.634091 
L 234.022669 49.519063 
L 234.090269 49.65065 
L 234.259271 20.594715 
L 234.343772 19.374944 
L 234.352222 20.833318 
L 234.597274 62.07862 
L 234.673325 51.556941 
L 234.850777 43.329145 
L 234.876127 45.634087 
L 235.036679 49.519059 
L 235.10428 49.650647 
L 235.273281 20.594728 
L 235.357782 19.374958 
L 235.366232 20.83333 
L 235.611285 62.07863 
L 235.687335 51.556952 
L 235.864787 43.32915 
L 235.890138 45.634092 
L 236.050689 49.519064 
L 236.11829 49.650652 
L 236.287292 20.594731 
L 236.371792 19.374961 
L 236.380242 20.833333 
L 236.625295 62.078626 
L 236.701346 51.556949 
L 236.878798 43.329149 
L 236.904148 45.634091 
L 237.064699 49.519063 
L 237.1323 49.65065 
L 237.301302 20.594715 
L 237.385803 19.374944 
L 237.394253 20.833318 
L 237.639305 62.07862 
L 237.715356 51.556941 
L 237.892808 43.329145 
L 237.918158 45.634087 
L 238.07871 49.519059 
L 238.14631 49.650647 
L 238.315312 20.594728 
L 238.399813 19.374958 
L 238.408263 20.83333 
L 238.653316 62.07863 
L 238.729366 51.556952 
L 238.906818 43.32915 
L 238.932168 45.634092 
L 239.09272 49.519064 
L 239.160321 49.650652 
L 239.329322 20.594731 
L 239.413823 19.374961 
L 239.422273 20.833333 
L 239.667326 62.078626 
L 239.743377 51.556949 
L 239.920828 43.329149 
L 239.946179 45.634091 
L 240.10673 49.519063 
L 240.174331 49.65065 
L 240.343333 20.594715 
L 240.427834 19.374944 
L 240.436284 20.833318 
L 240.681336 62.07862 
L 240.757387 51.556941 
L 240.934839 43.329145 
L 240.960189 45.634087 
L 241.120741 49.519059 
L 241.188341 49.650647 
L 241.357343 20.594728 
L 241.441844 19.374958 
L 241.450294 20.83333 
L 241.695346 62.07863 
L 241.771397 51.556952 
L 241.948849 43.32915 
L 241.974199 45.634092 
L 242.134751 49.519064 
L 242.202352 49.650652 
L 242.371353 20.594731 
L 242.455854 19.374961 
L 242.464304 20.833333 
L 242.709357 62.078626 
L 242.785407 51.556949 
L 242.962859 43.329149 
L 242.988209 45.634091 
L 243.148761 49.519063 
L 243.216362 49.65065 
L 243.385364 20.594715 
L 243.469864 19.374944 
L 243.478314 20.833318 
L 243.723367 62.07862 
L 243.799418 51.556941 
L 243.97687 43.329145 
L 244.00222 45.634087 
L 244.162771 49.519059 
L 244.230372 49.650647 
L 244.399374 20.594728 
L 244.483875 19.374958 
L 244.492325 20.83333 
L 244.737377 62.07863 
L 244.813428 51.556952 
L 244.99088 43.32915 
L 245.01623 45.634092 
L 245.176782 49.519064 
L 245.244382 49.650652 
L 245.413384 20.594731 
L 245.497885 19.374961 
L 245.506335 20.833333 
L 245.751387 62.078626 
L 245.827438 51.556949 
L 246.00489 43.329149 
L 246.03024 45.634091 
L 246.190792 49.519063 
L 246.258393 49.65065 
L 246.427394 20.594715 
L 246.511895 19.374944 
L 246.520345 20.833318 
L 246.765398 62.07862 
L 246.841449 51.556941 
L 247.0189 43.329145 
L 247.044251 45.634087 
L 247.204802 49.519059 
L 247.272403 49.650647 
L 247.441405 20.594728 
L 247.525905 19.374958 
L 247.534356 20.83333 
L 247.779408 62.07863 
L 247.855459 51.556952 
L 248.032911 43.32915 
L 248.058261 45.634092 
L 248.218813 49.519064 
L 248.286413 49.650652 
L 248.455415 20.594731 
L 248.539916 19.374961 
L 248.548366 20.833333 
L 248.793418 62.078626 
L 248.869469 51.556949 
L 249.046921 43.329149 
L 249.072271 45.634091 
L 249.232823 49.519063 
L 249.300423 49.65065 
L 249.469425 20.594715 
L 249.553926 19.374944 
L 249.562376 20.833318 
L 249.807429 62.07862 
L 249.883479 51.556941 
L 250.060931 43.329145 
L 250.086281 45.634087 
L 250.246833 49.519059 
L 250.314434 49.650647 
L 250.483435 20.594728 
L 250.567936 19.374958 
L 250.576386 20.83333 
L 250.821439 62.07863 
L 250.89749 51.556952 
L 251.074941 43.32915 
L 251.100292 45.634092 
L 251.260843 49.519064 
L 251.328444 49.650652 
L 251.497446 20.594731 
L 251.581947 19.374961 
L 251.590397 20.833333 
L 251.835449 62.078626 
L 251.9115 51.556949 
L 252.088952 43.329149 
L 252.114302 45.634091 
L 252.274854 49.519063 
L 252.342454 49.65065 
L 252.511456 20.594715 
L 252.595957 19.374944 
L 252.604407 20.833318 
L 252.849459 62.07862 
L 252.92551 51.556941 
L 253.102962 43.329145 
L 253.128312 45.634087 
L 253.288864 49.519059 
L 253.356465 49.650647 
L 253.525466 20.594728 
L 253.609967 19.374958 
L 253.618417 20.83333 
L 253.86347 62.07863 
L 253.939521 51.556952 
L 254.116972 43.32915 
L 254.142323 45.634092 
L 254.302874 49.519064 
L 254.370475 49.650652 
L 254.539477 20.594731 
L 254.623977 19.374961 
L 254.632428 20.833333 
L 254.87748 62.078626 
L 254.953531 51.556949 
L 255.130983 43.329149 
L 255.156333 45.634091 
L 255.316884 49.519063 
L 255.384485 49.65065 
L 255.553487 20.594715 
L 255.637988 19.374944 
L 255.646438 20.833318 
L 255.89149 62.07862 
L 255.967541 51.556941 
L 256.144993 43.329145 
L 256.170343 45.634087 
L 256.330895 49.519059 
L 256.398495 49.650647 
L 256.567497 20.594728 
L 256.651998 19.374958 
L 256.660448 20.83333 
L 256.905501 62.07863 
L 256.981551 51.556952 
L 257.159003 43.32915 
L 257.184353 45.634092 
L 257.344905 49.519064 
L 257.412506 49.650652 
L 257.581507 20.594731 
L 257.666008 19.374961 
L 257.674458 20.833333 
L 257.919511 62.078626 
L 257.995562 51.556949 
L 258.173013 43.329149 
L 258.198364 45.634091 
L 258.358915 49.519063 
L 258.426516 49.65065 
L 258.595518 20.594715 
L 258.680019 19.374944 
L 258.688469 20.833318 
L 258.933521 62.07862 
L 259.009572 51.556941 
L 259.187024 43.329145 
L 259.212374 45.634087 
L 259.372926 49.519059 
L 259.440526 49.650647 
L 259.609528 20.594728 
L 259.694029 19.374958 
L 259.702479 20.83333 
L 259.947531 62.07863 
L 260.023582 51.556952 
L 260.201034 43.32915 
L 260.226384 45.634092 
L 260.386936 49.519064 
L 260.454537 49.650652 
L 260.623538 20.594731 
L 260.708039 19.374961 
L 260.716489 20.833333 
L 260.961542 62.078626 
L 261.037593 51.556949 
L 261.215044 43.329149 
L 261.240395 45.634091 
L 261.400946 49.519063 
L 261.468547 49.65065 
L 261.637549 20.594715 
L 261.722049 19.374944 
L 261.7305 20.833318 
L 261.975552 62.07862 
L 262.051603 51.556941 
L 262.229055 43.329145 
L 262.254405 45.634087 
L 262.414956 49.519059 
L 262.482557 49.650647 
L 262.651559 20.594728 
L 262.73606 19.374958 
L 262.74451 20.83333 
L 262.989562 62.07863 
L 263.065613 51.556952 
L 263.243065 43.32915 
L 263.268415 45.634092 
L 263.428967 49.519064 
L 263.496567 49.650652 
L 263.665569 20.594731 
L 263.75007 19.374961 
L 263.75852 20.833333 
L 264.003573 62.078626 
L 264.079623 51.556949 
L 264.257075 43.329149 
L 264.282425 45.634091 
L 264.442977 49.519063 
L 264.510578 49.65065 
L 264.679579 20.594715 
L 264.76408 19.374944 
L 264.77253 20.833318 
L 265.017583 62.07862 
L 265.093634 51.556941 
L 265.271085 43.329145 
L 265.296436 45.634087 
L 265.456987 49.519059 
L 265.524588 49.650647 
L 265.69359 20.594728 
L 265.778091 19.374958 
L 265.786541 20.83333 
L 266.031593 62.07863 
L 266.107644 51.556952 
L 266.285096 43.32915 
L 266.310446 45.634092 
L 266.470998 49.519064 
L 266.538598 49.650652 
L 266.7076 20.594731 
L 266.792101 19.374961 
L 266.800551 20.833333 
L 267.045603 62.078626 
L 267.121654 51.556949 
L 267.299106 43.329149 
L 267.324456 45.634091 
L 267.485008 49.519063 
L 267.552609 49.65065 
L 267.72161 20.594715 
L 267.806111 19.374944 
L 267.814561 20.833318 
L 268.059614 62.07862 
L 268.135664 51.556941 
L 268.313116 43.329145 
L 268.338467 45.634087 
L 268.499018 49.519059 
L 268.566619 49.650647 
L 268.735621 20.594728 
L 268.820121 19.374958 
L 268.828572 20.83333 
L 269.073624 62.07863 
L 269.149675 51.556952 
L 269.327127 43.32915 
L 269.352477 45.634092 
L 269.513028 49.519064 
L 269.580629 49.650652 
L 269.749631 20.594731 
L 269.834132 19.374961 
L 269.842582 20.833333 
L 270.087634 62.078626 
L 270.163685 51.556949 
L 270.341137 43.329149 
L 270.366487 45.634091 
L 270.527039 49.519063 
L 270.594639 49.65065 
L 270.763641 20.594715 
L 270.848142 19.374944 
L 270.856592 20.833318 
L 271.101645 62.07862 
L 271.177695 51.556941 
L 271.355147 43.329145 
L 271.380497 45.634087 
L 271.541049 49.519059 
L 271.60865 49.650647 
L 271.777651 20.594728 
L 271.862152 19.374958 
L 271.870602 20.83333 
L 272.115655 62.07863 
L 272.191706 51.556952 
L 272.369157 43.32915 
L 272.394508 45.634092 
L 272.555059 49.519064 
L 272.62266 49.650652 
L 272.791662 20.594731 
L 272.876163 19.374961 
L 272.884613 20.833333 
L 273.129665 62.078626 
L 273.205716 51.556949 
L 273.383168 43.329149 
L 273.408518 45.634091 
L 273.56907 49.519063 
L 273.63667 49.65065 
L 273.805672 20.594715 
L 273.890173 19.374944 
L 273.898623 20.833318 
L 274.143675 62.07862 
L 274.219726 51.556941 
L 274.397178 43.329145 
L 274.422528 45.634087 
L 274.58308 49.519059 
L 274.650681 49.650647 
L 274.819682 20.594728 
L 274.904183 19.374958 
L 274.912633 20.83333 
L 275.157686 62.07863 
L 275.233736 51.556952 
L 275.411188 43.32915 
L 275.436539 45.634092 
L 275.59709 49.519064 
L 275.664691 49.650652 
L 275.833693 20.594731 
L 275.918193 19.374961 
L 275.926643 20.833333 
L 276.171696 62.078626 
L 276.247747 51.556949 
L 276.425199 43.329149 
L 276.450549 45.634091 
L 276.6111 49.519063 
L 276.678701 49.65065 
L 276.847703 20.594715 
L 276.932204 19.374944 
L 276.940654 20.833318 
L 277.185706 62.07862 
L 277.261757 51.556941 
L 277.439209 43.329145 
L 277.464559 45.634087 
L 277.625111 49.519059 
L 277.692711 49.650647 
L 277.861713 20.594728 
L 277.946214 19.374958 
L 277.954664 20.83333 
L 278.199717 62.07863 
L 278.275767 51.556952 
L 278.453219 43.32915 
L 278.478569 45.634092 
L 278.639121 49.519064 
L 278.706722 49.650652 
L 278.875723 20.594731 
L 278.960224 19.374961 
L 278.968674 20.833333 
L 279.213727 62.078626 
L 279.289778 51.556949 
L 279.467229 43.329149 
L 279.49258 45.634091 
L 279.653131 49.519063 
L 279.720732 49.65065 
L 279.889734 20.594715 
L 279.974235 19.374944 
L 279.982685 20.833318 
L 280.227737 62.07862 
L 280.303788 51.556941 
L 280.48124 43.329145 
L 280.50659 45.634087 
L 280.667142 49.519059 
L 280.734742 49.650647 
L 280.903744 20.594728 
L 280.988245 19.374958 
L 280.996695 20.83333 
L 281.241747 62.07863 
L 281.317798 51.556952 
L 281.49525 43.32915 
L 281.5206 45.634092 
L 281.681152 49.519064 
L 281.748753 49.650652 
L 281.917754 20.594731 
L 282.002255 19.374961 
L 282.010705 20.833333 
L 282.255758 62.078626 
L 282.331808 51.556949 
L 282.50926 43.329149 
L 282.53461 45.634091 
L 282.695162 49.519063 
L 282.762763 49.65065 
L 282.931765 20.594715 
L 283.016265 19.374944 
L 283.024715 20.833318 
L 283.269768 62.07862 
L 283.345819 51.556941 
L 283.523271 43.329145 
L 283.548621 45.634087 
L 283.709172 49.519059 
L 283.776773 49.650647 
L 283.945775 20.594728 
L 284.030276 19.374958 
L 284.038726 20.83333 
L 284.283778 62.07863 
L 284.359829 51.556952 
L 284.537281 43.32915 
L 284.562631 45.634092 
L 284.723183 49.519064 
L 284.790783 49.650652 
L 284.959785 20.594731 
L 285.044286 19.374961 
L 285.052736 20.833333 
L 285.297789 62.078626 
L 285.373839 51.556949 
L 285.551291 43.329149 
L 285.576641 45.634091 
L 285.737193 49.519063 
L 285.804794 49.65065 
L 285.973795 20.594715 
L 286.058296 19.374944 
L 286.066746 20.833318 
L 286.311799 62.07862 
L 286.38785 51.556941 
L 286.565301 43.329145 
L 286.590652 45.634087 
L 286.751203 49.519059 
L 286.818804 49.650647 
L 286.987806 20.594728 
L 287.072307 19.374958 
L 287.080757 20.83333 
L 287.325809 62.07863 
L 287.40186 51.556952 
L 287.579312 43.32915 
L 287.604662 45.634092 
L 287.765214 49.519064 
L 287.832814 49.650652 
L 288.001816 20.594731 
L 288.086317 19.374961 
L 288.094767 20.833333 
L 288.339819 62.078626 
L 288.41587 51.556949 
L 288.593322 43.329149 
L 288.618672 45.634091 
L 288.779224 49.519063 
L 288.846825 49.65065 
L 289.015826 20.594715 
L 289.100327 19.374944 
L 289.108777 20.833318 
L 289.35383 62.07862 
L 289.42988 51.556941 
L 289.607332 43.329145 
L 289.632682 45.634087 
L 289.793234 49.519059 
L 289.860835 49.650647 
L 290.029836 20.594728 
L 290.114337 19.374958 
L 290.122787 20.83333 
L 290.36784 62.07863 
L 290.443891 51.556952 
L 290.621342 43.32915 
L 290.646693 45.634092 
L 290.807244 49.519064 
L 290.874845 49.650652 
L 291.043847 20.594731 
L 291.128348 19.374961 
L 291.136798 20.833333 
L 291.38185 62.078626 
L 291.457901 51.556949 
L 291.635353 43.329149 
L 291.660703 45.634091 
L 291.821255 49.519063 
L 291.888855 49.65065 
L 292.057857 20.594715 
L 292.142358 19.374944 
L 292.150808 20.833318 
L 292.39586 62.07862 
L 292.471911 51.556941 
L 292.649363 43.329145 
L 292.674713 45.634087 
L 292.835265 49.519059 
L 292.902866 49.650647 
L 293.071867 20.594728 
L 293.156368 19.374958 
L 293.164818 20.83333 
L 293.409871 62.07863 
L 293.485922 51.556952 
L 293.663373 43.32915 
L 293.688724 45.634092 
L 293.849275 49.519064 
L 293.916876 49.650652 
L 294.085878 20.594731 
L 294.170378 19.374961 
L 294.178829 20.833333 
L 294.423881 62.078626 
L 294.499932 51.556949 
L 294.677384 43.329149 
L 294.702734 45.634091 
L 294.863286 49.519063 
L 294.930886 49.65065 
L 295.099888 20.594715 
L 295.184389 19.374944 
L 295.192839 20.833318 
L 295.437891 62.07862 
L 295.513942 51.556941 
L 295.691394 43.329145 
L 295.716744 45.634087 
L 295.877296 49.519059 
L 295.944896 49.650647 
L 296.113898 20.594728 
L 296.198399 19.374958 
L 296.206849 20.83333 
L 296.451902 62.07863 
L 296.527952 51.556952 
L 296.705404 43.32915 
L 296.730754 45.634092 
L 296.891306 49.519064 
L 296.958907 49.650652 
L 297.127908 20.594731 
L 297.212409 19.374961 
L 297.220859 20.833333 
L 297.465912 62.078626 
L 297.541963 51.556949 
L 297.719414 43.329149 
L 297.744765 45.634091 
L 297.905316 49.519063 
L 297.972917 49.65065 
L 298.141919 20.594715 
L 298.22642 19.374944 
L 298.23487 20.833318 
L 298.479922 62.07862 
L 298.555973 51.556941 
L 298.733425 43.329145 
L 298.758775 45.634087 
L 298.919327 49.519059 
L 298.986927 49.650647 
L 299.155929 20.594728 
L 299.24043 19.374958 
L 299.24888 20.83333 
L 299.493932 62.07863 
L 299.569983 51.556952 
L 299.747435 43.32915 
L 299.772785 45.634092 
L 299.933337 49.519064 
L 300.000938 49.650652 
L 300.169939 20.594731 
L 300.25444 19.374961 
L 300.26289 20.833333 
L 300.507943 62.078626 
L 300.583994 51.556949 
L 300.761445 43.329149 
L 300.786796 45.634091 
L 300.947347 49.519063 
L 301.014948 49.65065 
L 301.18395 20.594715 
L 301.26845 19.374944 
L 301.276901 20.833318 
L 301.521953 62.07862 
L 301.598004 51.556941 
L 301.775456 43.329145 
L 301.800806 45.634087 
L 301.961357 49.519059 
L 302.028958 49.650647 
L 302.19796 20.594728 
L 302.282461 19.374958 
L 302.290911 20.83333 
L 302.535963 62.07863 
L 302.612014 51.556952 
L 302.789466 43.32915 
L 302.814816 45.634092 
L 302.975368 49.519064 
L 303.042968 49.650652 
L 303.21197 20.594731 
L 303.296471 19.374961 
L 303.304921 20.833333 
L 303.549974 62.078626 
L 303.626024 51.556949 
L 303.803476 43.329149 
L 303.828826 45.634091 
L 303.989378 49.519063 
L 304.056979 49.65065 
L 304.22598 20.594715 
L 304.310481 19.374944 
L 304.318931 20.833318 
L 304.563984 62.07862 
L 304.640035 51.556941 
L 304.817486 43.329145 
L 304.842837 45.634087 
L 305.003388 49.519059 
L 305.070989 49.650647 
L 305.239991 20.594728 
L 305.324492 19.374958 
L 305.332942 20.83333 
L 305.577994 62.07863 
L 305.654045 51.556952 
L 305.831497 43.32915 
L 305.856847 45.634092 
L 306.017399 49.519064 
L 306.084999 49.650652 
L 306.254001 20.594731 
L 306.338502 19.374961 
L 306.346952 20.833333 
L 306.592004 62.078626 
L 306.668055 51.556949 
L 306.845507 43.329149 
L 306.870857 45.634091 
L 307.031409 49.519063 
L 307.09901 49.65065 
L 307.268011 20.594715 
L 307.352512 19.374944 
L 307.360962 20.833318 
L 307.606015 62.07862 
L 307.682065 51.556941 
L 307.859517 43.329145 
L 307.884868 45.634087 
L 308.045419 49.519059 
L 308.11302 49.650647 
L 308.282022 20.594728 
L 308.366522 19.374958 
L 308.374973 20.83333 
L 308.620025 62.07863 
L 308.696076 51.556952 
L 308.873528 43.32915 
L 308.898878 45.634092 
L 309.059429 49.519064 
L 309.12703 49.650652 
L 309.296032 20.594731 
L 309.380533 19.374961 
L 309.388983 20.833333 
L 309.634035 62.078626 
L 309.710086 51.556949 
L 309.887538 43.329149 
L 309.912888 45.634091 
L 310.07344 49.519063 
L 310.14104 49.65065 
L 310.310042 20.594715 
L 310.394543 19.374944 
L 310.402993 20.833318 
L 310.648046 62.07862 
L 310.724096 51.556941 
L 310.901548 43.329145 
L 310.926898 45.634087 
L 311.08745 49.519059 
L 311.155051 49.650647 
L 311.324052 20.594728 
L 311.408553 19.374958 
L 311.417003 20.83333 
L 311.662056 62.07863 
L 311.738107 51.556952 
L 311.915558 43.32915 
L 311.940909 45.634092 
L 312.10146 49.519064 
L 312.169061 49.650652 
L 312.338063 20.594731 
L 312.422564 19.374961 
L 312.431014 20.833333 
L 312.676066 62.078626 
L 312.752117 51.556949 
L 312.929569 43.329149 
L 312.954919 45.634091 
L 313.115471 49.519063 
L 313.183071 49.65065 
L 313.352073 20.594715 
L 313.436574 19.374944 
L 313.445024 20.833318 
L 313.690076 62.07862 
L 313.766127 51.556941 
L 313.943579 43.329145 
L 313.968929 45.634087 
L 314.129481 49.519059 
L 314.197082 49.650647 
L 314.366083 20.594728 
L 314.450584 19.374958 
L 314.459034 20.83333 
L 314.704087 62.07863 
L 314.780137 51.556952 
L 314.957589 43.32915 
L 314.98294 45.634092 
L 315.143491 49.519064 
L 315.211092 49.650652 
L 315.380094 20.594731 
L 315.464594 19.374961 
L 315.473045 20.833333 
L 315.718097 62.078626 
L 315.794148 51.556949 
L 315.9716 43.329149 
L 315.99695 45.634091 
L 316.157501 49.519063 
L 316.225102 49.65065 
L 316.394104 20.594715 
L 316.478605 19.374944 
L 316.487055 20.833318 
L 316.732107 62.07862 
L 316.808158 51.556941 
L 316.98561 43.329145 
L 317.01096 45.634087 
L 317.171512 49.519059 
L 317.239112 49.650647 
L 317.408114 20.594728 
L 317.492615 19.374958 
L 317.501065 20.83333 
L 317.746118 62.07863 
L 317.822168 51.556952 
L 317.99962 43.32915 
L 318.02497 45.634092 
L 318.185522 49.519064 
L 318.253123 49.650652 
L 318.422124 20.594731 
L 318.506625 19.374961 
L 318.515075 20.833333 
L 318.760128 62.078626 
L 318.836179 51.556949 
L 319.01363 43.329149 
L 319.038981 45.634091 
L 319.199532 49.519063 
L 319.267133 49.65065 
L 319.436135 20.594715 
L 319.520636 19.374944 
L 319.529086 20.833318 
L 319.774138 62.07862 
L 319.850189 51.556941 
L 320.027641 43.329145 
L 320.052991 45.634087 
L 320.213543 49.519059 
L 320.281143 49.650647 
L 320.450145 20.594728 
L 320.534646 19.374958 
L 320.543096 20.83333 
L 320.788148 62.07863 
L 320.864199 51.556952 
L 321.041651 43.32915 
L 321.067001 45.634092 
L 321.227553 49.519064 
L 321.295154 49.650652 
L 321.464155 20.594731 
L 321.548656 19.374961 
L 321.557106 20.833333 
L 321.802159 62.078626 
L 321.878209 51.556949 
L 322.055661 43.329149 
L 322.081012 45.634091 
L 322.241563 49.519063 
L 322.309164 49.65065 
L 322.478166 20.594715 
L 322.562666 19.374944 
L 322.571116 20.833318 
L 322.816169 62.07862 
L 322.89222 51.556941 
L 323.069672 43.329145 
L 323.095022 45.634087 
L 323.255573 49.519059 
L 323.323174 49.650647 
L 323.492176 20.594728 
L 323.576677 19.374958 
L 323.585127 20.83333 
L 323.830179 62.07863 
L 323.90623 51.556952 
L 324.083682 43.32915 
L 324.109032 45.634092 
L 324.269584 49.519064 
L 324.337184 49.650652 
L 324.506186 20.594731 
L 324.590687 19.374961 
L 324.599137 20.833333 
L 324.84419 62.078626 
L 324.92024 51.556949 
L 325.097692 43.329149 
L 325.123042 45.634091 
L 325.283594 49.519063 
L 325.351195 49.65065 
L 325.520196 20.594715 
L 325.604697 19.374944 
L 325.613147 20.833318 
L 325.8582 62.07862 
L 325.934251 51.556941 
L 326.111702 43.329145 
L 326.137053 45.634087 
L 326.297604 49.519059 
L 326.365205 49.650647 
L 326.534207 20.594728 
L 326.618708 19.374958 
L 326.627158 20.83333 
L 326.87221 62.07863 
L 326.948261 51.556952 
L 327.125713 43.32915 
L 327.151063 45.634092 
L 327.311615 49.519064 
L 327.379215 49.650652 
L 327.548217 20.594731 
L 327.632718 19.374961 
L 327.641168 20.833333 
L 327.88622 62.078626 
L 327.962271 51.556949 
L 328.139723 43.329149 
L 328.165073 45.634091 
L 328.325625 49.519063 
L 328.393226 49.65065 
L 328.562227 20.594715 
L 328.646728 19.374944 
L 328.655178 20.833318 
L 328.900231 62.07862 
L 328.976281 51.556941 
L 329.153733 43.329145 
L 329.179083 45.634087 
L 329.339635 49.519059 
L 329.407236 49.650647 
L 329.576238 20.594728 
L 329.660738 19.374958 
L 329.669188 20.83333 
L 329.914241 62.07863 
L 329.990292 51.556952 
L 330.167744 43.32915 
L 330.193094 45.634092 
L 330.353645 49.519064 
L 330.421246 49.650652 
L 330.590248 20.594731 
L 330.674749 19.374961 
L 330.683199 20.833333 
L 330.928251 62.078626 
L 331.004302 51.556949 
L 331.181754 43.329149 
L 331.207104 45.634091 
L 331.367656 49.519063 
L 331.435256 49.65065 
L 331.604258 20.594715 
L 331.688759 19.374944 
L 331.697209 20.833318 
L 331.942262 62.07862 
L 332.018312 51.556941 
L 332.195764 43.329145 
L 332.221114 45.634087 
L 332.381666 49.519059 
L 332.449267 49.650647 
L 332.618268 20.594728 
L 332.702769 19.374958 
L 332.711219 20.83333 
L 332.956272 62.07863 
L 333.032323 51.556952 
L 333.209774 43.32915 
L 333.235125 45.634092 
L 333.395676 49.519064 
L 333.463277 49.650652 
L 333.632279 20.594731 
L 333.716779 19.374961 
L 333.72523 20.833333 
L 333.970282 62.078626 
L 334.046333 51.556949 
L 334.223785 43.329149 
L 334.249135 45.634091 
L 334.409687 49.519063 
L 334.477287 49.65065 
L 334.646289 20.594715 
L 334.73079 19.374944 
L 334.73924 20.833318 
L 334.984292 62.07862 
L 335.060343 51.556941 
L 335.237795 43.329145 
L 335.263145 45.634087 
L 335.423697 49.519059 
L 335.491297 49.650647 
L 335.660299 20.594728 
L 335.7448 19.374958 
L 335.75325 20.83333 
L 335.998303 62.07863 
L 336.074353 51.556952 
L 336.251805 43.32915 
L 336.277155 45.634092 
L 336.437707 49.519064 
L 336.505308 49.650652 
L 336.674309 20.594731 
L 336.75881 19.374961 
L 336.76726 20.833333 
L 337.012313 62.078626 
L 337.088364 51.556949 
L 337.265815 43.329149 
L 337.291166 45.634091 
L 337.451717 49.519063 
L 337.519318 49.65065 
L 337.68832 20.594715 
L 337.772821 19.374944 
L 337.781271 20.833318 
L 338.026323 62.07862 
L 338.102374 51.556941 
L 338.279826 43.329145 
L 338.305176 45.634087 
L 338.465728 49.519059 
L 338.533328 49.650647 
L 338.70233 20.594728 
L 338.786831 19.374958 
L 338.795281 20.83333 
L 339.040333 62.07863 
L 339.116384 51.556952 
L 339.293836 43.32915 
L 339.319186 45.634092 
L 339.479738 49.519064 
L 339.547339 49.650652 
L 339.71634 20.594731 
L 339.800841 19.374961 
L 339.809291 20.833333 
L 340.054344 62.078626 
L 340.130395 51.556949 
L 340.307846 43.329149 
L 340.333197 45.634091 
L 340.493748 49.519063 
L 340.561349 49.65065 
L 340.730351 20.594715 
L 340.814851 19.374944 
L 340.823302 20.833318 
L 341.068354 62.07862 
L 341.144405 51.556941 
L 341.321857 43.329145 
L 341.347207 45.634087 
L 341.507759 49.519059 
L 341.575359 49.650647 
L 341.744361 20.594728 
L 341.828862 19.374958 
L 341.837312 20.83333 
L 342.082364 62.07863 
L 342.158415 51.556952 
L 342.335867 43.32915 
L 342.361217 45.634092 
L 342.521769 49.519064 
L 342.589369 49.650652 
L 342.758371 20.594731 
L 342.842872 19.374961 
L 342.851322 20.833333 
L 343.096375 62.078626 
L 343.172425 51.556949 
L 343.349877 43.329149 
L 343.375227 45.634091 
L 343.535779 49.519063 
L 343.60338 49.65065 
L 343.772381 20.594715 
L 343.856882 19.374944 
L 343.865332 20.833318 
L 344.110385 62.07862 
L 344.186436 51.556941 
L 344.363887 43.329145 
L 344.389238 45.634087 
L 344.549789 49.519059 
L 344.61739 49.650647 
L 344.786392 20.594728 
L 344.870893 19.374958 
L 344.879343 20.83333 
L 345.124395 62.07863 
L 345.200446 51.556952 
L 345.377898 43.32915 
L 345.403248 45.634092 
L 345.5638 49.519064 
L 345.6314 49.650652 
L 345.800402 20.594731 
L 345.884903 19.374961 
L 345.893353 20.833333 
L 346.138405 62.078626 
L 346.214456 51.556949 
L 346.391908 43.329149 
L 346.417258 45.634091 
L 346.57781 49.519063 
L 346.645411 49.65065 
L 346.814412 20.594715 
L 346.898913 19.374944 
L 346.907363 20.833318 
L 347.152416 62.07862 
L 347.228467 51.556941 
L 347.405918 43.329145 
L 347.431269 45.634087 
L 347.59182 49.519059 
L 347.659421 49.650647 
L 347.828423 20.594728 
L 347.912923 19.374958 
L 347.921374 20.83333 
L 348.166426 62.07863 
L 348.242477 51.556952 
L 348.419929 43.32915 
L 348.445279 45.634092 
L 348.60583 49.519064 
L 348.673431 49.650652 
L 348.842433 20.594731 
L 348.926934 19.374961 
L 348.935384 20.833333 
L 349.180436 62.078626 
L 349.256487 51.556949 
L 349.433939 43.329149 
L 349.459289 45.634091 
L 349.619841 49.519063 
L 349.687441 49.65065 
L 349.856443 20.594715 
L 349.940944 19.374944 
L 349.949394 20.833318 
L 350.194447 62.07862 
L 350.270497 51.556941 
L 350.447949 43.329145 
L 350.473299 45.634087 
L 350.633851 49.519059 
L 350.701452 49.650647 
L 350.870453 20.594728 
L 350.954954 19.374958 
L 350.963404 20.83333 
L 351.208457 62.07863 
L 351.284508 51.556952 
L 351.461959 43.32915 
L 351.48731 45.634092 
L 351.647861 49.519064 
L 351.715462 49.650652 
L 351.884464 20.594731 
L 351.968965 19.374961 
L 351.977415 20.833333 
L 352.222467 62.078626 
L 352.298518 51.556949 
L 352.47597 43.329149 
L 352.50132 45.634091 
L 352.661872 49.519063 
L 352.729472 49.65065 
L 352.898474 20.594715 
L 352.982975 19.374944 
L 352.991425 20.833318 
L 353.236477 62.07862 
L 353.312528 51.556941 
L 353.48998 43.329145 
L 353.51533 45.634087 
L 353.675882 49.519059 
L 353.743483 49.650647 
L 353.912484 20.594728 
L 353.996985 19.374958 
L 354.005435 20.83333 
L 354.250488 62.07863 
L 354.326538 51.556952 
L 354.50399 43.32915 
L 354.529341 45.634092 
L 354.689892 49.519064 
L 354.757493 49.650652 
L 354.926495 20.594731 
L 355.010995 19.374961 
L 355.019446 20.833333 
L 355.264498 62.078626 
L 355.340549 51.556949 
L 355.518001 43.329149 
L 355.543351 45.634091 
L 355.703902 49.519063 
L 355.771503 49.65065 
L 355.940505 20.594715 
L 356.025006 19.374944 
L 356.033456 20.833318 
L 356.278508 62.07862 
L 356.354559 51.556941 
L 356.532011 43.329145 
L 356.557361 45.634087 
L 356.717913 49.519059 
L 356.785513 49.650647 
L 356.954515 20.594728 
L 357.039016 19.374958 
L 357.047466 20.83333 
L 357.292519 62.07863 
L 357.368569 51.556952 
L 357.546021 43.32915 
L 357.571371 45.634092 
L 357.731923 49.519064 
L 357.799524 49.650652 
L 357.968525 20.594731 
L 358.053026 19.374961 
L 358.061476 20.833333 
L 358.306529 62.078626 
L 358.38258 51.556949 
L 358.560031 43.329149 
L 358.585382 45.634091 
L 358.745933 49.519063 
L 358.813534 49.65065 
L 358.982536 20.594715 
L 359.067037 19.374944 
L 359.075487 20.833318 
L 359.320539 62.07862 
L 359.39659 51.556941 
L 359.574042 43.329145 
L 359.599392 45.634087 
L 359.759944 49.519059 
L 359.827544 49.650647 
L 359.996546 20.594728 
L 360.081047 19.374958 
L 360.089497 20.83333 
L 360.334549 62.07863 
L 360.4106 51.556952 
L 360.588052 43.32915 
L 360.613402 45.634092 
L 360.773954 49.519064 
L 360.841555 49.650652 
L 361.010556 20.594731 
L 361.095057 19.374961 
L 361.103507 20.833333 
L 361.34856 62.078626 
L 361.42461 51.556949 
L 361.602062 43.329149 
L 361.627413 45.634091 
L 361.787964 49.519063 
L 361.855565 49.65065 
L 362.024567 20.594715 
L 362.109067 19.374944 
L 362.117517 20.833318 
L 362.36257 62.07862 
L 362.438621 51.556941 
L 362.616073 43.329145 
L 362.641423 45.634087 
L 362.801974 49.519059 
L 362.869575 49.650647 
L 363.038577 20.594728 
L 363.123078 19.374958 
L 363.131528 20.83333 
L 363.37658 62.07863 
L 363.452631 51.556952 
L 363.630083 43.32915 
L 363.655433 45.634092 
L 363.815985 49.519064 
L 363.883585 49.650652 
L 364.052587 20.594731 
L 364.137088 19.374961 
L 364.145538 20.833333 
L 364.390591 62.078626 
L 364.466641 51.556949 
L 364.644093 43.329149 
L 364.669443 45.634091 
L 364.829995 49.519063 
L 364.897596 49.65065 
L 365.066597 20.594715 
L 365.151098 19.374944 
L 365.159548 20.833318 
L 365.404601 62.07862 
L 365.480652 51.556941 
L 365.658103 43.329145 
L 365.683454 45.634087 
L 365.844005 49.519059 
L 365.911606 49.650647 
L 366.080608 20.594728 
L 366.165109 19.374958 
L 366.173559 20.83333 
L 366.418611 62.07863 
L 366.494662 51.556952 
L 366.672114 43.32915 
L 366.697464 45.634092 
L 366.858016 49.519064 
L 366.925616 49.650652 
L 367.094618 20.594731 
L 367.179119 19.374961 
L 367.187569 20.833333 
L 367.432621 62.078626 
L 367.508672 51.556949 
L 367.686124 43.329149 
L 367.711474 45.634091 
L 367.872026 49.519063 
L 367.939627 49.65065 
L 368.108628 20.594715 
L 368.193129 19.374944 
L 368.201579 20.833318 
L 368.446632 62.07862 
L 368.522682 51.556941 
L 368.700134 43.329145 
L 368.725485 45.634087 
L 368.886036 49.519059 
L 368.953637 49.650647 
L 369.122639 20.594728 
L 369.207139 19.374958 
L 369.215589 20.83333 
L 369.460642 62.07863 
L 369.536693 51.556952 
L 369.714145 43.32915 
L 369.739495 45.634092 
L 369.900046 49.519064 
L 369.967647 49.650652 
L 370.136649 20.594731 
L 370.22115 19.374961 
L 370.2296 20.833333 
L 370.474652 62.078626 
L 370.550703 51.556949 
L 370.728155 43.329149 
L 370.753505 45.634091 
L 370.914057 49.519063 
L 370.981657 49.65065 
L 371.150659 20.594715 
L 371.23516 19.374944 
L 371.24361 20.833318 
L 371.488663 62.07862 
L 371.564713 51.556941 
L 371.742165 43.329145 
L 371.767515 45.634087 
L 371.928067 49.519059 
L 371.995668 49.650647 
L 372.164669 20.594728 
L 372.24917 19.374958 
L 372.25762 20.83333 
L 372.502673 62.07863 
L 372.578724 51.556952 
L 372.663224 49.145602 
L 372.663224 49.145602 
" style="fill:none;stroke:#4c72b0;stroke-linecap:round;stroke-width:1.5;"/>
   </g>
   <g id="patch_3">
    <path d="M 53.081406 226.931308 
L 53.081406 9.491308 
" style="fill:none;stroke:#ffffff;stroke-linecap:square;stroke-linejoin:miter;stroke-width:1.25;"/>
   </g>
   <g id="patch_4">
    <path d="M 387.881406 226.931308 
L 387.881406 9.491308 
" style="fill:none;stroke:#ffffff;stroke-linecap:square;stroke-linejoin:miter;stroke-width:1.25;"/>
   </g>
   <g id="patch_5">
    <path d="M 53.081406 226.931308 
L 387.881406 226.931308 
" style="fill:none;stroke:#ffffff;stroke-linecap:square;stroke-linejoin:miter;stroke-width:1.25;"/>
   </g>
   <g id="patch_6">
    <path d="M 53.081406 9.491308 
L 387.881406 9.491308 
" style="fill:none;stroke:#ffffff;stroke-linecap:square;stroke-linejoin:miter;stroke-width:1.25;"/>
   </g>
  </g>
 </g>
 <defs>
  <clipPath id="pefabc5d635">
   <rect height="217.44" width="334.8" x="53.081406" y="9.491308"/>
  </clipPath>
 </defs>
</svg>
