<?xml version="1.0" encoding="utf-8" standalone="no"?>
<!DOCTYPE svg PUBLIC "-//W3C//DTD SVG 1.1//EN"
  "http://www.w3.org/Graphics/SVG/1.1/DTD/svg11.dtd">
<!-- Created with matplotlib (https://matplotlib.org/) -->
<svg height="268.966756pt" version="1.1" viewBox="0 0 395.081406 268.966756" width="395.081406pt" xmlns="http://www.w3.org/2000/svg" xmlns:xlink="http://www.w3.org/1999/xlink">
 <defs>
  <style type="text/css">
*{stroke-linecap:butt;stroke-linejoin:round;}
  </style>
 </defs>
 <g id="figure_1">
  <g id="patch_1">
   <path d="M -0 268.966756 
L 395.081406 268.966756 
L 395.081406 0 
L -0 0 
z
" style="fill:#ffffff;"/>
  </g>
  <g id="axes_1">
   <g id="patch_2">
    <path d="M 53.081406 226.945663 
L 387.881406 226.945663 
L 387.881406 9.505663 
L 53.081406 9.505663 
z
" style="fill:#eaeaf2;"/>
   </g>
   <g id="matplotlib.axis_1">
    <g id="xtick_1">
     <g id="line2d_1">
      <path clip-path="url(#pe24a15fa97)" d="M 68.299588 226.945663 
L 68.299588 9.505663 
" style="fill:none;stroke:#ffffff;stroke-linecap:round;"/>
     </g>
     <g id="text_1">
      <!-- 0.0 -->
      <defs>
       <path d="M 4.15625 35.296875 
Q 4.15625 48 6.765625 55.734375 
Q 9.375 63.484375 14.515625 67.671875 
Q 19.671875 71.875 27.484375 71.875 
Q 33.25 71.875 37.59375 69.546875 
Q 41.9375 67.234375 44.765625 62.859375 
Q 47.609375 58.5 49.21875 52.21875 
Q 50.828125 45.953125 50.828125 35.296875 
Q 50.828125 22.703125 48.234375 14.96875 
Q 45.65625 7.234375 40.5 3 
Q 35.359375 -1.21875 27.484375 -1.21875 
Q 17.140625 -1.21875 11.234375 6.203125 
Q 4.15625 15.140625 4.15625 35.296875 
z
M 13.1875 35.296875 
Q 13.1875 17.671875 17.3125 11.828125 
Q 21.4375 6 27.484375 6 
Q 33.546875 6 37.671875 11.859375 
Q 41.796875 17.71875 41.796875 35.296875 
Q 41.796875 52.984375 37.671875 58.78125 
Q 33.546875 64.59375 27.390625 64.59375 
Q 21.34375 64.59375 17.71875 59.46875 
Q 13.1875 52.9375 13.1875 35.296875 
z
" id="ArialMT-48"/>
       <path d="M 9.078125 0 
L 9.078125 10.015625 
L 19.09375 10.015625 
L 19.09375 0 
z
" id="ArialMT-46"/>
      </defs>
      <g style="fill:#262626;" transform="translate(60.654588 244.319256)scale(0.11 -0.11)">
       <use xlink:href="#ArialMT-48"/>
       <use x="55.615234" xlink:href="#ArialMT-46"/>
       <use x="83.398438" xlink:href="#ArialMT-48"/>
      </g>
     </g>
    </g>
    <g id="xtick_2">
     <g id="line2d_2">
      <path clip-path="url(#pe24a15fa97)" d="M 129.172315 226.945663 
L 129.172315 9.505663 
" style="fill:none;stroke:#ffffff;stroke-linecap:round;"/>
     </g>
     <g id="text_2">
      <!-- 0.2 -->
      <defs>
       <path d="M 50.34375 8.453125 
L 50.34375 0 
L 3.03125 0 
Q 2.9375 3.171875 4.046875 6.109375 
Q 5.859375 10.9375 9.828125 15.625 
Q 13.8125 20.3125 21.34375 26.46875 
Q 33.015625 36.03125 37.109375 41.625 
Q 41.21875 47.21875 41.21875 52.203125 
Q 41.21875 57.421875 37.46875 61 
Q 33.734375 64.59375 27.734375 64.59375 
Q 21.390625 64.59375 17.578125 60.78125 
Q 13.765625 56.984375 13.71875 50.25 
L 4.6875 51.171875 
Q 5.609375 61.28125 11.65625 66.578125 
Q 17.71875 71.875 27.9375 71.875 
Q 38.234375 71.875 44.234375 66.15625 
Q 50.25 60.453125 50.25 52 
Q 50.25 47.703125 48.484375 43.546875 
Q 46.734375 39.40625 42.65625 34.8125 
Q 38.578125 30.21875 29.109375 22.21875 
Q 21.1875 15.578125 18.9375 13.203125 
Q 16.703125 10.84375 15.234375 8.453125 
z
" id="ArialMT-50"/>
      </defs>
      <g style="fill:#262626;" transform="translate(121.527315 244.319256)scale(0.11 -0.11)">
       <use xlink:href="#ArialMT-48"/>
       <use x="55.615234" xlink:href="#ArialMT-46"/>
       <use x="83.398438" xlink:href="#ArialMT-50"/>
      </g>
     </g>
    </g>
    <g id="xtick_3">
     <g id="line2d_3">
      <path clip-path="url(#pe24a15fa97)" d="M 190.045043 226.945663 
L 190.045043 9.505663 
" style="fill:none;stroke:#ffffff;stroke-linecap:round;"/>
     </g>
     <g id="text_3">
      <!-- 0.4 -->
      <defs>
       <path d="M 32.328125 0 
L 32.328125 17.140625 
L 1.265625 17.140625 
L 1.265625 25.203125 
L 33.9375 71.578125 
L 41.109375 71.578125 
L 41.109375 25.203125 
L 50.78125 25.203125 
L 50.78125 17.140625 
L 41.109375 17.140625 
L 41.109375 0 
z
M 32.328125 25.203125 
L 32.328125 57.46875 
L 9.90625 25.203125 
z
" id="ArialMT-52"/>
      </defs>
      <g style="fill:#262626;" transform="translate(182.400043 244.319256)scale(0.11 -0.11)">
       <use xlink:href="#ArialMT-48"/>
       <use x="55.615234" xlink:href="#ArialMT-46"/>
       <use x="83.398438" xlink:href="#ArialMT-52"/>
      </g>
     </g>
    </g>
    <g id="xtick_4">
     <g id="line2d_4">
      <path clip-path="url(#pe24a15fa97)" d="M 250.91777 226.945663 
L 250.91777 9.505663 
" style="fill:none;stroke:#ffffff;stroke-linecap:round;"/>
     </g>
     <g id="text_4">
      <!-- 0.6 -->
      <defs>
       <path d="M 49.75 54.046875 
L 41.015625 53.375 
Q 39.84375 58.546875 37.703125 60.890625 
Q 34.125 64.65625 28.90625 64.65625 
Q 24.703125 64.65625 21.53125 62.3125 
Q 17.390625 59.28125 14.984375 53.46875 
Q 12.59375 47.65625 12.5 36.921875 
Q 15.671875 41.75 20.265625 44.09375 
Q 24.859375 46.4375 29.890625 46.4375 
Q 38.671875 46.4375 44.84375 39.96875 
Q 51.03125 33.5 51.03125 23.25 
Q 51.03125 16.5 48.125 10.71875 
Q 45.21875 4.9375 40.140625 1.859375 
Q 35.0625 -1.21875 28.609375 -1.21875 
Q 17.625 -1.21875 10.6875 6.859375 
Q 3.765625 14.9375 3.765625 33.5 
Q 3.765625 54.25 11.421875 63.671875 
Q 18.109375 71.875 29.4375 71.875 
Q 37.890625 71.875 43.28125 67.140625 
Q 48.6875 62.40625 49.75 54.046875 
z
M 13.875 23.1875 
Q 13.875 18.65625 15.796875 14.5 
Q 17.71875 10.359375 21.1875 8.171875 
Q 24.65625 6 28.46875 6 
Q 34.03125 6 38.03125 10.484375 
Q 42.046875 14.984375 42.046875 22.703125 
Q 42.046875 30.125 38.078125 34.390625 
Q 34.125 38.671875 28.125 38.671875 
Q 22.171875 38.671875 18.015625 34.390625 
Q 13.875 30.125 13.875 23.1875 
z
" id="ArialMT-54"/>
      </defs>
      <g style="fill:#262626;" transform="translate(243.27277 244.319256)scale(0.11 -0.11)">
       <use xlink:href="#ArialMT-48"/>
       <use x="55.615234" xlink:href="#ArialMT-46"/>
       <use x="83.398438" xlink:href="#ArialMT-54"/>
      </g>
     </g>
    </g>
    <g id="xtick_5">
     <g id="line2d_5">
      <path clip-path="url(#pe24a15fa97)" d="M 311.790497 226.945663 
L 311.790497 9.505663 
" style="fill:none;stroke:#ffffff;stroke-linecap:round;"/>
     </g>
     <g id="text_5">
      <!-- 0.8 -->
      <defs>
       <path d="M 17.671875 38.8125 
Q 12.203125 40.828125 9.5625 44.53125 
Q 6.9375 48.25 6.9375 53.421875 
Q 6.9375 61.234375 12.546875 66.546875 
Q 18.171875 71.875 27.484375 71.875 
Q 36.859375 71.875 42.578125 66.421875 
Q 48.296875 60.984375 48.296875 53.171875 
Q 48.296875 48.1875 45.671875 44.5 
Q 43.0625 40.828125 37.75 38.8125 
Q 44.34375 36.671875 47.78125 31.875 
Q 51.21875 27.09375 51.21875 20.453125 
Q 51.21875 11.28125 44.71875 5.03125 
Q 38.234375 -1.21875 27.640625 -1.21875 
Q 17.046875 -1.21875 10.546875 5.046875 
Q 4.046875 11.328125 4.046875 20.703125 
Q 4.046875 27.6875 7.59375 32.390625 
Q 11.140625 37.109375 17.671875 38.8125 
z
M 15.921875 53.71875 
Q 15.921875 48.640625 19.1875 45.40625 
Q 22.46875 42.1875 27.6875 42.1875 
Q 32.765625 42.1875 36.015625 45.375 
Q 39.265625 48.578125 39.265625 53.21875 
Q 39.265625 58.0625 35.90625 61.359375 
Q 32.5625 64.65625 27.59375 64.65625 
Q 22.5625 64.65625 19.234375 61.421875 
Q 15.921875 58.203125 15.921875 53.71875 
z
M 13.09375 20.65625 
Q 13.09375 16.890625 14.875 13.375 
Q 16.65625 9.859375 20.171875 7.921875 
Q 23.6875 6 27.734375 6 
Q 34.03125 6 38.125 10.046875 
Q 42.234375 14.109375 42.234375 20.359375 
Q 42.234375 26.703125 38.015625 30.859375 
Q 33.796875 35.015625 27.4375 35.015625 
Q 21.234375 35.015625 17.15625 30.90625 
Q 13.09375 26.8125 13.09375 20.65625 
z
" id="ArialMT-56"/>
      </defs>
      <g style="fill:#262626;" transform="translate(304.145497 244.319256)scale(0.11 -0.11)">
       <use xlink:href="#ArialMT-48"/>
       <use x="55.615234" xlink:href="#ArialMT-46"/>
       <use x="83.398438" xlink:href="#ArialMT-56"/>
      </g>
     </g>
    </g>
    <g id="xtick_6">
     <g id="line2d_6">
      <path clip-path="url(#pe24a15fa97)" d="M 372.663224 226.945663 
L 372.663224 9.505663 
" style="fill:none;stroke:#ffffff;stroke-linecap:round;"/>
     </g>
     <g id="text_6">
      <!-- 1.0 -->
      <defs>
       <path d="M 37.25 0 
L 28.46875 0 
L 28.46875 56 
Q 25.296875 52.984375 20.140625 49.953125 
Q 14.984375 46.921875 10.890625 45.40625 
L 10.890625 53.90625 
Q 18.265625 57.375 23.78125 62.296875 
Q 29.296875 67.234375 31.59375 71.875 
L 37.25 71.875 
z
" id="ArialMT-49"/>
      </defs>
      <g style="fill:#262626;" transform="translate(365.018224 244.319256)scale(0.11 -0.11)">
       <use xlink:href="#ArialMT-49"/>
       <use x="55.615234" xlink:href="#ArialMT-46"/>
       <use x="83.398438" xlink:href="#ArialMT-48"/>
      </g>
     </g>
    </g>
    <g id="text_7">
     <!-- Time (s) -->
     <defs>
      <path d="M 25.921875 0 
L 25.921875 63.140625 
L 2.34375 63.140625 
L 2.34375 71.578125 
L 59.078125 71.578125 
L 59.078125 63.140625 
L 35.40625 63.140625 
L 35.40625 0 
z
" id="ArialMT-84"/>
      <path d="M 6.640625 61.46875 
L 6.640625 71.578125 
L 15.4375 71.578125 
L 15.4375 61.46875 
z
M 6.640625 0 
L 6.640625 51.859375 
L 15.4375 51.859375 
L 15.4375 0 
z
" id="ArialMT-105"/>
      <path d="M 6.59375 0 
L 6.59375 51.859375 
L 14.453125 51.859375 
L 14.453125 44.578125 
Q 16.890625 48.390625 20.9375 50.703125 
Q 25 53.03125 30.171875 53.03125 
Q 35.9375 53.03125 39.625 50.640625 
Q 43.3125 48.25 44.828125 43.953125 
Q 50.984375 53.03125 60.84375 53.03125 
Q 68.5625 53.03125 72.703125 48.75 
Q 76.859375 44.484375 76.859375 35.59375 
L 76.859375 0 
L 68.109375 0 
L 68.109375 32.671875 
Q 68.109375 37.9375 67.25 40.25 
Q 66.40625 42.578125 64.15625 43.984375 
Q 61.921875 45.40625 58.890625 45.40625 
Q 53.421875 45.40625 49.796875 41.765625 
Q 46.1875 38.140625 46.1875 30.125 
L 46.1875 0 
L 37.40625 0 
L 37.40625 33.6875 
Q 37.40625 39.546875 35.25 42.46875 
Q 33.109375 45.40625 28.21875 45.40625 
Q 24.515625 45.40625 21.359375 43.453125 
Q 18.21875 41.5 16.796875 37.734375 
Q 15.375 33.984375 15.375 26.90625 
L 15.375 0 
z
" id="ArialMT-109"/>
      <path d="M 42.09375 16.703125 
L 51.171875 15.578125 
Q 49.03125 7.625 43.21875 3.21875 
Q 37.40625 -1.171875 28.375 -1.171875 
Q 17 -1.171875 10.328125 5.828125 
Q 3.65625 12.84375 3.65625 25.484375 
Q 3.65625 38.578125 10.390625 45.796875 
Q 17.140625 53.03125 27.875 53.03125 
Q 38.28125 53.03125 44.875 45.953125 
Q 51.46875 38.875 51.46875 26.03125 
Q 51.46875 25.25 51.421875 23.6875 
L 12.75 23.6875 
Q 13.234375 15.140625 17.578125 10.59375 
Q 21.921875 6.0625 28.421875 6.0625 
Q 33.25 6.0625 36.671875 8.59375 
Q 40.09375 11.140625 42.09375 16.703125 
z
M 13.234375 30.90625 
L 42.1875 30.90625 
Q 41.609375 37.453125 38.875 40.71875 
Q 34.671875 45.796875 27.984375 45.796875 
Q 21.921875 45.796875 17.796875 41.75 
Q 13.671875 37.703125 13.234375 30.90625 
z
" id="ArialMT-101"/>
      <path id="ArialMT-32"/>
      <path d="M 23.390625 -21.046875 
Q 16.109375 -11.859375 11.078125 0.4375 
Q 6.0625 12.75 6.0625 25.921875 
Q 6.0625 37.546875 9.8125 48.1875 
Q 14.203125 60.546875 23.390625 72.796875 
L 29.6875 72.796875 
Q 23.78125 62.640625 21.875 58.296875 
Q 18.890625 51.5625 17.1875 44.234375 
Q 15.09375 35.109375 15.09375 25.875 
Q 15.09375 2.390625 29.6875 -21.046875 
z
" id="ArialMT-40"/>
      <path d="M 3.078125 15.484375 
L 11.765625 16.84375 
Q 12.5 11.625 15.84375 8.84375 
Q 19.1875 6.0625 25.203125 6.0625 
Q 31.25 6.0625 34.171875 8.515625 
Q 37.109375 10.984375 37.109375 14.3125 
Q 37.109375 17.28125 34.515625 19 
Q 32.71875 20.171875 25.53125 21.96875 
Q 15.875 24.421875 12.140625 26.203125 
Q 8.40625 27.984375 6.46875 31.125 
Q 4.546875 34.28125 4.546875 38.09375 
Q 4.546875 41.546875 6.125 44.5 
Q 7.71875 47.46875 10.453125 49.421875 
Q 12.5 50.921875 16.03125 51.96875 
Q 19.578125 53.03125 23.640625 53.03125 
Q 29.734375 53.03125 34.34375 51.265625 
Q 38.96875 49.515625 41.15625 46.5 
Q 43.359375 43.5 44.1875 38.484375 
L 35.59375 37.3125 
Q 35.015625 41.3125 32.203125 43.546875 
Q 29.390625 45.796875 24.265625 45.796875 
Q 18.21875 45.796875 15.625 43.796875 
Q 13.03125 41.796875 13.03125 39.109375 
Q 13.03125 37.40625 14.109375 36.03125 
Q 15.1875 34.625 17.484375 33.6875 
Q 18.796875 33.203125 25.25 31.453125 
Q 34.578125 28.953125 38.25 27.359375 
Q 41.9375 25.78125 44.03125 22.75 
Q 46.140625 19.734375 46.140625 15.234375 
Q 46.140625 10.84375 43.578125 6.953125 
Q 41.015625 3.078125 36.171875 0.953125 
Q 31.34375 -1.171875 25.25 -1.171875 
Q 15.140625 -1.171875 9.84375 3.03125 
Q 4.546875 7.234375 3.078125 15.484375 
z
" id="ArialMT-115"/>
      <path d="M 12.359375 -21.046875 
L 6.0625 -21.046875 
Q 20.65625 2.390625 20.65625 25.875 
Q 20.65625 35.0625 18.5625 44.09375 
Q 16.890625 51.421875 13.921875 58.15625 
Q 12.015625 62.546875 6.0625 72.796875 
L 12.359375 72.796875 
Q 21.53125 60.546875 25.921875 48.1875 
Q 29.6875 37.546875 29.6875 25.921875 
Q 29.6875 12.75 24.625 0.4375 
Q 19.578125 -11.859375 12.359375 -21.046875 
z
" id="ArialMT-41"/>
     </defs>
     <g style="fill:#262626;" transform="translate(198.711719 259.241131)scale(0.12 -0.12)">
      <use xlink:href="#ArialMT-84"/>
      <use x="57.333984" xlink:href="#ArialMT-105"/>
      <use x="79.550781" xlink:href="#ArialMT-109"/>
      <use x="162.851562" xlink:href="#ArialMT-101"/>
      <use x="218.466797" xlink:href="#ArialMT-32"/>
      <use x="246.25" xlink:href="#ArialMT-40"/>
      <use x="279.550781" xlink:href="#ArialMT-115"/>
      <use x="329.550781" xlink:href="#ArialMT-41"/>
     </g>
    </g>
   </g>
   <g id="matplotlib.axis_2">
    <g id="ytick_1">
     <g id="line2d_7">
      <path clip-path="url(#pe24a15fa97)" d="M 53.081406 217.062026 
L 387.881406 217.062026 
" style="fill:none;stroke:#ffffff;stroke-linecap:round;"/>
     </g>
     <g id="text_8">
      <!-- 0.00 -->
      <g style="fill:#262626;" transform="translate(22.174375 220.998823)scale(0.11 -0.11)">
       <use xlink:href="#ArialMT-48"/>
       <use x="55.615234" xlink:href="#ArialMT-46"/>
       <use x="83.398438" xlink:href="#ArialMT-48"/>
       <use x="139.013672" xlink:href="#ArialMT-48"/>
      </g>
     </g>
    </g>
    <g id="ytick_2">
     <g id="line2d_8">
      <path clip-path="url(#pe24a15fa97)" d="M 53.081406 191.321373 
L 387.881406 191.321373 
" style="fill:none;stroke:#ffffff;stroke-linecap:round;"/>
     </g>
     <g id="text_9">
      <!-- 0.05 -->
      <defs>
       <path d="M 4.15625 18.75 
L 13.375 19.53125 
Q 14.40625 12.796875 18.140625 9.390625 
Q 21.875 6 27.15625 6 
Q 33.5 6 37.890625 10.78125 
Q 42.28125 15.578125 42.28125 23.484375 
Q 42.28125 31 38.0625 35.34375 
Q 33.84375 39.703125 27 39.703125 
Q 22.75 39.703125 19.328125 37.765625 
Q 15.921875 35.84375 13.96875 32.765625 
L 5.71875 33.84375 
L 12.640625 70.609375 
L 48.25 70.609375 
L 48.25 62.203125 
L 19.671875 62.203125 
L 15.828125 42.96875 
Q 22.265625 47.46875 29.34375 47.46875 
Q 38.71875 47.46875 45.15625 40.96875 
Q 51.609375 34.46875 51.609375 24.265625 
Q 51.609375 14.546875 45.953125 7.46875 
Q 39.0625 -1.21875 27.15625 -1.21875 
Q 17.390625 -1.21875 11.203125 4.25 
Q 5.03125 9.71875 4.15625 18.75 
z
" id="ArialMT-53"/>
      </defs>
      <g style="fill:#262626;" transform="translate(22.174375 195.25817)scale(0.11 -0.11)">
       <use xlink:href="#ArialMT-48"/>
       <use x="55.615234" xlink:href="#ArialMT-46"/>
       <use x="83.398438" xlink:href="#ArialMT-48"/>
       <use x="139.013672" xlink:href="#ArialMT-53"/>
      </g>
     </g>
    </g>
    <g id="ytick_3">
     <g id="line2d_9">
      <path clip-path="url(#pe24a15fa97)" d="M 53.081406 165.580719 
L 387.881406 165.580719 
" style="fill:none;stroke:#ffffff;stroke-linecap:round;"/>
     </g>
     <g id="text_10">
      <!-- 0.10 -->
      <g style="fill:#262626;" transform="translate(22.174375 169.517516)scale(0.11 -0.11)">
       <use xlink:href="#ArialMT-48"/>
       <use x="55.615234" xlink:href="#ArialMT-46"/>
       <use x="83.398438" xlink:href="#ArialMT-49"/>
       <use x="139.013672" xlink:href="#ArialMT-48"/>
      </g>
     </g>
    </g>
    <g id="ytick_4">
     <g id="line2d_10">
      <path clip-path="url(#pe24a15fa97)" d="M 53.081406 139.840065 
L 387.881406 139.840065 
" style="fill:none;stroke:#ffffff;stroke-linecap:round;"/>
     </g>
     <g id="text_11">
      <!-- 0.15 -->
      <g style="fill:#262626;" transform="translate(22.174375 143.776862)scale(0.11 -0.11)">
       <use xlink:href="#ArialMT-48"/>
       <use x="55.615234" xlink:href="#ArialMT-46"/>
       <use x="83.398438" xlink:href="#ArialMT-49"/>
       <use x="139.013672" xlink:href="#ArialMT-53"/>
      </g>
     </g>
    </g>
    <g id="ytick_5">
     <g id="line2d_11">
      <path clip-path="url(#pe24a15fa97)" d="M 53.081406 114.099412 
L 387.881406 114.099412 
" style="fill:none;stroke:#ffffff;stroke-linecap:round;"/>
     </g>
     <g id="text_12">
      <!-- 0.20 -->
      <g style="fill:#262626;" transform="translate(22.174375 118.036208)scale(0.11 -0.11)">
       <use xlink:href="#ArialMT-48"/>
       <use x="55.615234" xlink:href="#ArialMT-46"/>
       <use x="83.398438" xlink:href="#ArialMT-50"/>
       <use x="139.013672" xlink:href="#ArialMT-48"/>
      </g>
     </g>
    </g>
    <g id="ytick_6">
     <g id="line2d_12">
      <path clip-path="url(#pe24a15fa97)" d="M 53.081406 88.358758 
L 387.881406 88.358758 
" style="fill:none;stroke:#ffffff;stroke-linecap:round;"/>
     </g>
     <g id="text_13">
      <!-- 0.25 -->
      <g style="fill:#262626;" transform="translate(22.174375 92.295555)scale(0.11 -0.11)">
       <use xlink:href="#ArialMT-48"/>
       <use x="55.615234" xlink:href="#ArialMT-46"/>
       <use x="83.398438" xlink:href="#ArialMT-50"/>
       <use x="139.013672" xlink:href="#ArialMT-53"/>
      </g>
     </g>
    </g>
    <g id="ytick_7">
     <g id="line2d_13">
      <path clip-path="url(#pe24a15fa97)" d="M 53.081406 62.618104 
L 387.881406 62.618104 
" style="fill:none;stroke:#ffffff;stroke-linecap:round;"/>
     </g>
     <g id="text_14">
      <!-- 0.30 -->
      <defs>
       <path d="M 4.203125 18.890625 
L 12.984375 20.0625 
Q 14.5 12.59375 18.140625 9.296875 
Q 21.78125 6 27 6 
Q 33.203125 6 37.46875 10.296875 
Q 41.75 14.59375 41.75 20.953125 
Q 41.75 27 37.796875 30.921875 
Q 33.84375 34.859375 27.734375 34.859375 
Q 25.25 34.859375 21.53125 33.890625 
L 22.515625 41.609375 
Q 23.390625 41.5 23.921875 41.5 
Q 29.546875 41.5 34.03125 44.421875 
Q 38.53125 47.359375 38.53125 53.46875 
Q 38.53125 58.296875 35.25 61.46875 
Q 31.984375 64.65625 26.8125 64.65625 
Q 21.6875 64.65625 18.265625 61.421875 
Q 14.84375 58.203125 13.875 51.765625 
L 5.078125 53.328125 
Q 6.6875 62.15625 12.390625 67.015625 
Q 18.109375 71.875 26.609375 71.875 
Q 32.46875 71.875 37.390625 69.359375 
Q 42.328125 66.84375 44.9375 62.5 
Q 47.5625 58.15625 47.5625 53.265625 
Q 47.5625 48.640625 45.0625 44.828125 
Q 42.578125 41.015625 37.703125 38.765625 
Q 44.046875 37.3125 47.5625 32.6875 
Q 51.078125 28.078125 51.078125 21.140625 
Q 51.078125 11.765625 44.234375 5.25 
Q 37.40625 -1.265625 26.953125 -1.265625 
Q 17.53125 -1.265625 11.296875 4.34375 
Q 5.078125 9.96875 4.203125 18.890625 
z
" id="ArialMT-51"/>
      </defs>
      <g style="fill:#262626;" transform="translate(22.174375 66.554901)scale(0.11 -0.11)">
       <use xlink:href="#ArialMT-48"/>
       <use x="55.615234" xlink:href="#ArialMT-46"/>
       <use x="83.398438" xlink:href="#ArialMT-51"/>
       <use x="139.013672" xlink:href="#ArialMT-48"/>
      </g>
     </g>
    </g>
    <g id="ytick_8">
     <g id="line2d_14">
      <path clip-path="url(#pe24a15fa97)" d="M 53.081406 36.877451 
L 387.881406 36.877451 
" style="fill:none;stroke:#ffffff;stroke-linecap:round;"/>
     </g>
     <g id="text_15">
      <!-- 0.35 -->
      <g style="fill:#262626;" transform="translate(22.174375 40.814247)scale(0.11 -0.11)">
       <use xlink:href="#ArialMT-48"/>
       <use x="55.615234" xlink:href="#ArialMT-46"/>
       <use x="83.398438" xlink:href="#ArialMT-51"/>
       <use x="139.013672" xlink:href="#ArialMT-53"/>
      </g>
     </g>
    </g>
    <g id="ytick_9">
     <g id="line2d_15">
      <path clip-path="url(#pe24a15fa97)" d="M 53.081406 11.136797 
L 387.881406 11.136797 
" style="fill:none;stroke:#ffffff;stroke-linecap:round;"/>
     </g>
     <g id="text_16">
      <!-- 0.40 -->
      <g style="fill:#262626;" transform="translate(22.174375 15.073594)scale(0.11 -0.11)">
       <use xlink:href="#ArialMT-48"/>
       <use x="55.615234" xlink:href="#ArialMT-46"/>
       <use x="83.398438" xlink:href="#ArialMT-52"/>
       <use x="139.013672" xlink:href="#ArialMT-48"/>
      </g>
     </g>
    </g>
    <g id="text_17">
     <!-- Amplitude -->
     <defs>
      <path d="M -0.140625 0 
L 27.34375 71.578125 
L 37.546875 71.578125 
L 66.84375 0 
L 56.0625 0 
L 47.703125 21.6875 
L 17.78125 21.6875 
L 9.90625 0 
z
M 20.515625 29.390625 
L 44.78125 29.390625 
L 37.3125 49.21875 
Q 33.890625 58.25 32.234375 64.0625 
Q 30.859375 57.171875 28.375 50.390625 
z
" id="ArialMT-65"/>
      <path d="M 6.59375 -19.875 
L 6.59375 51.859375 
L 14.59375 51.859375 
L 14.59375 45.125 
Q 17.4375 49.078125 21 51.046875 
Q 24.5625 53.03125 29.640625 53.03125 
Q 36.28125 53.03125 41.359375 49.609375 
Q 46.4375 46.1875 49.015625 39.953125 
Q 51.609375 33.734375 51.609375 26.3125 
Q 51.609375 18.359375 48.75 11.984375 
Q 45.90625 5.609375 40.453125 2.21875 
Q 35.015625 -1.171875 29 -1.171875 
Q 24.609375 -1.171875 21.109375 0.6875 
Q 17.625 2.546875 15.375 5.375 
L 15.375 -19.875 
z
M 14.546875 25.640625 
Q 14.546875 15.625 18.59375 10.84375 
Q 22.65625 6.0625 28.421875 6.0625 
Q 34.28125 6.0625 38.453125 11.015625 
Q 42.625 15.96875 42.625 26.375 
Q 42.625 36.28125 38.546875 41.203125 
Q 34.46875 46.140625 28.8125 46.140625 
Q 23.1875 46.140625 18.859375 40.890625 
Q 14.546875 35.640625 14.546875 25.640625 
z
" id="ArialMT-112"/>
      <path d="M 6.390625 0 
L 6.390625 71.578125 
L 15.1875 71.578125 
L 15.1875 0 
z
" id="ArialMT-108"/>
      <path d="M 25.78125 7.859375 
L 27.046875 0.09375 
Q 23.34375 -0.6875 20.40625 -0.6875 
Q 15.625 -0.6875 12.984375 0.828125 
Q 10.359375 2.34375 9.28125 4.8125 
Q 8.203125 7.28125 8.203125 15.1875 
L 8.203125 45.015625 
L 1.765625 45.015625 
L 1.765625 51.859375 
L 8.203125 51.859375 
L 8.203125 64.703125 
L 16.9375 69.96875 
L 16.9375 51.859375 
L 25.78125 51.859375 
L 25.78125 45.015625 
L 16.9375 45.015625 
L 16.9375 14.703125 
Q 16.9375 10.9375 17.40625 9.859375 
Q 17.875 8.796875 18.921875 8.15625 
Q 19.96875 7.515625 21.921875 7.515625 
Q 23.390625 7.515625 25.78125 7.859375 
z
" id="ArialMT-116"/>
      <path d="M 40.578125 0 
L 40.578125 7.625 
Q 34.515625 -1.171875 24.125 -1.171875 
Q 19.53125 -1.171875 15.546875 0.578125 
Q 11.578125 2.34375 9.640625 5 
Q 7.71875 7.671875 6.9375 11.53125 
Q 6.390625 14.109375 6.390625 19.734375 
L 6.390625 51.859375 
L 15.1875 51.859375 
L 15.1875 23.09375 
Q 15.1875 16.21875 15.71875 13.8125 
Q 16.546875 10.359375 19.234375 8.375 
Q 21.921875 6.390625 25.875 6.390625 
Q 29.828125 6.390625 33.296875 8.421875 
Q 36.765625 10.453125 38.203125 13.9375 
Q 39.65625 17.4375 39.65625 24.078125 
L 39.65625 51.859375 
L 48.4375 51.859375 
L 48.4375 0 
z
" id="ArialMT-117"/>
      <path d="M 40.234375 0 
L 40.234375 6.546875 
Q 35.296875 -1.171875 25.734375 -1.171875 
Q 19.53125 -1.171875 14.328125 2.25 
Q 9.125 5.671875 6.265625 11.796875 
Q 3.421875 17.921875 3.421875 25.875 
Q 3.421875 33.640625 6 39.96875 
Q 8.59375 46.296875 13.765625 49.65625 
Q 18.953125 53.03125 25.34375 53.03125 
Q 30.03125 53.03125 33.6875 51.046875 
Q 37.359375 49.078125 39.65625 45.90625 
L 39.65625 71.578125 
L 48.390625 71.578125 
L 48.390625 0 
z
M 12.453125 25.875 
Q 12.453125 15.921875 16.640625 10.984375 
Q 20.84375 6.0625 26.5625 6.0625 
Q 32.328125 6.0625 36.34375 10.765625 
Q 40.375 15.484375 40.375 25.140625 
Q 40.375 35.796875 36.265625 40.765625 
Q 32.171875 45.75 26.171875 45.75 
Q 20.3125 45.75 16.375 40.96875 
Q 12.453125 36.1875 12.453125 25.875 
z
" id="ArialMT-100"/>
     </defs>
     <g style="fill:#262626;" transform="translate(15.789375 144.905038)rotate(-90)scale(0.12 -0.12)">
      <use xlink:href="#ArialMT-65"/>
      <use x="66.699219" xlink:href="#ArialMT-109"/>
      <use x="150" xlink:href="#ArialMT-112"/>
      <use x="205.615234" xlink:href="#ArialMT-108"/>
      <use x="227.832031" xlink:href="#ArialMT-105"/>
      <use x="250.048828" xlink:href="#ArialMT-116"/>
      <use x="277.832031" xlink:href="#ArialMT-117"/>
      <use x="333.447266" xlink:href="#ArialMT-100"/>
      <use x="389.0625" xlink:href="#ArialMT-101"/>
     </g>
    </g>
   </g>
   <g id="line2d_16">
    <path clip-path="url(#pe24a15fa97)" d="M 68.299588 217.062026 
L 68.604256 203.440131 
L 68.908925 167.985494 
L 69.213593 189.98992 
L 69.518261 177.455876 
L 69.82293 177.695771 
L 70.127598 144.75544 
L 70.432266 163.180465 
L 70.736935 156.172119 
L 71.041603 116.64924 
L 71.346271 153.707393 
L 71.650939 135.506087 
L 71.955608 105.35733 
L 72.260276 130.972616 
L 72.564944 119.994427 
L 72.869613 120.093376 
L 73.174281 93.319441 
L 73.478949 114.195387 
L 73.783618 109.92598 
L 74.088286 74.654603 
L 74.392954 112.97698 
L 74.697622 97.430819 
L 75.002291 69.828732 
L 75.306959 97.760035 
L 75.611627 87.424021 
L 75.916296 86.944735 
L 76.220964 64.228846 
L 76.525632 86.384048 
L 76.830301 83.720866 
L 77.134969 50.837416 
L 77.439637 89.572361 
L 77.744306 75.898804 
L 78.048974 49.609934 
L 78.353642 79.166102 
L 78.65831 68.93637 
L 78.962979 67.751477 
L 79.267647 47.785735 
L 79.572315 70.58941 
L 79.876984 68.87258 
L 80.181652 37.327471 
L 80.48632 76.07091 
L 80.790989 63.73615 
L 81.095657 38.072042 
L 81.400325 68.832961 
L 81.704993 58.409097 
L 82.009662 56.392466 
L 82.31433 38.527097 
L 82.618998 61.600144 
L 82.923667 60.463365 
L 83.228335 29.655185 
L 83.533003 68.137716 
L 83.837672 56.891935 
L 84.14234 31.437376 
L 84.447008 63.195799 
L 84.751677 52.376765 
L 85.056345 49.421483 
L 85.361013 33.344991 
L 85.665681 56.469897 
L 85.97035 55.70332 
L 86.275018 25.293347 
L 86.579686 63.40687 
L 86.884355 53.054024 
L 87.189023 27.600039 
L 87.493691 60.168847 
L 87.79836 48.908319 
L 88.103028 45.092259 
L 88.407696 30.451416 
L 88.712364 53.537157 
L 89.017033 53.010155 
L 89.321701 22.810191 
L 89.626369 60.521588 
L 89.931038 50.918206 
L 90.235706 25.346095 
L 90.540374 58.63075 
L 90.845043 46.88124 
L 91.149711 42.168116 
L 91.454379 28.869672 
L 91.759048 51.843858 
L 92.063716 51.489638 
L 92.368384 21.389658 
L 92.673052 58.652487 
L 92.977721 49.751245 
L 93.282389 23.982761 
L 93.587057 57.944938 
L 93.891726 45.669163 
L 94.196394 40.058675 
L 94.501062 28.02599 
L 94.805731 50.85728 
L 95.110399 50.632776 
L 95.415067 20.574095 
L 95.719735 57.415901 
L 96.024404 49.123052 
L 96.329072 23.147265 
L 96.63374 57.686378 
L 96.938409 44.936437 
L 97.243077 38.51714 
L 97.547745 27.588793 
L 97.852414 50.275866 
L 98.157082 50.151539 
L 98.46175 20.101859 
L 98.766419 56.533272 
L 99.071087 48.803166 
L 99.375755 22.600786 
L 99.680423 57.699641 
L 99.985092 44.464025 
L 100.594428 27.390859 
L 100.899097 49.920215 
L 101.203765 49.883856 
L 101.508433 19.823064 
L 101.813102 55.836026 
L 102.11777 48.659768 
L 102.422438 22.218443 
L 102.727106 57.857799 
L 103.031775 44.144279 
L 103.641111 28.163067 
L 103.94578 49.698135 
L 104.250448 49.735944 
L 104.555116 19.657098 
L 104.859785 55.307293 
L 105.164453 48.603807 
L 105.469121 21.948557 
L 105.77379 58.064147 
L 106.078458 43.920331 
L 106.383126 35.190503 
L 106.687794 29.847273 
L 106.992463 49.55233 
L 107.297131 49.656097 
L 107.601799 19.554065 
L 107.906468 54.845227 
L 108.211136 48.604558 
L 108.515804 21.730589 
L 108.820473 58.320124 
L 109.429809 34.296253 
L 109.734478 31.575466 
L 110.039146 49.447646 
L 110.343814 49.615141 
L 110.648482 19.486333 
L 110.953151 54.424411 
L 111.257819 48.634841 
L 111.562487 21.548537 
L 111.867156 58.586042 
L 112.476492 33.497201 
L 112.781161 33.15601 
L 113.085829 49.372777 
L 113.390497 49.594805 
L 113.695165 19.441848 
L 113.999834 54.074847 
L 114.304502 48.674341 
L 114.60917 21.396655 
L 114.913839 58.843298 
L 115.523175 32.754366 
L 115.827844 34.685143 
L 116.132512 49.3125 
L 116.43718 49.586848 
L 116.741849 19.408675 
L 117.046517 53.736156 
L 117.351185 48.724171 
L 117.655853 21.254211 
L 117.960522 59.109571 
L 118.569858 32.019706 
L 118.874527 36.222194 
L 119.179195 49.260046 
L 119.483863 49.585778 
L 119.788532 19.517906 
L 120.0932 53.421232 
L 120.397868 48.775438 
L 120.702536 21.126652 
L 121.007205 59.356864 
L 121.616541 31.371692 
L 121.92121 37.567805 
L 122.225878 49.218168 
L 122.530546 49.587617 
L 122.835215 20.038737 
L 123.139883 53.142496 
L 123.444551 48.824622 
L 123.74922 21.009925 
L 124.053888 59.59408 
L 124.663224 30.740766 
L 125.272561 49.178696 
L 125.577229 49.591731 
L 125.881898 20.561619 
L 126.186566 52.865742 
L 126.491234 48.875688 
L 126.795903 20.894916 
L 127.100571 59.832935 
L 127.709907 30.11759 
L 128.319244 49.142136 
L 128.623912 49.596723 
L 128.928581 21.046965 
L 129.233249 52.614549 
L 129.537917 48.92222 
L 129.842586 20.792526 
L 130.147254 60.044613 
L 130.756591 29.572613 
L 131.365927 49.110433 
L 131.670595 49.601759 
L 131.975264 21.490199 
L 132.279932 52.382055 
L 132.5846 48.966659 
L 132.889269 20.694069 
L 133.193937 60.252802 
L 133.803274 29.028108 
L 134.107942 42.536694 
L 134.41261 49.079167 
L 134.717278 49.60721 
L 135.021947 21.933809 
L 135.326615 52.149922 
L 135.631283 49.011441 
L 135.935952 20.595924 
L 136.24062 60.458506 
L 136.849957 28.505618 
L 137.154625 43.636757 
L 137.459293 48.882573 
L 137.763962 49.612337 
L 138.06863 22.329442 
L 138.373298 51.946724 
L 138.677966 49.050107 
L 138.982635 20.512024 
L 139.287303 60.639323 
L 139.89664 28.034021 
L 140.201308 44.644014 
L 140.505976 48.520544 
L 140.810645 49.617227 
L 141.115313 22.704542 
L 141.419981 51.750823 
L 141.724649 49.088182 
L 142.029318 20.428224 
L 142.333986 60.820236 
L 142.943323 27.56251 
L 143.247991 45.651353 
L 143.552659 48.158595 
L 143.857328 49.622192 
L 144.161996 23.079711 
L 144.466664 51.555747 
L 144.771333 49.125579 
L 145.076001 20.347399 
L 145.380669 60.993361 
L 145.990006 27.124032 
L 146.294674 46.574818 
L 146.599342 47.831657 
L 146.904011 49.626552 
L 147.208679 23.401111 
L 147.513347 51.390294 
L 147.818016 49.157827 
L 148.122684 20.276658 
L 148.427352 61.15023 
L 149.036689 26.715424 
L 149.341357 47.447958 
L 149.646025 47.518006 
L 149.950694 49.630798 
L 150.255362 23.71817 
L 150.56003 51.224862 
L 150.864699 49.190095 
L 151.169367 20.205936 
L 151.474035 61.307116 
L 152.083372 26.306832 
L 152.38804 48.321113 
L 152.692708 47.204369 
L 152.997377 49.635026 
L 153.302045 24.027868 
L 153.606713 51.065853 
L 153.911382 49.220623 
L 154.21605 20.140155 
L 154.520718 61.452511 
L 155.130055 25.93909 
L 155.434723 49.095357 
L 155.739392 46.93045 
L 156.04406 49.638631 
L 156.348728 24.295793 
L 156.653396 50.92608 
L 156.958065 49.247902 
L 157.262733 20.080408 
L 157.567401 61.5885 
L 157.87207 46.505229 
L 158.176738 25.584966 
L 158.481406 49.852148 
L 158.786075 46.658625 
L 159.090743 49.642241 
L 159.395411 24.563722 
L 159.700079 50.786311 
L 160.004748 49.275186 
L 160.309416 20.020664 
L 160.614084 61.724492 
L 160.918753 46.68428 
L 161.223421 25.230845 
L 161.528089 50.601377 
L 161.832758 46.393143 
L 162.137426 49.645699 
L 162.442094 24.816077 
L 162.746763 50.656836 
L 163.051431 49.300039 
L 163.356099 19.967173 
L 163.660767 61.846439 
L 163.965436 46.842451 
L 164.270104 24.922742 
L 164.574772 51.257307 
L 164.879441 46.15755 
L 165.184109 49.648752 
L 165.488777 25.042475 
L 165.793446 50.538736 
L 166.098114 49.323096 
L 166.402782 19.916693 
L 166.70745 61.964308 
L 167.012119 46.99764 
L 167.316787 24.61582 
L 167.621455 51.913238 
L 167.926124 45.921958 
L 168.230792 49.651806 
L 168.53546 25.268874 
L 168.840129 50.420637 
L 169.144797 49.346153 
L 169.449465 19.866214 
L 169.754134 62.082178 
L 170.058802 47.150762 
L 170.36347 24.31708 
L 170.668138 52.542943 
L 170.972807 45.698927 
L 171.277475 48.913169 
L 171.582143 25.474216 
L 171.886812 50.315354 
L 172.19148 49.366351 
L 172.496148 19.822777 
L 172.800817 61.328971 
L 173.105485 47.285268 
L 173.410153 24.051065 
L 173.714821 53.111452 
L 174.01949 45.494735 
L 174.324158 47.432842 
L 174.628826 25.665519 
L 174.933495 50.215563 
L 175.238163 49.385834 
L 175.542831 19.780123 
L 175.8475 60.575765 
L 176.152168 47.419774 
L 176.456836 23.78505 
L 176.761505 53.679962 
L 177.066173 45.290543 
L 177.370841 45.952515 
L 177.675509 25.856823 
L 177.980178 50.115772 
L 178.284846 49.405242 
L 178.589514 19.738296 
L 178.894183 59.848829 
L 179.198851 47.548455 
L 179.503519 23.534104 
L 179.808188 54.208691 
L 180.112856 45.103361 
L 180.417524 44.615229 
L 180.722192 26.023661 
L 181.026861 50.03029 
L 181.331529 49.421706 
L 181.636197 19.702254 
L 181.940866 59.212383 
L 182.245534 47.665034 
L 182.550202 23.303544 
L 182.854871 54.70143 
L 183.159539 44.926384 
L 183.464207 43.3322 
L 183.768876 26.18531 
L 184.073544 49.945968 
L 184.378212 49.438169 
L 184.68288 19.666213 
L 184.987549 58.575936 
L 185.292217 47.781614 
L 185.596885 23.072984 
L 185.901554 55.194169 
L 186.206222 44.749407 
L 186.51089 42.049171 
L 186.815559 26.345705 
L 187.120227 49.863608 
L 187.424895 49.453994 
L 187.729563 19.632126 
L 188.034232 57.983886 
L 188.3389 47.889648 
L 188.643568 22.862397 
L 188.948237 55.637653 
L 189.252905 44.59248 
L 189.557573 40.928594 
L 189.862242 26.482296 
L 190.16691 49.792357 
L 190.471578 49.467906 
L 190.776247 19.601672 
L 191.080915 57.4461 
L 191.385583 47.99069 
L 191.690251 22.662566 
L 191.99492 56.06472 
L 192.299588 44.43909 
L 192.604256 39.816566 
L 192.908925 26.618886 
L 193.213593 49.721107 
L 193.518261 49.481817 
L 193.82293 19.571217 
L 194.127598 56.908313 
L 194.432266 48.091732 
L 194.736935 22.462735 
L 195.041603 56.491787 
L 195.346271 44.287234 
L 195.650939 38.730476 
L 195.955608 26.749654 
L 196.260276 49.653999 
L 196.564944 49.494704 
L 196.869613 19.543477 
L 197.174281 56.426798 
L 197.478949 48.182337 
L 197.783618 22.286208 
L 198.088286 56.863357 
L 198.392954 44.154289 
L 198.697622 37.766659 
L 199.002291 26.86507 
L 199.306959 49.593793 
L 199.611627 49.506459 
L 199.916296 19.517744 
L 200.220964 55.972378 
L 200.525632 48.269912 
L 200.830301 22.113011 
L 201.134969 57.233504 
L 201.439637 44.021343 
L 202.048974 26.980487 
L 202.353642 49.533588 
L 202.65831 49.518214 
L 202.962979 19.49201 
L 203.267647 55.517957 
L 203.572315 48.357487 
L 203.876984 21.942121 
L 204.181652 57.593785 
L 204.48632 43.893713 
L 205.095657 27.930835 
L 205.400325 49.478982 
L 205.704993 49.528693 
L 206.009662 19.469468 
L 206.31433 55.126935 
L 206.618998 48.432457 
L 206.923667 21.792007 
L 207.228335 57.914599 
L 207.533003 43.778486 
L 207.837672 35.05505 
L 208.14234 29.716114 
L 208.447008 49.42811 
L 208.751677 49.538625 
L 209.056345 19.447723 
L 209.361013 54.742957 
L 209.665681 48.507427 
L 209.97035 21.641893 
L 210.275018 58.235413 
L 210.884355 34.21969 
L 211.189023 31.501393 
L 211.493691 49.377238 
L 211.79836 49.548558 
L 212.103028 19.426063 
L 212.407696 54.36642 
L 212.712364 48.579782 
L 213.017033 21.498282 
L 213.321701 58.538055 
L 213.931038 33.453916 
L 214.235706 33.114165 
L 214.540374 49.332871 
L 214.845043 49.557066 
L 215.149711 19.407689 
L 215.454379 54.041965 
L 215.759048 48.64313 
L 216.063716 21.368175 
L 216.368384 58.816112 
L 216.977721 32.729893 
L 217.282389 34.661503 
L 217.587057 49.289885 
L 217.891726 49.565459 
L 218.196394 19.389316 
L 218.501062 53.71751 
L 218.805731 48.706479 
L 219.110399 21.238068 
L 219.415067 59.094168 
L 220.024404 32.00587 
L 220.329072 36.20884 
L 220.63374 49.247232 
L 220.938409 49.573657 
L 221.243077 19.506929 
L 221.547745 53.410659 
L 221.852414 48.765408 
L 222.157082 21.117499 
L 222.46175 59.348135 
L 223.071087 31.36387 
L 223.375755 37.560261 
L 223.680423 49.210909 
L 223.985092 49.580749 
L 224.28976 20.032506 
L 224.594428 53.1365 
L 224.899097 48.818936 
L 225.203765 21.004733 
L 225.508433 59.589132 
L 226.11777 30.736345 
L 226.727106 49.174586 
L 227.031775 49.587841 
L 227.336443 20.558082 
L 227.641111 52.862341 
L 227.94578 48.872465 
L 228.250448 20.891966 
L 228.555116 59.830129 
L 229.164453 30.115092 
L 229.77379 49.139812 
L 230.078458 49.59452 
L 230.383126 21.044958 
L 230.687794 52.61262 
L 230.992463 48.920392 
L 231.297131 20.790848 
L 231.601799 60.043021 
L 232.211136 29.571204 
L 232.820473 49.10912 
L 233.125141 49.600513 
L 233.429809 21.489061 
L 233.734478 52.38096 
L 234.039146 48.965622 
L 234.343814 20.693111 
L 234.648482 60.251898 
L 235.257819 29.027315 
L 235.562487 42.535931 
L 235.867156 49.078428 
L 236.171824 49.606505 
L 236.476492 21.933164 
L 236.781161 52.149301 
L 237.085829 49.010853 
L 237.390497 20.595375 
L 237.695165 60.457991 
L 238.304502 28.505173 
L 238.60917 43.63633 
L 238.913839 48.882159 
L 239.218507 49.611941 
L 239.523175 22.329077 
L 239.827844 51.94637 
L 240.132512 49.049773 
L 240.43718 20.511706 
L 240.741849 60.639029 
L 241.351185 28.033773 
L 241.655853 44.643776 
L 241.960522 48.520315 
L 242.26519 49.617004 
L 242.569858 22.704337 
L 242.874527 51.750622 
L 243.179195 49.087992 
L 243.483863 20.428037 
L 243.788532 60.820067 
L 244.397868 27.562373 
L 244.702536 45.651223 
L 245.007205 48.15847 
L 245.311873 49.622068 
L 245.616541 23.079596 
L 245.92121 51.555632 
L 246.225878 49.12547 
L 246.530546 20.347286 
L 246.835215 60.993263 
L 247.444551 27.123959 
L 247.74922 46.574749 
L 248.053888 47.83159 
L 248.358556 49.626484 
L 248.663224 23.401047 
L 248.967893 51.390228 
L 249.272561 49.157765 
L 249.577229 20.276587 
L 249.881898 61.150172 
L 250.491234 26.715387 
L 250.795903 47.447923 
L 251.100571 47.517972 
L 251.405239 49.630762 
L 251.709907 23.718135 
L 252.014576 51.224824 
L 252.319244 49.190059 
L 252.623912 20.205888 
L 252.928581 61.307081 
L 253.537917 26.306816 
L 253.842586 48.321098 
L 254.147254 47.204354 
L 254.451922 49.635008 
L 254.756591 24.02785 
L 255.061259 51.06583 
L 255.365927 49.220602 
L 255.670595 20.140121 
L 255.975264 61.452488 
L 256.5846 25.939085 
L 256.889269 49.095352 
L 257.193937 46.930445 
L 257.498605 49.638623 
L 257.803274 24.295784 
L 258.107942 50.926066 
L 258.41261 49.24789 
L 258.717278 20.080382 
L 259.021947 61.588485 
L 259.326615 46.505216 
L 259.631283 25.584968 
L 259.935952 49.85215 
L 260.24062 46.658626 
L 260.545288 49.642238 
L 260.849957 24.563718 
L 261.154625 50.786302 
L 261.459293 49.275178 
L 261.763962 20.020642 
L 262.06863 61.724481 
L 262.373298 46.684271 
L 262.677966 25.23085 
L 262.982635 50.601383 
L 263.287303 46.393146 
L 263.591971 49.6457 
L 263.89664 24.816077 
L 264.201308 50.65683 
L 264.505976 49.300034 
L 264.810645 19.967154 
L 265.115313 61.84643 
L 265.419981 46.842445 
L 265.724649 24.92275 
L 266.029318 51.257315 
L 266.333986 46.157555 
L 266.638654 49.648755 
L 266.943323 25.042476 
L 267.247991 50.538732 
L 267.552659 49.323092 
L 267.857328 19.916675 
L 268.161996 61.964301 
L 268.466664 46.997635 
L 268.771333 24.615829 
L 269.076001 51.913247 
L 269.380669 45.921964 
L 269.685337 49.65181 
L 269.990006 25.268876 
L 270.294674 50.420634 
L 270.599342 49.34615 
L 270.904011 19.866196 
L 271.208679 62.082172 
L 271.513347 47.150757 
L 271.818016 24.31709 
L 272.122684 52.542952 
L 272.427352 45.698933 
L 272.732021 48.913174 
L 273.036689 25.474218 
L 273.341357 50.315351 
L 273.646025 49.366349 
L 273.950694 19.82276 
L 274.255362 61.328965 
L 274.56003 47.285264 
L 274.864699 24.051076 
L 275.169367 53.111461 
L 275.474035 45.494741 
L 275.778704 47.432847 
L 276.083372 25.665522 
L 276.38804 50.21556 
L 276.692708 49.385832 
L 276.997377 19.780107 
L 277.302045 60.575759 
L 277.606713 47.41977 
L 277.911382 23.785061 
L 278.21605 53.679971 
L 278.520718 45.29055 
L 278.825387 45.95252 
L 279.130055 25.856826 
L 279.434723 50.115769 
L 279.739392 49.405241 
L 280.04406 19.738279 
L 280.348728 59.848823 
L 280.653396 47.548451 
L 280.958065 23.534115 
L 281.262733 54.208701 
L 281.567401 45.103367 
L 281.87207 44.615234 
L 282.176738 26.023665 
L 282.481406 50.030288 
L 282.786075 49.421704 
L 283.090743 19.702238 
L 283.395411 59.212376 
L 283.700079 47.66503 
L 284.004748 23.303555 
L 284.309416 54.70144 
L 284.614084 44.92639 
L 284.918753 43.332205 
L 285.223421 26.185313 
L 285.528089 49.945966 
L 285.832758 49.438167 
L 286.137426 19.666196 
L 286.442094 58.575929 
L 286.746763 47.78161 
L 287.051431 23.072995 
L 287.356099 55.194178 
L 287.660767 44.749413 
L 287.965436 42.049176 
L 288.270104 26.345709 
L 288.574772 49.863605 
L 288.879441 49.453993 
L 289.184109 19.63211 
L 289.488777 57.98388 
L 289.793446 47.889644 
L 290.098114 22.862409 
L 290.402782 55.637663 
L 290.70745 44.592486 
L 291.012119 40.928598 
L 291.316787 26.482299 
L 291.621455 49.792355 
L 291.926124 49.467904 
L 292.230792 19.601655 
L 292.53546 57.446093 
L 292.840129 47.990686 
L 293.144797 22.662578 
L 293.449465 56.06473 
L 293.754134 44.439096 
L 294.058802 39.816571 
L 294.36347 26.61889 
L 294.668138 49.721105 
L 294.972807 49.481815 
L 295.277475 19.571201 
L 295.582143 56.908306 
L 295.886812 48.091728 
L 296.19148 22.462747 
L 296.496148 56.491796 
L 296.800817 44.28724 
L 297.105485 38.73048 
L 297.410153 26.749657 
L 297.714821 49.653996 
L 298.01949 49.494702 
L 298.324158 19.543461 
L 298.628826 56.426791 
L 298.933495 48.182333 
L 299.238163 22.28622 
L 299.542831 56.863367 
L 299.8475 44.154294 
L 300.152168 37.766664 
L 300.456836 26.865074 
L 300.761505 49.593791 
L 301.066173 49.506457 
L 301.370841 19.517727 
L 301.675509 55.97237 
L 301.980178 48.269908 
L 302.284846 22.113023 
L 302.589514 57.233514 
L 302.894183 44.021348 
L 303.503519 26.98049 
L 303.808188 49.533586 
L 304.112856 49.518212 
L 304.417524 19.491993 
L 304.722192 55.51795 
L 305.026861 48.357483 
L 305.331529 21.942134 
L 305.636197 57.593795 
L 305.940866 43.893718 
L 306.550202 27.930838 
L 306.854871 49.47898 
L 307.159539 49.528691 
L 307.464207 19.469451 
L 307.768876 55.126928 
L 308.073544 48.432453 
L 308.378212 21.79202 
L 308.68288 57.914609 
L 308.987549 43.778491 
L 309.292217 35.055054 
L 309.596885 29.716117 
L 309.901554 49.428108 
L 310.206222 49.538624 
L 310.51089 19.447707 
L 310.815559 54.74295 
L 311.120227 48.507423 
L 311.424895 21.641906 
L 311.729563 58.235423 
L 312.3389 34.219694 
L 312.643568 31.501396 
L 312.948237 49.377235 
L 313.252905 49.548556 
L 313.557573 19.426046 
L 313.862242 54.366412 
L 314.16691 48.579778 
L 314.471578 21.498294 
L 314.776247 58.538065 
L 315.385583 33.45392 
L 315.690251 33.114167 
L 315.99492 49.332869 
L 316.299588 49.557065 
L 316.604256 19.407673 
L 316.908925 54.041957 
L 317.213593 48.643127 
L 317.518261 21.368188 
L 317.82293 58.816121 
L 318.432266 32.729897 
L 318.736935 34.661504 
L 319.041603 49.289883 
L 319.346271 49.565458 
L 319.650939 19.389299 
L 319.955608 53.717502 
L 320.260276 48.706475 
L 320.564944 21.238081 
L 320.869613 59.094178 
L 321.478949 32.005874 
L 321.783618 36.208842 
L 322.088286 49.247229 
L 322.392954 49.573655 
L 322.697622 19.506913 
L 323.002291 53.410651 
L 323.306959 48.765404 
L 323.611627 21.117511 
L 323.916296 59.348145 
L 324.525632 31.363874 
L 324.830301 37.560262 
L 325.134969 49.210907 
L 325.439637 49.580747 
L 325.744306 20.032489 
L 326.048974 53.136492 
L 326.353642 48.818933 
L 326.65831 21.004745 
L 326.962979 59.589142 
L 327.572315 30.736349 
L 328.181652 49.174584 
L 328.48632 49.587839 
L 328.790989 20.558066 
L 329.095657 52.862333 
L 329.400325 48.872461 
L 329.704993 20.891979 
L 330.009662 59.830139 
L 330.618998 30.115096 
L 331.228335 49.13981 
L 331.533003 49.594519 
L 331.837672 21.044943 
L 332.14234 52.612612 
L 332.447008 48.920388 
L 332.751677 20.790861 
L 333.056345 60.043031 
L 333.665681 29.571207 
L 334.275018 49.109118 
L 334.579686 49.600511 
L 334.884355 21.489046 
L 335.189023 52.380952 
L 335.493691 48.965619 
L 335.79836 20.693124 
L 336.103028 60.251908 
L 336.712364 29.027318 
L 337.017033 42.535932 
L 337.321701 49.078425 
L 337.626369 49.606504 
L 337.931038 21.933149 
L 338.235706 52.149292 
L 338.540374 49.010849 
L 338.845043 20.595388 
L 339.149711 60.458001 
L 339.759048 28.505176 
L 340.063716 43.63633 
L 340.368384 48.882157 
L 340.673052 49.611939 
L 340.977721 22.329062 
L 341.282389 51.946362 
L 341.587057 49.049769 
L 341.891726 20.511719 
L 342.196394 60.639039 
L 342.805731 28.033777 
L 343.110399 44.643776 
L 343.415067 48.520313 
L 343.719735 49.617002 
L 344.024404 22.704322 
L 344.329072 51.750613 
L 344.63374 49.087988 
L 344.938409 20.42805 
L 345.243077 60.820077 
L 345.852414 27.562377 
L 346.157082 45.651222 
L 346.46175 48.158468 
L 346.766419 49.622066 
L 347.071087 23.079581 
L 347.375755 51.555623 
L 347.680423 49.125467 
L 347.985092 20.347299 
L 348.28976 60.993273 
L 348.899097 27.123962 
L 349.203765 46.574748 
L 349.508433 47.831588 
L 349.813102 49.626482 
L 350.11777 23.401032 
L 350.422438 51.390219 
L 350.727106 49.157761 
L 351.031775 20.2766 
L 351.336443 61.150182 
L 351.94578 26.715391 
L 352.250448 47.447922 
L 352.555116 47.51797 
L 352.859785 49.630761 
L 353.164453 23.718121 
L 353.469121 51.224815 
L 353.77379 49.190056 
L 354.078458 20.205901 
L 354.383126 61.307091 
L 354.992463 26.306819 
L 355.297131 48.321096 
L 355.601799 47.204352 
L 355.906468 49.635006 
L 356.211136 24.027836 
L 356.515804 51.065821 
L 356.820473 49.220598 
L 357.125141 20.140134 
L 357.429809 61.452498 
L 358.039146 25.939088 
L 358.343814 49.09535 
L 358.648482 46.930443 
L 358.953151 49.638621 
L 359.257819 24.29577 
L 359.562487 50.926057 
L 359.867156 49.247886 
L 360.171824 20.080395 
L 360.476492 61.588494 
L 360.781161 46.505221 
L 361.085829 25.584971 
L 361.390497 49.852148 
L 361.695165 46.658624 
L 361.999834 49.642237 
L 362.304502 24.563704 
L 362.60917 50.786294 
L 362.913839 49.275174 
L 363.218507 20.020656 
L 363.523175 61.724491 
L 363.827844 46.684276 
L 364.132512 25.230854 
L 364.43718 50.601381 
L 364.741849 46.393145 
L 365.046517 49.645698 
L 365.351185 24.816063 
L 365.655853 50.656821 
L 365.960522 49.30003 
L 366.26519 19.967167 
L 366.569858 61.84644 
L 366.874527 46.842449 
L 367.179195 24.922753 
L 367.483863 51.257313 
L 367.788532 46.157554 
L 368.0932 49.648753 
L 368.397868 25.042463 
L 368.702536 50.538723 
L 369.007205 49.323088 
L 369.311873 19.916689 
L 369.616541 61.964311 
L 369.92121 46.99764 
L 370.225878 24.615833 
L 370.530546 51.913245 
L 370.835215 45.921963 
L 371.139883 49.651808 
L 371.444551 25.268862 
L 371.74922 50.420625 
L 372.053888 49.346146 
L 372.358556 19.86621 
L 372.663224 62.082181 
L 372.663224 62.082181 
" style="fill:none;stroke:#4c72b0;stroke-linecap:round;stroke-width:1.5;"/>
   </g>
   <g id="patch_3">
    <path d="M 53.081406 226.945663 
L 53.081406 9.505663 
" style="fill:none;stroke:#ffffff;stroke-linecap:square;stroke-linejoin:miter;stroke-width:1.25;"/>
   </g>
   <g id="patch_4">
    <path d="M 387.881406 226.945663 
L 387.881406 9.505663 
" style="fill:none;stroke:#ffffff;stroke-linecap:square;stroke-linejoin:miter;stroke-width:1.25;"/>
   </g>
   <g id="patch_5">
    <path d="M 53.081406 226.945663 
L 387.881406 226.945663 
" style="fill:none;stroke:#ffffff;stroke-linecap:square;stroke-linejoin:miter;stroke-width:1.25;"/>
   </g>
   <g id="patch_6">
    <path d="M 53.081406 9.505663 
L 387.881406 9.505663 
" style="fill:none;stroke:#ffffff;stroke-linecap:square;stroke-linejoin:miter;stroke-width:1.25;"/>
   </g>
  </g>
 </g>
 <defs>
  <clipPath id="pe24a15fa97">
   <rect height="217.44" width="334.8" x="53.081406" y="9.505663"/>
  </clipPath>
 </defs>
</svg>
